SplineFontDB: 3.2
FontName: LiberationMono-Bold
FullName: Liberation Mono Bold
FamilyName: Liberation Mono
Weight: Bold
Copyright: Digitized data copyright (c) 2010 Google Corporation.\nCopyright (c) 2012 Red Hat, Inc.
Version: 2.1.5
ItalicAngle: 0
UnderlinePosition: -375
UnderlineWidth: 205
Ascent: 1638
Descent: 410
InvalidEm: 0
LayerCount: 2
Layer: 0 1 "Back" 1
Layer: 1 1 "Fore" 0
XUID: [1021 445 290132255 14498810]
FSType: 0
OS2Version: 3
OS2_WeightWidthSlopeOnly: 0
OS2_UseTypoMetrics: 0
CreationTime: 1277890270
ModificationTime: 1633004922
PfmFamily: 17
TTFWeight: 700
TTFWidth: 5
LineGap: 0
VLineGap: 0
Panose: 2 7 7 9 2 2 5 2 4 4
OS2TypoAscent: 1297
OS2TypoAOffset: 0
OS2TypoDescent: -428
OS2TypoDOffset: 0
OS2TypoLinegap: 0
OS2WinAscent: 1705
OS2WinAOffset: 0
OS2WinDescent: 615
OS2WinDOffset: 0
HheadAscent: 1705
HheadAOffset: 0
HheadDescent: -615
HheadDOffset: 0
OS2SubXSize: 1434
OS2SubYSize: 1331
OS2SubXOff: 0
OS2SubYOff: 285
OS2SupXSize: 1434
OS2SupYSize: 1331
OS2SupXOff: 0
OS2SupYOff: 865
OS2StrikeYSize: 102
OS2StrikeYPos: 530
OS2FamilyClass: 2053
OS2Vendor: '1ASC'
OS2CodePages: 600001bf.dff70000
OS2UnicodeRanges: e0000aff.400078ff.00000001.00000000
Lookup: 4 1 0 "'dlig' Discretionary Ligatures in Hebrew lookup 0" { "'dlig' Discretionary Ligatures in Hebrew lookup 0 subtable"  } ['dlig' ('hebr' <'dflt' > ) ]
Lookup: 4 1 0 "'ccmp' Glyph Composition/Decomposition in Hebrew lookup 1" { "'ccmp' Glyph Composition/Decomposition in Hebrew lookup 1 subtable"  } ['ccmp' ('hebr' <'dflt' > ) ]
Lookup: 6 1 0 "'ccmp' Glyph Composition/Decomposition in Hebrew lookup 2" { "'ccmp' Glyph Composition/Decomposition in Hebrew lookup 2 subtable"  } ['ccmp' ('hebr' <'dflt' > ) ]
Lookup: 4 1 0 "Ligature Substitution lookup 3" { "Ligature Substitution lookup 3 subtable"  } []

StartChar: .notdef
Encoding: 65536 -1 0
Width: 1229
GlyphClass: 2
Flags: W
LayerCount: 2
Fore
SplineSet
127 0 m 1,0,-1
 127 752 l 1,1,-1
 897 752 l 1,2,-1
 897 0 l 1,3,-1
 127 0 l 1,0,-1
768 623 m 1,4,-1
 256 623 l 1,5,-1
 256 129 l 1,6,-1
 768 129 l 1,7,-1
 768 623 l 1,4,-1
EndSplineSet
Validated: 1
EndChar

StartChar: exclam
Encoding: 33 33 4
Width: 1229
GlyphClass: 2
Flags: W
LayerCount: 2
Fore
SplineSet
730 426 m 1,0,-1
 500 426 l 1,1,-1
 468 1349 l 1,2,-1
 762 1349 l 1,3,-1
 730 426 l 1,0,-1
468 0 m 1,4,-1
 468 270 l 1,5,-1
 756 270 l 1,6,-1
 756 0 l 1,7,-1
 468 0 l 1,4,-1
EndSplineSet
Validated: 1
EndChar

StartChar: quotedbl
Encoding: 34 34 5
Width: 1229
GlyphClass: 2
Flags: W
LayerCount: 2
Fore
SplineSet
942 844 m 1,0,-1
 743 844 l 1,1,-1
 706 1485 l 1,2,-1
 981 1485 l 1,3,-1
 942 844 l 1,0,-1
486 844 m 1,4,-1
 287 844 l 1,5,-1
 250 1485 l 1,6,-1
 523 1485 l 1,7,-1
 486 844 l 1,4,-1
EndSplineSet
Validated: 1
EndChar

StartChar: numbersign
Encoding: 35 35 6
Width: 1229
GlyphClass: 2
Flags: W
LayerCount: 2
Fore
SplineSet
951 835 m 1,0,-1
 882 511 l 1,1,-1
 1119 511 l 1,2,-1
 1119 362 l 1,3,-1
 849 362 l 1,4,-1
 771 0 l 1,5,-1
 616 0 l 1,6,-1
 695 362 l 1,7,-1
 386 362 l 1,8,-1
 308 0 l 1,9,-1
 155 0 l 1,10,-1
 233 362 l 1,11,-1
 59 362 l 1,12,-1
 59 511 l 1,13,-1
 265 511 l 1,14,-1
 335 835 l 1,15,-1
 108 835 l 1,16,-1
 108 983 l 1,17,-1
 367 983 l 1,18,-1
 446 1349 l 1,19,-1
 599 1349 l 1,20,-1
 521 983 l 1,21,-1
 829 983 l 1,22,-1
 908 1349 l 1,23,-1
 1061 1349 l 1,24,-1
 983 983 l 1,25,-1
 1168 983 l 1,26,-1
 1168 835 l 1,27,-1
 951 835 l 1,0,-1
488 835 m 1,28,-1
 418 511 l 1,29,-1
 727 511 l 1,30,-1
 797 835 l 1,31,-1
 488 835 l 1,28,-1
EndSplineSet
Validated: 1
EndChar

StartChar: dollar
Encoding: 36 36 7
Width: 1229
GlyphClass: 2
Flags: W
LayerCount: 2
Fore
SplineSet
1152 393 m 0,0,1
 1152 212 1152 212 1030.5 112.5 c 128,-1,2
 909 13 909 13 671 4 c 1,3,-1
 671 -171 l 1,4,-1
 562 -171 l 1,5,-1
 562 1 l 1,6,7
 347 9 347 9 227 102.5 c 128,-1,8
 107 196 107 196 69 389 c 1,9,-1
 325 436 l 1,10,11
 344 323 344 323 400.5 270.5 c 128,-1,12
 457 218 457 218 562 208 c 1,13,-1
 562 599 l 1,14,15
 559 601 559 601 547 603.5 c 128,-1,16
 535 606 535 606 531 606 c 0,17,18
 370 643 370 643 288 693.5 c 128,-1,19
 206 744 206 744 161.5 821.5 c 128,-1,20
 117 899 117 899 117 1011 c 0,21,22
 117 1177 117 1177 230 1267.5 c 128,-1,23
 343 1358 343 1358 562 1367 c 1,24,-1
 562 1501 l 1,25,-1
 671 1501 l 1,26,-1
 671 1367 l 1,27,28
 866 1360 866 1360 971 1280.5 c 128,-1,29
 1076 1201 1076 1201 1122 1017 c 1,30,-1
 858 978 l 1,31,32
 828 1150 828 1150 671 1171 c 1,33,-1
 671 819 l 1,34,-1
 682 817 l 1,35,36
 711 817 711 817 858.5 769 c 128,-1,37
 1006 721 1006 721 1079 627.5 c 128,-1,38
 1152 534 1152 534 1152 393 c 0,0,1
562 1175 m 1,39,40
 379 1161 379 1161 379 1015 c 0,41,42
 379 970 379 970 394 941.5 c 128,-1,43
 409 913 409 913 439 893 c 128,-1,44
 469 873 469 873 562 843 c 1,45,-1
 562 1175 l 1,39,40
892 389 m 0,46,47
 892 439 892 439 874 470.5 c 128,-1,48
 856 502 856 502 821.5 522 c 128,-1,49
 787 542 787 542 671 575 c 1,50,-1
 671 208 l 1,51,52
 892 223 892 223 892 389 c 0,46,47
EndSplineSet
Validated: 1
EndChar

StartChar: percent
Encoding: 37 37 8
Width: 1229
GlyphClass: 2
Flags: W
LayerCount: 2
Fore
SplineSet
236 0 m 1,0,-1
 61 0 l 1,1,-1
 993 1353 l 1,2,-1
 1170 1353 l 1,3,-1
 236 0 l 1,0,-1
291 1361 m 0,4,5
 574 1361 574 1361 574 1025 c 0,6,7
 574 858 574 858 501 771 c 128,-1,8
 428 684 428 684 287 684 c 256,9,10
 146 684 146 684 73 770 c 128,-1,11
 0 856 0 856 0 1025 c 0,12,13
 0 1192 0 1192 70 1276.5 c 128,-1,14
 140 1361 140 1361 291 1361 c 0,4,5
398 1025 m 0,15,16
 398 1132 398 1132 371.5 1179 c 128,-1,17
 345 1226 345 1226 289 1226 c 256,18,19
 233 1226 233 1226 204.5 1180.5 c 128,-1,20
 176 1135 176 1135 176 1025 c 0,21,22
 176 917 176 917 205 870.5 c 128,-1,23
 234 824 234 824 289 824 c 0,24,25
 398 824 398 824 398 1025 c 0,15,16
947 665 m 0,26,27
 1230 665 1230 665 1230 329 c 0,28,29
 1230 162 1230 162 1157 75 c 128,-1,30
 1084 -12 1084 -12 943 -12 c 256,31,32
 802 -12 802 -12 729 74 c 128,-1,33
 656 160 656 160 656 329 c 0,34,35
 656 496 656 496 726 580.5 c 128,-1,36
 796 665 796 665 947 665 c 0,26,27
1054 329 m 0,37,38
 1054 436 1054 436 1027.5 483 c 128,-1,39
 1001 530 1001 530 945 530 c 256,40,41
 889 530 889 530 860.5 484.5 c 128,-1,42
 832 439 832 439 832 329 c 0,43,44
 832 221 832 221 861 174.5 c 128,-1,45
 890 128 890 128 945 128 c 0,46,47
 1054 128 1054 128 1054 329 c 0,37,38
EndSplineSet
Validated: 1
EndChar

StartChar: ampersand
Encoding: 38 38 9
Width: 1229
GlyphClass: 2
Flags: W
LayerCount: 2
Fore
SplineSet
24 369 m 0,0,1
 24 496 24 496 104.5 604 c 128,-1,2
 185 712 185 712 326 779 c 1,3,4
 255 921 255 921 255 1046 c 0,5,6
 255 1194 255 1194 348.5 1275.5 c 128,-1,7
 442 1357 442 1357 616 1357 c 0,8,9
 769 1357 769 1357 861 1280 c 128,-1,10
 953 1203 953 1203 953 1073 c 0,11,12
 953 971 953 971 873 884 c 128,-1,13
 793 797 793 797 588 702 c 1,14,15
 683 536 683 536 802 400 c 1,16,17
 877 549 877 549 910 724 c 1,18,-1
 1114 697 l 1,19,20
 1072 460 1072 460 959 262 c 1,21,22
 1044 189 1044 189 1128 189 c 0,23,24
 1185 189 1185 189 1221 206 c 1,25,-1
 1221 10 l 1,26,27
 1183 -11 1183 -11 1126 -11 c 0,28,29
 966 -11 966 -11 826 104 c 1,30,31
 662 -19 662 -19 467 -19 c 0,32,33
 255 -19 255 -19 139.5 81.5 c 128,-1,34
 24 182 24 182 24 369 c 0,0,1
671 239 m 1,35,36
 512 415 512 415 409 599 c 1,37,38
 341 559 341 559 304 501 c 128,-1,39
 267 443 267 443 267 373 c 0,40,41
 267 275 267 275 322 219 c 128,-1,42
 377 163 377 163 477 163 c 0,43,44
 581 163 581 163 671 239 c 1,35,36
739 1071 m 0,45,46
 739 1126 739 1126 708 1160.5 c 128,-1,47
 677 1195 677 1195 614 1195 c 0,48,49
 540 1195 540 1195 501.5 1153.5 c 128,-1,50
 463 1112 463 1112 463 1044 c 0,51,52
 463 956 463 956 515 859 c 1,53,54
 615 906 615 906 655 935 c 128,-1,55
 695 964 695 964 717 997 c 128,-1,56
 739 1030 739 1030 739 1071 c 0,45,46
EndSplineSet
Validated: 1
EndChar

StartChar: quotesingle
Encoding: 39 39 10
Width: 1229
GlyphClass: 2
Flags: W
LayerCount: 2
Fore
SplineSet
714 844 m 1,0,-1
 515 844 l 1,1,-1
 478 1485 l 1,2,-1
 751 1485 l 1,3,-1
 714 844 l 1,0,-1
EndSplineSet
Validated: 1
EndChar

StartChar: parenleft
Encoding: 40 40 11
Width: 1229
GlyphClass: 2
Flags: W
LayerCount: 2
Fore
SplineSet
641 -425 m 1,0,1
 484 -199 484 -199 414 26 c 128,-1,2
 344 251 344 251 344 531 c 0,3,4
 344 810 344 810 414 1034.5 c 128,-1,5
 484 1259 484 1259 641 1484 c 1,6,-1
 922 1484 l 1,7,8
 764 1256 764 1256 692.5 1030 c 128,-1,9
 621 804 621 804 621 530 c 0,10,11
 621 257 621 257 692 32.5 c 128,-1,12
 763 -192 763 -192 922 -425 c 1,13,-1
 641 -425 l 1,0,1
EndSplineSet
Validated: 1
EndChar

StartChar: parenright
Encoding: 41 41 12
Width: 1229
GlyphClass: 2
Flags: W
LayerCount: 2
Fore
SplineSet
307 -425 m 1,0,1
 467 -191 467 -191 537.5 32.5 c 128,-1,2
 608 256 608 256 608 530 c 0,3,4
 608 805 608 805 536 1031.5 c 128,-1,5
 464 1258 464 1258 307 1484 c 1,6,-1
 588 1484 l 1,7,8
 746 1257 746 1257 815.5 1032 c 128,-1,9
 885 807 885 807 885 531 c 0,10,11
 885 253 885 253 815.5 28 c 128,-1,12
 746 -197 746 -197 588 -425 c 1,13,-1
 307 -425 l 1,0,1
EndSplineSet
Validated: 1
EndChar

StartChar: asterisk
Encoding: 42 42 13
Width: 1229
GlyphClass: 2
Flags: W
LayerCount: 2
Fore
SplineSet
706 1209 m 1,0,-1
 941 1313 l 1,1,-1
 1009 1116 l 1,2,-1
 759 1055 l 1,3,-1
 945 842 l 1,4,-1
 761 721 l 1,5,-1
 615 973 l 1,6,-1
 466 721 l 1,7,-1
 280 844 l 1,8,-1
 470 1055 l 1,9,-1
 220 1116 l 1,10,-1
 288 1313 l 1,11,-1
 527 1209 l 1,12,-1
 509 1483 l 1,13,-1
 724 1483 l 1,14,-1
 706 1209 l 1,0,-1
EndSplineSet
Validated: 1
EndChar

StartChar: plus
Encoding: 43 43 14
Width: 1229
GlyphClass: 2
Flags: W
LayerCount: 2
Fore
SplineSet
726 569 m 1,0,-1
 726 161 l 1,1,-1
 500 161 l 1,2,-1
 500 569 l 1,3,-1
 101 569 l 1,4,-1
 101 793 l 1,5,-1
 500 793 l 1,6,-1
 500 1201 l 1,7,-1
 726 1201 l 1,8,-1
 726 793 l 1,9,-1
 1128 793 l 1,10,-1
 1128 569 l 1,11,-1
 726 569 l 1,0,-1
EndSplineSet
Validated: 1
EndChar

StartChar: comma
Encoding: 44 44 15
Width: 1229
GlyphClass: 2
Flags: W
LayerCount: 2
Fore
SplineSet
258 -363 m 1,0,-1
 427 299 l 1,1,-1
 742 299 l 1,2,-1
 431 -363 l 1,3,-1
 258 -363 l 1,0,-1
EndSplineSet
Validated: 1
EndChar

StartChar: hyphen
Encoding: 45 45 16
Width: 1229
GlyphClass: 2
Flags: W
LayerCount: 2
Fore
SplineSet
324 409 m 1,0,-1
 324 653 l 1,1,-1
 904 653 l 1,2,-1
 904 409 l 1,3,-1
 324 409 l 1,0,-1
EndSplineSet
Validated: 1
EndChar

StartChar: period
Encoding: 46 46 17
Width: 1229
GlyphClass: 2
Flags: W
LayerCount: 2
Fore
SplineSet
470 0 m 1,0,-1
 470 305 l 1,1,-1
 759 305 l 1,2,-1
 759 0 l 1,3,-1
 470 0 l 1,0,-1
EndSplineSet
Validated: 1
EndChar

StartChar: slash
Encoding: 47 47 18
Width: 1229
GlyphClass: 2
Flags: W
LayerCount: 2
Fore
SplineSet
89 -20 m 1,0,-1
 910 1484 l 1,1,-1
 1138 1484 l 1,2,-1
 321 -20 l 1,3,-1
 89 -20 l 1,0,-1
EndSplineSet
Validated: 1
EndChar

StartChar: zero
Encoding: 48 48 19
Width: 1229
GlyphClass: 2
Flags: W
LayerCount: 2
Fore
SplineSet
1111 675 m 0,0,1
 1111 336 1111 336 983 158 c 128,-1,2
 855 -20 855 -20 611 -20 c 0,3,4
 366 -20 366 -20 241.5 157.5 c 128,-1,5
 117 335 117 335 117 675 c 0,6,7
 117 1027 117 1027 238.5 1198.5 c 128,-1,8
 360 1370 360 1370 619 1370 c 0,9,10
 869 1370 869 1370 990 1196 c 128,-1,11
 1111 1022 1111 1022 1111 675 c 0,0,1
829 675 m 0,12,13
 829 851 829 851 808 953.5 c 128,-1,14
 787 1056 787 1056 743 1103 c 128,-1,15
 699 1150 699 1150 617 1150 c 0,16,17
 531 1150 531 1150 485 1103 c 128,-1,18
 439 1056 439 1056 418.5 953.5 c 128,-1,19
 398 851 398 851 398 675 c 0,20,21
 398 501 398 501 419.5 398 c 128,-1,22
 441 295 441 295 486 248 c 128,-1,23
 531 201 531 201 613 201 c 0,24,25
 729 201 729 201 779 310 c 128,-1,26
 829 419 829 419 829 675 c 0,12,13
506 555 m 1,27,-1
 506 804 l 1,28,-1
 721 804 l 1,29,-1
 721 555 l 1,30,-1
 506 555 l 1,27,-1
EndSplineSet
Validated: 1
Substitution2: "'subs' Subscript lookup 5 subtable" zero.subs
EndChar

StartChar: one
Encoding: 49 49 20
Width: 1229
GlyphClass: 2
Flags: W
LayerCount: 2
Fore
SplineSet
149 0 m 1,0,-1
 149 209 l 1,1,-1
 538 209 l 1,2,-1
 538 1100 l 1,3,4
 499 1018 499 1018 382.5 962 c 128,-1,5
 266 906 266 906 138 906 c 1,6,-1
 138 1120 l 1,7,8
 277 1120 277 1120 387 1181 c 128,-1,9
 497 1242 497 1242 553 1349 c 1,10,-1
 819 1349 l 1,11,-1
 819 209 l 1,12,-1
 1142 209 l 1,13,-1
 1142 0 l 1,14,-1
 149 0 l 1,0,-1
EndSplineSet
Validated: 1
Substitution2: "'subs' Subscript lookup 5 subtable" one.subs
EndChar

StartChar: two
Encoding: 50 50 21
Width: 1229
GlyphClass: 2
Flags: W
LayerCount: 2
Fore
SplineSet
123 0 m 1,0,-1
 123 195 l 1,1,2
 173 305 173 305 265.5 415.5 c 128,-1,3
 358 526 358 526 535 670 c 0,4,5
 673 783 673 783 714 826 c 128,-1,6
 755 869 755 869 778.5 909.5 c 128,-1,7
 802 950 802 950 802 992 c 0,8,9
 802 1064 802 1064 755 1105 c 128,-1,10
 708 1146 708 1146 617 1146 c 0,11,12
 527 1146 527 1146 479.5 1097.5 c 128,-1,13
 432 1049 432 1049 418 952 c 1,14,-1
 135 968 l 1,15,16
 159 1164 159 1164 281.5 1267 c 128,-1,17
 404 1370 404 1370 615 1370 c 0,18,19
 833 1370 833 1370 960 1270.5 c 128,-1,20
 1087 1171 1087 1171 1087 1004 c 0,21,22
 1087 895 1087 895 1018.5 791.5 c 128,-1,23
 950 688 950 688 813 581 c 0,24,25
 619 431 619 431 552 365 c 128,-1,26
 485 299 485 299 455 231 c 1,27,-1
 1109 231 l 1,28,-1
 1109 0 l 1,29,-1
 123 0 l 1,0,-1
EndSplineSet
Validated: 1
Substitution2: "'subs' Subscript lookup 5 subtable" two.subs
EndChar

StartChar: three
Encoding: 51 51 22
Width: 1229
GlyphClass: 2
Flags: W
LayerCount: 2
Fore
SplineSet
1125 376 m 0,0,1
 1125 187 1125 187 989.5 82 c 128,-1,2
 854 -23 854 -23 615 -23 c 0,3,4
 385 -23 385 -23 250.5 77.5 c 128,-1,5
 116 178 116 178 93 368 c 1,6,-1
 379 393 l 1,7,8
 404 205 404 205 614 205 c 0,9,10
 719 205 719 205 778 255.5 c 128,-1,11
 837 306 837 306 837 393 c 256,12,13
 837 480 837 480 764.5 526 c 128,-1,14
 692 572 692 572 557 572 c 2,15,-1
 459 572 l 1,16,-1
 459 799 l 1,17,-1
 551 799 l 2,18,19
 673 799 673 799 738.5 845.5 c 128,-1,20
 804 892 804 892 804 975 c 0,21,22
 804 1050 804 1050 749.5 1098 c 128,-1,23
 695 1146 695 1146 604 1146 c 0,24,25
 518 1146 518 1146 462 1105.5 c 128,-1,26
 406 1065 406 1065 398 977 c 1,27,-1
 117 997 l 1,28,29
 139 1176 139 1176 268.5 1273 c 128,-1,30
 398 1370 398 1370 609 1370 c 0,31,32
 757 1370 757 1370 865.5 1325 c 128,-1,33
 974 1280 974 1280 1031.5 1198.5 c 128,-1,34
 1089 1117 1089 1117 1089 1010 c 0,35,36
 1089 887 1089 887 1011 805 c 128,-1,37
 933 723 933 723 788 695 c 1,38,-1
 788 691 l 1,39,40
 945 673 945 673 1035 588.5 c 128,-1,41
 1125 504 1125 504 1125 376 c 0,0,1
EndSplineSet
Validated: 1
Substitution2: "'subs' Subscript lookup 5 subtable" three.subs
EndChar

StartChar: four
Encoding: 52 52 23
Width: 1229
GlyphClass: 2
Flags: W
LayerCount: 2
Fore
SplineSet
980 287 m 1,0,-1
 980 0 l 1,1,-1
 712 0 l 1,2,-1
 712 287 l 1,3,-1
 71 287 l 1,4,-1
 71 498 l 1,5,-1
 666 1349 l 1,6,-1
 980 1349 l 1,7,-1
 980 496 l 1,8,-1
 1168 496 l 1,9,-1
 1168 287 l 1,10,-1
 980 287 l 1,0,-1
712 907 m 2,11,12
 712 961 712 961 715.5 1024 c 128,-1,13
 719 1087 719 1087 721 1105 c 1,14,15
 695 1049 695 1049 627 943 c 1,16,-1
 307 496 l 1,17,-1
 712 496 l 1,18,-1
 712 907 l 2,11,12
EndSplineSet
Validated: 1
Substitution2: "'subs' Subscript lookup 5 subtable" four.subs
Substitution2: "'sups' Superscript lookup 4 subtable" four.sups
EndChar

StartChar: five
Encoding: 53 53 24
Width: 1229
GlyphClass: 2
Flags: W
LayerCount: 2
Fore
SplineSet
1123 454 m 0,0,1
 1123 314 1123 314 1060.5 206.5 c 128,-1,2
 998 99 998 99 879.5 39.5 c 128,-1,3
 761 -20 761 -20 601 -20 c 0,4,5
 389 -20 389 -20 261.5 75.5 c 128,-1,6
 134 171 134 171 104 352 c 1,7,-1
 385 375 l 1,8,9
 407 285 407 285 463 244 c 128,-1,10
 519 203 519 203 604 203 c 0,11,12
 712 203 712 203 773 267 c 128,-1,13
 834 331 834 331 834 448 c 0,14,15
 834 552 834 552 775 614.5 c 128,-1,16
 716 677 716 677 610 677 c 0,17,18
 493 677 493 677 419 586 c 1,19,-1
 145 586 l 1,20,-1
 194 1349 l 1,21,-1
 1041 1349 l 1,22,-1
 1041 1140 l 1,23,-1
 449 1140 l 1,24,-1
 426 814 l 1,25,26
 528 904 528 904 681 904 c 0,27,28
 882 904 882 904 1002.5 780.5 c 128,-1,29
 1123 657 1123 657 1123 454 c 0,0,1
EndSplineSet
Validated: 1
Substitution2: "'subs' Subscript lookup 5 subtable" five.subs
Substitution2: "'sups' Superscript lookup 4 subtable" five.sups
EndChar

StartChar: six
Encoding: 54 54 25
Width: 1229
GlyphClass: 2
Flags: W
LayerCount: 2
Fore
SplineSet
1115 446 m 0,0,1
 1115 229 1115 229 988 104.5 c 128,-1,2
 861 -20 861 -20 641 -20 c 0,3,4
 396 -20 396 -20 260.5 163.5 c 128,-1,5
 125 347 125 347 125 672 c 0,6,7
 125 1026 125 1026 260.5 1198 c 128,-1,8
 396 1370 396 1370 648 1370 c 0,9,10
 827 1370 827 1370 930.5 1291 c 128,-1,11
 1034 1212 1034 1212 1077 1046 c 1,12,-1
 812 1009 l 1,13,14
 774 1148 774 1148 642 1148 c 0,15,16
 528 1148 528 1148 464 1039.5 c 128,-1,17
 400 931 400 931 400 722 c 1,18,19
 445 797 445 797 525 837 c 128,-1,20
 605 877 605 877 706 877 c 0,21,22
 891 877 891 877 1003 760.5 c 128,-1,23
 1115 644 1115 644 1115 446 c 0,0,1
833 438 m 0,24,25
 833 547 833 547 777.5 608.5 c 128,-1,26
 722 670 722 670 625 670 c 0,27,28
 535 670 535 670 477.5 614.5 c 128,-1,29
 420 559 420 559 420 468 c 0,30,31
 420 355 420 355 479 277 c 128,-1,32
 538 199 538 199 632 199 c 0,33,34
 725 199 725 199 779 263 c 128,-1,35
 833 327 833 327 833 438 c 0,24,25
EndSplineSet
Validated: 1
Substitution2: "'subs' Subscript lookup 5 subtable" six.subs
Substitution2: "'sups' Superscript lookup 4 subtable" six.sups
EndChar

StartChar: seven
Encoding: 55 55 26
Width: 1229
GlyphClass: 2
Flags: W
LayerCount: 2
Fore
SplineSet
1092 1126 m 1,0,1
 837 778 837 778 733 517 c 128,-1,2
 629 256 629 256 629 0 c 1,3,-1
 336 0 l 1,4,5
 336 260 336 260 455.5 533.5 c 128,-1,6
 575 807 575 807 831 1118 c 1,7,-1
 131 1118 l 1,8,-1
 131 1349 l 1,9,-1
 1092 1349 l 1,10,-1
 1092 1126 l 1,0,1
EndSplineSet
Validated: 1
Substitution2: "'subs' Subscript lookup 5 subtable" seven.subs
Substitution2: "'sups' Superscript lookup 4 subtable" seven.sups
EndChar

StartChar: eight
Encoding: 56 56 27
Width: 1229
GlyphClass: 2
Flags: W
LayerCount: 2
Fore
SplineSet
1120 382 m 0,0,1
 1120 194 1120 194 987 87 c 128,-1,2
 854 -20 854 -20 615 -20 c 0,3,4
 378 -20 378 -20 243.5 86 c 128,-1,5
 109 192 109 192 109 380 c 0,6,7
 109 508 109 508 188.5 597 c 128,-1,8
 268 686 268 686 396 707 c 1,9,-1
 396 711 l 1,10,11
 283 736 283 736 212.5 819 c 128,-1,12
 142 902 142 902 142 1012 c 0,13,14
 142 1176 142 1176 266.5 1273 c 128,-1,15
 391 1370 391 1370 611 1370 c 0,16,17
 838 1370 838 1370 961.5 1276 c 128,-1,18
 1085 1182 1085 1182 1085 1010 c 0,19,20
 1085 904 1085 904 1014 820 c 128,-1,21
 943 736 943 736 829 713 c 1,22,-1
 829 709 l 1,23,24
 964 687 964 687 1042 600 c 128,-1,25
 1120 513 1120 513 1120 382 c 0,0,1
796 995 m 0,26,27
 796 1173 796 1173 611 1173 c 0,28,29
 429 1173 429 1173 429 995 c 0,30,31
 429 904 429 904 476.5 856 c 128,-1,32
 524 808 524 808 613 808 c 0,33,34
 796 808 796 808 796 995 c 0,26,27
829 405 m 0,35,36
 829 506 829 506 773.5 558.5 c 128,-1,37
 718 611 718 611 609 611 c 0,38,39
 508 611 508 611 453 555.5 c 128,-1,40
 398 500 398 500 398 401 c 0,41,42
 398 178 398 178 617 178 c 0,43,44
 723 178 723 178 776 232 c 128,-1,45
 829 286 829 286 829 405 c 0,35,36
EndSplineSet
Validated: 1
Substitution2: "'subs' Subscript lookup 5 subtable" eight.subs
Substitution2: "'sups' Superscript lookup 4 subtable" eight.sups
EndChar

StartChar: nine
Encoding: 57 57 28
Width: 1229
GlyphClass: 2
Flags: W
LayerCount: 2
Fore
SplineSet
1106 697 m 0,0,1
 1106 350 1106 350 970.5 165 c 128,-1,2
 835 -20 835 -20 580 -20 c 0,3,4
 394 -20 394 -20 288.5 59.5 c 128,-1,5
 183 139 183 139 139 311 c 1,6,-1
 403 348 l 1,7,8
 442 201 442 201 583 201 c 0,9,10
 697 201 697 201 762.5 305.5 c 128,-1,11
 828 410 828 410 830 619 c 1,12,13
 792 544 792 544 705.5 501.5 c 128,-1,14
 619 459 619 459 519 459 c 0,15,16
 336 459 336 459 225 582 c 128,-1,17
 114 705 114 705 114 913 c 0,18,19
 114 1126 114 1126 244 1248 c 128,-1,20
 374 1370 374 1370 606 1370 c 0,21,22
 850 1370 850 1370 978 1204 c 128,-1,23
 1106 1038 1106 1038 1106 697 c 0,0,1
809 879 m 0,24,25
 809 1001 809 1001 750 1075.5 c 128,-1,26
 691 1150 691 1150 599 1150 c 0,27,28
 508 1150 508 1150 453.5 1085.5 c 128,-1,29
 399 1021 399 1021 399 911 c 0,30,31
 399 803 399 803 453.5 735.5 c 128,-1,32
 508 668 508 668 600 668 c 0,33,34
 691 668 691 668 750 726.5 c 128,-1,35
 809 785 809 785 809 879 c 0,24,25
EndSplineSet
Validated: 1
Substitution2: "'subs' Subscript lookup 5 subtable" nine.subs
Substitution2: "'sups' Superscript lookup 4 subtable" nine.sups
EndChar

StartChar: colon
Encoding: 58 58 29
Width: 1229
GlyphClass: 2
Flags: W
LayerCount: 2
Fore
SplineSet
470 0 m 1,0,-1
 470 305 l 1,1,-1
 759 305 l 1,2,-1
 759 0 l 1,3,-1
 470 0 l 1,0,-1
470 780 m 1,4,-1
 470 1085 l 1,5,-1
 759 1085 l 1,6,-1
 759 780 l 1,7,-1
 470 780 l 1,4,-1
EndSplineSet
Validated: 1
EndChar

StartChar: semicolon
Encoding: 59 59 30
Width: 1229
GlyphClass: 2
Flags: W
LayerCount: 2
Fore
SplineSet
479 780 m 1,0,-1
 479 1085 l 1,1,-1
 768 1085 l 1,2,-1
 768 780 l 1,3,-1
 479 780 l 1,0,-1
326 -363 m 1,4,-1
 495 299 l 1,5,-1
 810 299 l 1,6,-1
 499 -363 l 1,7,-1
 326 -363 l 1,4,-1
EndSplineSet
Validated: 1
EndChar

StartChar: less
Encoding: 60 60 31
Width: 1229
GlyphClass: 2
Flags: W
LayerCount: 2
Fore
SplineSet
101 516 m 1,0,-1
 101 838 l 1,1,-1
 1128 1229 l 1,2,-1
 1128 1001 l 1,3,-1
 295 676 l 1,4,-1
 1128 352 l 1,5,-1
 1128 125 l 1,6,-1
 101 516 l 1,0,-1
EndSplineSet
Validated: 1
EndChar

StartChar: equal
Encoding: 61 61 32
Width: 1229
GlyphClass: 2
Flags: W
LayerCount: 2
Fore
SplineSet
101 842 m 1,0,-1
 101 1065 l 1,1,-1
 1128 1065 l 1,2,-1
 1128 842 l 1,3,-1
 101 842 l 1,0,-1
101 291 m 1,4,-1
 101 512 l 1,5,-1
 1128 512 l 1,6,-1
 1128 291 l 1,7,-1
 101 291 l 1,4,-1
EndSplineSet
Validated: 1
EndChar

StartChar: greater
Encoding: 62 62 33
Width: 1229
GlyphClass: 2
Flags: W
LayerCount: 2
Fore
SplineSet
101 125 m 1,0,-1
 101 352 l 1,1,-1
 933 676 l 1,2,-1
 101 1001 l 1,3,-1
 101 1229 l 1,4,-1
 1128 838 l 1,5,-1
 1128 516 l 1,6,-1
 101 125 l 1,0,-1
EndSplineSet
Validated: 1
EndChar

StartChar: question
Encoding: 63 63 34
Width: 1229
GlyphClass: 2
Flags: W
LayerCount: 2
Fore
SplineSet
1113 986 m 0,0,1
 1113 921 1113 921 1090.5 867 c 128,-1,2
 1068 813 1068 813 1025.5 765.5 c 128,-1,3
 983 718 983 718 831 608 c 0,4,5
 698 512 698 512 693 406 c 1,6,-1
 426 406 l 1,7,8
 432 509 432 509 485 590.5 c 128,-1,9
 538 672 538 672 635 739 c 0,10,11
 748 816 748 816 789 865.5 c 128,-1,12
 830 915 830 915 830 974 c 0,13,14
 830 1051 830 1051 769 1097.5 c 128,-1,15
 708 1144 708 1144 609 1144 c 0,16,17
 508 1144 508 1144 439.5 1085 c 128,-1,18
 371 1026 371 1026 359 929 c 1,19,-1
 74 941 l 1,20,21
 101 1144 101 1144 241 1257 c 128,-1,22
 381 1370 381 1370 605 1370 c 0,23,24
 837 1370 837 1370 975 1266 c 128,-1,25
 1113 1162 1113 1162 1113 986 c 0,0,1
418 0 m 1,26,-1
 418 270 l 1,27,-1
 707 270 l 1,28,-1
 707 0 l 1,29,-1
 418 0 l 1,26,-1
EndSplineSet
Validated: 1
EndChar

StartChar: at
Encoding: 64 64 35
Width: 1229
GlyphClass: 2
Flags: W
LayerCount: 2
Fore
SplineSet
1189 755 m 0,0,1
 1189 457 1189 457 1106.5 280.5 c 128,-1,2
 1024 104 1024 104 884 104 c 0,3,4
 741 104 741 104 741 261 c 2,5,-1
 741 270 l 1,6,-1
 743 309 l 1,7,-1
 737 309 l 1,8,9
 701 215 701 215 638 159.5 c 128,-1,10
 575 104 575 104 502 104 c 0,11,12
 396 104 396 104 336.5 204 c 128,-1,13
 277 304 277 304 277 489 c 0,14,15
 277 650 277 650 325.5 793 c 128,-1,16
 374 936 374 936 457.5 1018.5 c 128,-1,17
 541 1101 541 1101 644 1101 c 0,18,19
 710 1101 710 1101 752 1057.5 c 128,-1,20
 794 1014 794 1014 808 928 c 1,21,-1
 813 928 l 1,22,-1
 846 1079 l 1,23,-1
 981 1079 l 1,24,-1
 882 572 l 2,25,26
 842 362 842 362 842 294 c 0,27,28
 842 260 842 260 852 243 c 128,-1,29
 862 226 862 226 891 226 c 0,30,31
 965 226 965 226 1011.5 369.5 c 128,-1,32
 1058 513 1058 513 1058 753 c 0,33,34
 1058 1024 1058 1024 952 1191 c 128,-1,35
 846 1358 846 1358 670 1358 c 0,36,37
 521 1358 521 1358 410 1249.5 c 128,-1,38
 299 1141 299 1141 239.5 947 c 128,-1,39
 180 753 180 753 180 514 c 0,40,41
 180 206 180 206 294.5 25.5 c 128,-1,42
 409 -155 409 -155 604 -155 c 0,43,44
 698 -155 698 -155 785 -120 c 128,-1,45
 872 -85 872 -85 973 3 c 1,46,-1
 1044 -94 l 1,47,48
 929 -193 929 -193 821 -238 c 128,-1,49
 713 -283 713 -283 594 -283 c 0,50,51
 429 -283 429 -283 303.5 -186 c 128,-1,52
 178 -89 178 -89 111 93.5 c 128,-1,53
 44 276 44 276 44 514 c 0,54,55
 44 800 44 800 121 1021.5 c 128,-1,56
 198 1243 198 1243 341 1363.5 c 128,-1,57
 484 1484 484 1484 672 1484 c 0,58,59
 830 1484 830 1484 946.5 1393.5 c 128,-1,60
 1063 1303 1063 1303 1126 1137.5 c 128,-1,61
 1189 972 1189 972 1189 755 c 0,0,1
755 784 m 0,62,63
 755 979 755 979 646 979 c 0,64,65
 586 979 586 979 537 910.5 c 128,-1,66
 488 842 488 842 460 727 c 128,-1,67
 432 612 432 612 432 491 c 0,68,69
 432 230 432 230 526 230 c 0,70,71
 596 230 596 230 647.5 316 c 128,-1,72
 699 402 699 402 727 559 c 128,-1,73
 755 716 755 716 755 784 c 0,62,63
EndSplineSet
Validated: 1
EndChar

StartChar: A
Encoding: 65 65 36
Width: 1229
GlyphClass: 2
Flags: W
AnchorPoint: "bottom-right" 1082 1 basechar 0
AnchorPoint: "bottom" 610 1 basechar 0
AnchorPoint: "top" 613 1348 basechar 0
LayerCount: 2
Fore
SplineSet
1229 0 m 1,0,-1
 935 0 l 1,1,-1
 843 330 l 1,2,-1
 387 330 l 1,3,-1
 295 0 l 1,4,-1
 0 0 l 1,5,-1
 443 1349 l 1,6,-1
 787 1349 l 1,7,-1
 1229 0 l 1,0,-1
615 1167 m 1,8,9
 607 1125 607 1125 585.5 1041.5 c 128,-1,10
 564 958 564 958 449 552 c 1,11,-1
 781 552 l 1,12,13
 664 964 664 964 643.5 1045 c 128,-1,14
 623 1126 623 1126 615 1167 c 1,8,9
EndSplineSet
EndChar

StartChar: B
Encoding: 66 66 37
Width: 1229
GlyphClass: 2
Flags: W
AnchorPoint: "bottom" 624 -1 basechar 0
AnchorPoint: "top" 604 1347 basechar 0
LayerCount: 2
Fore
SplineSet
1186 385 m 0,0,1
 1186 204 1186 204 1062 102 c 128,-1,2
 938 0 938 0 719 0 c 2,3,-1
 137 0 l 1,4,-1
 137 1349 l 1,5,-1
 662 1349 l 2,6,7
 880 1349 880 1349 992.5 1261.5 c 128,-1,8
 1105 1174 1105 1174 1105 1010 c 0,9,10
 1105 895 1105 895 1039 816.5 c 128,-1,11
 973 738 973 738 836 709 c 1,12,13
 1007 691 1007 691 1096.5 607 c 128,-1,14
 1186 523 1186 523 1186 385 c 0,0,1
808 970 m 0,15,16
 808 1130 808 1130 641 1130 c 2,17,-1
 432 1130 l 1,18,-1
 432 811 l 1,19,-1
 643 811 l 2,20,21
 808 811 808 811 808 970 c 0,15,16
889 410 m 0,22,23
 889 498 889 498 836 545.5 c 128,-1,24
 783 593 783 593 682 593 c 2,25,-1
 432 593 l 1,26,-1
 432 219 l 1,27,-1
 689 219 l 2,28,29
 889 219 889 219 889 410 c 0,22,23
EndSplineSet
EndChar

StartChar: C
Encoding: 67 67 38
Width: 1229
GlyphClass: 2
Flags: W
AnchorPoint: "bottom" 661 -20 basechar 0
AnchorPoint: "top" 636 1369 basechar 0
LayerCount: 2
Fore
SplineSet
380 681 m 0,0,1
 380 456 380 456 450 334 c 128,-1,2
 520 212 520 212 659 212 c 0,3,4
 821 212 821 212 899 456 c 1,5,-1
 1172 404 l 1,6,7
 1039 -20 1039 -20 656 -20 c 0,8,9
 375 -20 375 -20 227.5 158.5 c 128,-1,10
 80 337 80 337 80 681 c 0,11,12
 80 1370 80 1370 648 1370 c 0,13,14
 834 1370 834 1370 959.5 1272 c 128,-1,15
 1085 1174 1085 1174 1144 981 c 1,16,-1
 872 915 l 1,17,18
 843 1021 843 1021 785 1079.5 c 128,-1,19
 727 1138 727 1138 652 1138 c 0,20,21
 380 1138 380 1138 380 681 c 0,0,1
EndSplineSet
EndChar

StartChar: D
Encoding: 68 68 39
Width: 1229
GlyphClass: 2
Flags: W
AnchorPoint: "bottom" 510 2 basechar 0
AnchorPoint: "top" 524 1347 basechar 0
LayerCount: 2
Fore
SplineSet
1149 685 m 0,0,1
 1149 355 1149 355 995 177.5 c 128,-1,2
 841 0 841 0 556 0 c 2,3,-1
 135 0 l 1,4,-1
 135 1349 l 1,5,-1
 496 1349 l 2,6,7
 824 1349 824 1349 986.5 1184.5 c 128,-1,8
 1149 1020 1149 1020 1149 685 c 0,0,1
852 685 m 0,9,10
 852 912 852 912 766.5 1016.5 c 128,-1,11
 681 1121 681 1121 491 1121 c 2,12,-1
 430 1121 l 1,13,-1
 430 228 l 1,14,-1
 532 228 l 2,15,16
 852 228 852 228 852 685 c 0,9,10
EndSplineSet
EndChar

StartChar: E
Encoding: 69 69 40
Width: 1229
GlyphClass: 2
Flags: W
AnchorPoint: "bottom-right" 1043 1 basechar 0
AnchorPoint: "bottom" 658 -6 basechar 0
AnchorPoint: "top" 635 1350 basechar 0
LayerCount: 2
Fore
SplineSet
137 0 m 1,0,-1
 137 1349 l 1,1,-1
 1105 1349 l 1,2,-1
 1105 1121 l 1,3,-1
 432 1121 l 1,4,-1
 432 797 l 1,5,-1
 1044 797 l 1,6,-1
 1044 569 l 1,7,-1
 432 569 l 1,8,-1
 432 228 l 1,9,-1
 1146 228 l 1,10,-1
 1146 0 l 1,11,-1
 137 0 l 1,0,-1
EndSplineSet
EndChar

StartChar: F
Encoding: 70 70 41
Width: 1229
GlyphClass: 2
Flags: W
AnchorPoint: "bottom" 320 -3 basechar 0
AnchorPoint: "top" 645 1350 basechar 0
LayerCount: 2
Fore
SplineSet
462 1121 m 1,0,-1
 462 737 l 1,1,-1
 1083 737 l 1,2,-1
 1083 509 l 1,3,-1
 462 509 l 1,4,-1
 462 0 l 1,5,-1
 167 0 l 1,6,-1
 167 1349 l 1,7,-1
 1106 1349 l 1,8,-1
 1106 1121 l 1,9,-1
 462 1121 l 1,0,-1
EndSplineSet
EndChar

StartChar: G
Encoding: 71 71 42
Width: 1229
GlyphClass: 2
Flags: W
AnchorPoint: "bottom" 654 -27 basechar 0
AnchorPoint: "top" 628 1375 basechar 0
LayerCount: 2
Fore
SplineSet
1128 185 m 1,0,1
 885 -20 885 -20 635 -20 c 0,2,3
 374 -20 374 -20 227 163.5 c 128,-1,4
 80 347 80 347 80 681 c 0,5,6
 80 1370 80 1370 638 1370 c 0,7,8
 818 1370 818 1370 932 1277 c 128,-1,9
 1046 1184 1046 1184 1100 995 c 1,10,-1
 826 941 l 1,11,12
 773 1138 773 1138 641 1138 c 0,13,14
 506 1138 506 1138 442.5 1030 c 128,-1,15
 379 922 379 922 379 681 c 0,16,17
 379 458 379 458 446 337 c 128,-1,18
 513 216 513 216 650 216 c 0,19,20
 703 216 703 216 759.5 236 c 128,-1,21
 816 256 816 256 858 290 c 1,22,-1
 858 525 l 1,23,-1
 584 525 l 1,24,-1
 584 743 l 1,25,-1
 1128 743 l 1,26,-1
 1128 185 l 1,0,1
EndSplineSet
EndChar

StartChar: H
Encoding: 72 72 43
Width: 1229
GlyphClass: 2
Flags: W
AnchorPoint: "bottom" 609 -4 basechar 0
AnchorPoint: "top" 606 1343 basechar 0
LayerCount: 2
Fore
SplineSet
796 0 m 1,0,-1
 796 574 l 1,1,-1
 433 574 l 1,2,-1
 433 0 l 1,3,-1
 138 0 l 1,4,-1
 138 1349 l 1,5,-1
 433 1349 l 1,6,-1
 433 818 l 1,7,-1
 796 818 l 1,8,-1
 796 1349 l 1,9,-1
 1091 1349 l 1,10,-1
 1091 0 l 1,11,-1
 796 0 l 1,0,-1
EndSplineSet
EndChar

StartChar: I
Encoding: 73 73 44
Width: 1229
GlyphClass: 2
Flags: W
AnchorPoint: "bottom-right" 660 3 basechar 0
AnchorPoint: "bottom" 626 -6 basechar 0
AnchorPoint: "top" 618 1353 basechar 0
LayerCount: 2
Fore
SplineSet
157 1349 m 1,0,-1
 1073 1349 l 1,1,-1
 1073 1121 l 1,2,-1
 762 1121 l 1,3,-1
 762 228 l 1,4,-1
 1073 228 l 1,5,-1
 1073 0 l 1,6,-1
 157 0 l 1,7,-1
 157 228 l 1,8,-1
 468 228 l 1,9,-1
 468 1121 l 1,10,-1
 157 1121 l 1,11,-1
 157 1349 l 1,0,-1
EndSplineSet
EndChar

StartChar: J
Encoding: 74 74 45
Width: 1229
GlyphClass: 2
Flags: W
AnchorPoint: "bottom" 577 -26 basechar 0
AnchorPoint: "top" 726 1352 basechar 0
LayerCount: 2
Fore
SplineSet
564 -20 m 0,0,1
 368 -20 368 -20 250 89 c 128,-1,2
 132 198 132 198 102 402 c 1,3,-1
 393 445 l 1,4,5
 413 327 413 327 458 269 c 128,-1,6
 503 211 503 211 566 211 c 0,7,8
 639 211 639 211 682 270 c 128,-1,9
 725 329 725 329 725 439 c 2,10,-1
 725 1118 l 1,11,-1
 424 1118 l 1,12,-1
 424 1349 l 1,13,-1
 1019 1349 l 1,14,-1
 1019 446 l 2,15,16
 1019 228 1019 228 898 104 c 128,-1,17
 777 -20 777 -20 564 -20 c 0,0,1
EndSplineSet
EndChar

StartChar: K
Encoding: 75 75 46
Width: 1229
GlyphClass: 2
Flags: W
AnchorPoint: "bottom" 645 -5 basechar 0
AnchorPoint: "top" 628 1341 basechar 0
LayerCount: 2
Fore
SplineSet
881 0 m 1,0,-1
 558 557 l 1,1,-1
 431 415 l 1,2,-1
 431 0 l 1,3,-1
 136 0 l 1,4,-1
 136 1349 l 1,5,-1
 431 1349 l 1,6,-1
 431 750 l 1,7,-1
 867 1349 l 1,8,-1
 1210 1349 l 1,9,-1
 750 770 l 1,10,-1
 1229 0 l 1,11,-1
 881 0 l 1,0,-1
EndSplineSet
EndChar

StartChar: L
Encoding: 76 76 47
Width: 1229
GlyphClass: 2
Flags: W
AnchorPoint: "bottom" 665 -6 basechar 0
AnchorPoint: "top" 664 1351 basechar 0
LayerCount: 2
Fore
SplineSet
211 0 m 1,0,-1
 211 1349 l 1,1,-1
 506 1349 l 1,2,-1
 506 228 l 1,3,-1
 1122 228 l 1,4,-1
 1122 0 l 1,5,-1
 211 0 l 1,0,-1
EndSplineSet
EndChar

StartChar: M
Encoding: 77 77 48
Width: 1229
GlyphClass: 2
Flags: W
AnchorPoint: "bottom" 615 -4 basechar 0
AnchorPoint: "top" 626 1348 basechar 0
LayerCount: 2
Fore
SplineSet
908 0 m 1,0,-1
 908 868 l 2,1,2
 908 973 908 973 924 1169 c 1,3,4
 865 879 865 879 849 828 c 1,5,-1
 725 360 l 1,6,-1
 507 360 l 1,7,-1
 381 828 l 2,8,9
 352 936 352 936 305 1169 c 1,10,-1
 312 1069 l 2,11,12
 319 964 319 964 319 868 c 2,13,-1
 319 0 l 1,14,-1
 99 0 l 1,15,-1
 99 1349 l 1,16,-1
 446 1349 l 1,17,-1
 581 850 l 1,18,19
 596 803 596 803 619 619 c 1,20,21
 639 774 639 774 659 849 c 2,22,-1
 795 1349 l 1,23,-1
 1130 1349 l 1,24,-1
 1130 0 l 1,25,-1
 908 0 l 1,0,-1
EndSplineSet
EndChar

StartChar: N
Encoding: 78 78 49
Width: 1229
GlyphClass: 2
Flags: W
AnchorPoint: "bottom" 634 -3 basechar 0
AnchorPoint: "top" 626 1350 basechar 0
LayerCount: 2
Fore
SplineSet
748 0 m 1,0,-1
 364 1010 l 1,1,2
 392 758 392 758 392 656 c 2,3,-1
 392 0 l 1,4,-1
 135 0 l 1,5,-1
 135 1349 l 1,6,-1
 472 1349 l 1,7,-1
 865 312 l 1,8,9
 837 547 837 547 837 677 c 2,10,-1
 837 1349 l 1,11,-1
 1094 1349 l 1,12,-1
 1094 0 l 1,13,-1
 748 0 l 1,0,-1
EndSplineSet
EndChar

StartChar: O
Encoding: 79 79 50
Width: 1229
GlyphClass: 2
Flags: W
AnchorPoint: "bottom-right" 624 -9 basechar 0
AnchorPoint: "bottom" 610 -29 basechar 0
AnchorPoint: "top" 630 1376 basechar 0
LayerCount: 2
Fore
SplineSet
1157 679 m 256,0,1
 1157 334 1157 334 1017 157 c 128,-1,2
 877 -20 877 -20 615 -20 c 256,3,4
 353 -20 353 -20 212.5 157 c 128,-1,5
 72 334 72 334 72 679 c 256,6,7
 72 1024 72 1024 212.5 1197 c 128,-1,8
 353 1370 353 1370 615 1370 c 256,9,10
 877 1370 877 1370 1017 1197 c 128,-1,11
 1157 1024 1157 1024 1157 679 c 256,0,1
858 679 m 0,12,13
 858 1138 858 1138 615 1138 c 0,14,15
 371 1138 371 1138 371 679 c 0,16,17
 371 449 371 449 432.5 330.5 c 128,-1,18
 494 212 494 212 615 212 c 256,19,20
 736 212 736 212 797 330.5 c 128,-1,21
 858 449 858 449 858 679 c 0,12,13
EndSplineSet
EndChar

StartChar: P
Encoding: 80 80 51
Width: 1229
GlyphClass: 2
Flags: W
AnchorPoint: "bottom" 588 -10 basechar 0
AnchorPoint: "top" 580 1354 basechar 0
LayerCount: 2
Fore
SplineSet
1142 923 m 0,0,1
 1142 789 1142 789 1081 687.5 c 128,-1,2
 1020 586 1020 586 904.5 531 c 128,-1,3
 789 476 789 476 628 476 c 2,4,-1
 431 476 l 1,5,-1
 431 0 l 1,6,-1
 136 0 l 1,7,-1
 136 1349 l 1,8,-1
 616 1349 l 2,9,10
 873 1349 873 1349 1007.5 1240.5 c 128,-1,11
 1142 1132 1142 1132 1142 923 c 0,0,1
845 918 m 0,12,13
 845 1027 845 1027 779.5 1073.5 c 128,-1,14
 714 1120 714 1120 583 1120 c 2,15,-1
 431 1120 l 1,16,-1
 431 703 l 1,17,-1
 591 703 l 2,18,19
 723 703 723 703 784 757.5 c 128,-1,20
 845 812 845 812 845 918 c 0,12,13
EndSplineSet
EndChar

StartChar: Q
Encoding: 81 81 52
Width: 1229
GlyphClass: 2
Flags: W
AnchorPoint: "bottom" 892 -419 basechar 0
AnchorPoint: "top" 628 1375 basechar 0
LayerCount: 2
Fore
SplineSet
1157 679 m 0,0,1
 1157 391 1157 391 1060.5 221 c 128,-1,2
 964 51 964 51 779 0 c 1,3,4
 814 -97 814 -97 877 -141.5 c 128,-1,5
 940 -186 940 -186 1045 -186 c 0,6,7
 1090 -186 1090 -186 1168 -173 c 1,8,-1
 1168 -375 l 1,9,10
 1042 -403 1042 -403 926 -403 c 0,11,12
 762 -403 762 -403 655 -310.5 c 128,-1,13
 548 -218 548 -218 482 -7 c 1,14,15
 282 35 282 35 177 207 c 128,-1,16
 72 379 72 379 72 679 c 0,17,18
 72 1024 72 1024 212.5 1197 c 128,-1,19
 353 1370 353 1370 615 1370 c 256,20,21
 877 1370 877 1370 1017 1197 c 128,-1,22
 1157 1024 1157 1024 1157 679 c 0,0,1
858 679 m 0,23,24
 858 1138 858 1138 615 1138 c 0,25,26
 371 1138 371 1138 371 679 c 0,27,28
 371 449 371 449 432.5 330.5 c 128,-1,29
 494 212 494 212 615 212 c 256,30,31
 736 212 736 212 797 330.5 c 128,-1,32
 858 449 858 449 858 679 c 0,23,24
EndSplineSet
EndChar

StartChar: R
Encoding: 82 82 53
Width: 1229
GlyphClass: 2
Flags: W
AnchorPoint: "bottom" 659 -5 basechar 0
AnchorPoint: "top" 622 1354 basechar 0
LayerCount: 2
Fore
SplineSet
895 0 m 1,0,-1
 605 515 l 1,1,-1
 432 515 l 1,2,-1
 432 0 l 1,3,-1
 137 0 l 1,4,-1
 137 1349 l 1,5,-1
 631 1349 l 2,6,7
 895 1349 895 1349 1026 1246 c 128,-1,8
 1157 1143 1157 1143 1157 949 c 0,9,10
 1157 812 1157 812 1083 716 c 128,-1,11
 1009 620 1009 620 878 581 c 1,12,-1
 1227 0 l 1,13,-1
 895 0 l 1,0,-1
860 937 m 0,14,15
 860 1031 860 1031 798 1075.5 c 128,-1,16
 736 1120 736 1120 600 1120 c 2,17,-1
 432 1120 l 1,18,-1
 432 744 l 1,19,-1
 608 744 l 2,20,21
 860 744 860 744 860 937 c 0,14,15
EndSplineSet
EndChar

StartChar: S
Encoding: 83 83 54
Width: 1229
GlyphClass: 2
Flags: W
AnchorPoint: "bottom" 625 -31 basechar 0
AnchorPoint: "top" 626 1376 basechar 0
LayerCount: 2
Fore
SplineSet
1165 391 m 0,0,1
 1165 199 1165 199 1018.5 89.5 c 128,-1,2
 872 -20 872 -20 611 -20 c 0,3,4
 376 -20 376 -20 228 79 c 128,-1,5
 80 178 80 178 38 367 c 1,6,-1
 323 404 l 1,7,8
 346 310 346 310 419 255.5 c 128,-1,9
 492 201 492 201 619 201 c 0,10,11
 751 201 751 201 814.5 243 c 128,-1,12
 878 285 878 285 878 374 c 0,13,14
 878 440 878 440 822 485.5 c 128,-1,15
 766 531 766 531 659 557 c 0,16,17
 444 609 444 609 355.5 647.5 c 128,-1,18
 267 686 267 686 214 734 c 128,-1,19
 161 782 161 782 132.5 846.5 c 128,-1,20
 104 911 104 911 104 991 c 0,21,22
 104 1166 104 1166 244.5 1268 c 128,-1,23
 385 1370 385 1370 615 1370 c 0,24,25
 839 1370 839 1370 965 1281.5 c 128,-1,26
 1091 1193 1091 1193 1128 1007 c 1,27,-1
 842 978 l 1,28,29
 798 1161 798 1161 609 1161 c 0,30,31
 503 1161 503 1161 447 1121.5 c 128,-1,32
 391 1082 391 1082 391 1008 c 0,33,34
 391 959 391 959 418 926.5 c 128,-1,35
 445 894 445 894 491.5 871.5 c 128,-1,36
 538 849 538 849 681 812 c 1,37,38
 869 766 869 766 970 709.5 c 128,-1,39
 1071 653 1071 653 1118 573 c 128,-1,40
 1165 493 1165 493 1165 391 c 0,0,1
EndSplineSet
EndChar

StartChar: T
Encoding: 84 84 55
Width: 1229
GlyphClass: 2
Flags: W
AnchorPoint: "bottom" 621 -10 basechar 0
AnchorPoint: "top" 615 1357 basechar 0
LayerCount: 2
Fore
SplineSet
762 1121 m 1,0,-1
 762 0 l 1,1,-1
 467 0 l 1,2,-1
 467 1121 l 1,3,-1
 61 1121 l 1,4,-1
 61 1349 l 1,5,-1
 1168 1349 l 1,6,-1
 1168 1121 l 1,7,-1
 762 1121 l 1,0,-1
EndSplineSet
EndChar

StartChar: U
Encoding: 85 85 56
Width: 1229
GlyphClass: 2
Flags: W
AnchorPoint: "bottom-right" 637 -17 basechar 0
AnchorPoint: "bottom" 613 -26 basechar 0
AnchorPoint: "top" 616 1348 basechar 0
LayerCount: 2
Fore
SplineSet
599 -20 m 0,0,1
 353 -20 353 -20 241 114 c 128,-1,2
 129 248 129 248 129 528 c 2,3,-1
 129 1349 l 1,4,-1
 424 1349 l 1,5,-1
 424 531 l 2,6,7
 424 356 424 356 464.5 283.5 c 128,-1,8
 505 211 505 211 607 211 c 0,9,10
 711 211 711 211 758 288 c 128,-1,11
 805 365 805 365 805 541 c 2,12,-1
 805 1349 l 1,13,-1
 1100 1349 l 1,14,-1
 1100 543 l 2,15,16
 1100 257 1100 257 976.5 118.5 c 128,-1,17
 853 -20 853 -20 599 -20 c 0,0,1
EndSplineSet
EndChar

StartChar: V
Encoding: 86 86 57
Width: 1229
GlyphClass: 2
Flags: W
AnchorPoint: "bottom" 613 -10 basechar 0
AnchorPoint: "top" 625 1338 basechar 0
LayerCount: 2
Fore
SplineSet
766 0 m 1,0,-1
 467 0 l 1,1,-1
 3 1349 l 1,2,-1
 311 1349 l 1,3,-1
 544 574 l 2,4,5
 571 486 571 486 618 308 c 1,6,-1
 639 394 l 1,7,-1
 690 574 l 1,8,-1
 922 1349 l 1,9,-1
 1227 1349 l 1,10,-1
 766 0 l 1,0,-1
EndSplineSet
EndChar

StartChar: W
Encoding: 87 87 58
Width: 1229
GlyphClass: 2
Flags: W
AnchorPoint: "bottom" 604 -7 basechar 0
AnchorPoint: "top" 627 1344 basechar 0
LayerCount: 2
Fore
SplineSet
1018 0 m 1,0,-1
 770 0 l 1,1,-1
 706 267 l 1,2,3
 656 456 656 456 616 636 c 1,4,-1
 581 489 l 1,5,-1
 537 312 l 1,6,-1
 459 0 l 1,7,-1
 211 0 l 1,8,-1
 0 1349 l 1,9,-1
 259 1349 l 1,10,-1
 348 654 l 2,11,12
 360 558 360 558 364 388 c 1,13,-1
 379 464 l 1,14,-1
 419 632 l 1,15,-1
 518 971 l 1,16,-1
 713 971 l 1,17,-1
 812 632 l 2,18,19
 825 587 825 587 834.5 543.5 c 128,-1,20
 844 500 844 500 867 388 c 1,21,-1
 869 415 l 1,22,23
 875 576 875 576 885 654 c 2,24,-1
 969 1349 l 1,25,-1
 1228 1349 l 1,26,-1
 1018 0 l 1,0,-1
EndSplineSet
EndChar

StartChar: X
Encoding: 88 88 59
Width: 1229
GlyphClass: 2
Flags: W
AnchorPoint: "bottom" 612 -6 basechar 0
AnchorPoint: "top" 626 1348 basechar 0
LayerCount: 2
Fore
SplineSet
919 0 m 1,0,-1
 616 493 l 1,1,-1
 312 0 l 1,2,-1
 0 0 l 1,3,-1
 459 711 l 1,4,-1
 41 1349 l 1,5,-1
 353 1349 l 1,6,-1
 616 919 l 1,7,-1
 878 1349 l 1,8,-1
 1188 1349 l 1,9,-1
 760 711 l 1,10,-1
 1229 0 l 1,11,-1
 919 0 l 1,0,-1
EndSplineSet
EndChar

StartChar: Y
Encoding: 89 89 60
Width: 1229
GlyphClass: 2
Flags: W
AnchorPoint: "bottom" 613 -10 basechar 0
AnchorPoint: "top" 618 1349 basechar 0
LayerCount: 2
Fore
SplineSet
761 556 m 1,0,-1
 761 0 l 1,1,-1
 467 0 l 1,2,-1
 467 556 l 1,3,-1
 3 1349 l 1,4,-1
 312 1349 l 1,5,-1
 612 783 l 1,6,-1
 916 1349 l 1,7,-1
 1225 1349 l 1,8,-1
 761 556 l 1,0,-1
EndSplineSet
EndChar

StartChar: Z
Encoding: 90 90 61
Width: 1229
GlyphClass: 2
Flags: W
AnchorPoint: "bottom" 610 -7 basechar 0
AnchorPoint: "top" 642 1353 basechar 0
LayerCount: 2
Fore
SplineSet
1138 0 m 1,0,-1
 87 0 l 1,1,-1
 87 209 l 1,2,-1
 758 1118 l 1,3,-1
 163 1118 l 1,4,-1
 163 1349 l 1,5,-1
 1097 1349 l 1,6,-1
 1097 1144 l 1,7,-1
 426 231 l 1,8,-1
 1138 231 l 1,9,-1
 1138 0 l 1,0,-1
EndSplineSet
EndChar

StartChar: bracketleft
Encoding: 91 91 62
Width: 1229
GlyphClass: 2
Flags: W
LayerCount: 2
Fore
SplineSet
373 -425 m 1,0,-1
 373 1484 l 1,1,-1
 975 1484 l 1,2,-1
 975 1294 l 1,3,-1
 639 1294 l 1,4,-1
 639 -234 l 1,5,-1
 975 -234 l 1,6,-1
 975 -425 l 1,7,-1
 373 -425 l 1,0,-1
EndSplineSet
Validated: 1
EndChar

StartChar: backslash
Encoding: 92 92 63
Width: 1229
GlyphClass: 2
Flags: W
LayerCount: 2
Fore
SplineSet
908 -20 m 1,0,-1
 91 1484 l 1,1,-1
 319 1484 l 1,2,-1
 1140 -20 l 1,3,-1
 908 -20 l 1,0,-1
EndSplineSet
Validated: 1
EndChar

StartChar: bracketright
Encoding: 93 93 64
Width: 1229
GlyphClass: 2
Flags: W
LayerCount: 2
Fore
SplineSet
254 -425 m 1,0,-1
 254 -234 l 1,1,-1
 590 -234 l 1,2,-1
 590 1294 l 1,3,-1
 254 1294 l 1,4,-1
 254 1484 l 1,5,-1
 856 1484 l 1,6,-1
 856 -425 l 1,7,-1
 254 -425 l 1,0,-1
EndSplineSet
Validated: 1
EndChar

StartChar: asciicircum
Encoding: 94 94 65
Width: 1229
GlyphClass: 2
Flags: W
LayerCount: 2
Fore
SplineSet
922 514 m 1,0,-1
 596 1266 l 1,1,-1
 272 514 l 1,2,-1
 45 514 l 1,3,-1
 436 1409 l 1,4,-1
 758 1409 l 1,5,-1
 1151 514 l 1,6,-1
 922 514 l 1,0,-1
EndSplineSet
Validated: 1
EndChar

StartChar: underscore
Encoding: 95 95 66
Width: 1229
GlyphClass: 2
Flags: W
LayerCount: 2
Fore
SplineSet
-5 -220 m 1,0,-1
 -5 -124 l 1,1,-1
 1233 -124 l 1,2,-1
 1233 -220 l 1,3,-1
 -5 -220 l 1,0,-1
EndSplineSet
Validated: 1
EndChar

StartChar: grave
Encoding: 96 96 67
Width: 1229
GlyphClass: 2
Flags: W
LayerCount: 2
Fore
SplineSet
687 1184 m 1,0,-1
 347 1415 l 1,1,-1
 347 1458 l 1,2,-1
 605 1458 l 1,3,-1
 857 1215 l 1,4,-1
 857 1184 l 1,5,-1
 687 1184 l 1,0,-1
EndSplineSet
Validated: 1
EndChar

StartChar: a
Encoding: 97 97 68
Width: 1229
GlyphClass: 2
Flags: W
AnchorPoint: "bottom-right" 1020 -4 basechar 0
AnchorPoint: "bottom" 613 -28 basechar 0
AnchorPoint: "top" 616 1107 basechar 0
LayerCount: 2
Fore
SplineSet
439 -20 m 0,0,1
 282 -20 282 -20 194 65.5 c 128,-1,2
 106 151 106 151 106 306 c 0,3,4
 106 474 106 474 210.5 561.5 c 128,-1,5
 315 649 315 649 523 652 c 2,6,-1
 746 656 l 1,7,-1
 746 711 l 2,8,9
 746 814 746 814 711 867 c 128,-1,10
 676 920 676 920 598 920 c 0,11,12
 525 920 525 920 490.5 883.5 c 128,-1,13
 456 847 456 847 448 767 c 1,14,-1
 155 781 l 1,15,16
 209 1102 209 1102 610 1102 c 0,17,18
 812 1102 812 1102 919.5 1003 c 128,-1,19
 1027 904 1027 904 1027 712 c 2,20,-1
 1027 320 l 2,21,22
 1027 229 1027 229 1047.5 194.5 c 128,-1,23
 1068 160 1068 160 1116 160 c 0,24,25
 1148 160 1148 160 1178 166 c 1,26,-1
 1178 14 l 1,27,28
 1153 8 1153 8 1133 3 c 128,-1,29
 1113 -2 1113 -2 1093 -5 c 128,-1,30
 1073 -8 1073 -8 1050.5 -10 c 128,-1,31
 1028 -12 1028 -12 998 -12 c 0,32,33
 892 -12 892 -12 841.5 40 c 128,-1,34
 791 92 791 92 781 193 c 1,35,-1
 775 193 l 1,36,37
 712 80 712 80 631.5 30 c 128,-1,38
 551 -20 551 -20 439 -20 c 0,0,1
746 501 m 1,39,-1
 612 499 l 2,40,41
 522 497 522 497 481.5 480.5 c 128,-1,42
 441 464 441 464 420 427.5 c 128,-1,43
 399 391 399 391 399 328 c 0,44,45
 399 176 399 176 519 176 c 0,46,47
 616 176 616 176 681 252.5 c 128,-1,48
 746 329 746 329 746 446 c 2,49,-1
 746 501 l 1,39,-1
EndSplineSet
EndChar

StartChar: b
Encoding: 98 98 69
Width: 1229
GlyphClass: 2
Flags: W
AnchorPoint: "bottom" 559 -33 basechar 0
AnchorPoint: "top" 572 1482 basechar 0
LayerCount: 2
Fore
SplineSet
140 0 m 1,0,1
 148 136 148 136 148 236 c 2,2,-1
 148 1484 l 1,3,-1
 429 1484 l 1,4,-1
 429 1090 l 1,5,-1
 427 912 l 1,6,-1
 429 912 l 1,7,8
 470 1003 470 1003 552.5 1053 c 128,-1,9
 635 1103 635 1103 746 1103 c 0,10,11
 932 1103 932 1103 1032 956 c 128,-1,12
 1132 809 1132 809 1132 540 c 0,13,14
 1132 286 1132 286 1026 133 c 128,-1,15
 920 -20 920 -20 737 -20 c 0,16,17
 633 -20 633 -20 554.5 29.5 c 128,-1,18
 476 79 476 79 431 176 c 1,19,-1
 427 176 l 1,20,21
 427 143 427 143 422.5 84.5 c 128,-1,22
 418 26 418 26 412 0 c 1,23,-1
 140 0 l 1,0,1
425 547 m 0,24,25
 425 427 425 427 451.5 344 c 128,-1,26
 478 261 478 261 526.5 216.5 c 128,-1,27
 575 172 575 172 638 172 c 0,28,29
 734 172 734 172 786.5 264 c 128,-1,30
 839 356 839 356 839 540 c 0,31,32
 839 723 839 723 787.5 817.5 c 128,-1,33
 736 912 736 912 636 912 c 0,34,35
 538 912 538 912 481.5 816 c 128,-1,36
 425 720 425 720 425 547 c 0,24,25
EndSplineSet
EndChar

StartChar: c
Encoding: 99 99 70
Width: 1229
GlyphClass: 2
Flags: W
AnchorPoint: "bottom" 637 -29 basechar 0
AnchorPoint: "top" 638 1111 basechar 0
LayerCount: 2
Fore
SplineSet
624 -20 m 0,0,1
 378 -20 378 -20 244 126.5 c 128,-1,2
 110 273 110 273 110 535 c 0,3,4
 110 803 110 803 245 952.5 c 128,-1,5
 380 1102 380 1102 628 1102 c 0,6,7
 819 1102 819 1102 944 1006 c 128,-1,8
 1069 910 1069 910 1101 741 c 1,9,-1
 818 727 l 1,10,11
 806 810 806 810 758 859.5 c 128,-1,12
 710 909 710 909 622 909 c 0,13,14
 405 909 405 909 405 546 c 0,15,16
 405 172 405 172 626 172 c 0,17,18
 706 172 706 172 760 222.5 c 128,-1,19
 814 273 814 273 827 373 c 1,20,-1
 1109 360 l 1,21,22
 1094 249 1094 249 1029.5 162 c 128,-1,23
 965 75 965 75 860 27.5 c 128,-1,24
 755 -20 755 -20 624 -20 c 0,0,1
EndSplineSet
EndChar

StartChar: d
Encoding: 100 100 71
Width: 1229
GlyphClass: 2
Flags: W
AnchorPoint: "bottom" 646 -34 basechar 0
AnchorPoint: "top" 628 1485 basechar 0
LayerCount: 2
Fore
SplineSet
817 0 m 1,0,1
 813 15 813 15 807.5 75.5 c 128,-1,2
 802 136 802 136 802 176 c 1,3,-1
 798 176 l 1,4,5
 745 69 745 69 667 24.5 c 128,-1,6
 589 -20 589 -20 482 -20 c 0,7,8
 303 -20 303 -20 200 130 c 128,-1,9
 97 280 97 280 97 539 c 0,10,11
 97 804 97 804 200.5 952 c 128,-1,12
 304 1100 304 1100 493 1100 c 0,13,14
 600 1100 600 1100 679 1051.5 c 128,-1,15
 758 1003 758 1003 800 909 c 1,16,-1
 802 909 l 1,17,-1
 800 1087 l 1,18,-1
 800 1484 l 1,19,-1
 1081 1484 l 1,20,-1
 1081 236 l 2,21,22
 1081 136 1081 136 1089 0 c 1,23,-1
 817 0 l 1,0,1
804 546 m 0,24,25
 804 719 804 719 748 814 c 128,-1,26
 692 909 692 909 593 909 c 0,27,28
 493 909 493 909 441.5 815.5 c 128,-1,29
 390 722 390 722 390 539 c 0,30,31
 390 355 390 355 442.5 263.5 c 128,-1,32
 495 172 495 172 591 172 c 0,33,34
 653 172 653 172 702 216.5 c 128,-1,35
 751 261 751 261 777.5 344 c 128,-1,36
 804 427 804 427 804 546 c 0,24,25
EndSplineSet
EndChar

StartChar: e
Encoding: 101 101 72
Width: 1229
GlyphClass: 2
Flags: W
AnchorPoint: "bottom-right" 817 28 basechar 0
AnchorPoint: "bottom" 639 -26 basechar 0
AnchorPoint: "top" 642 1107 basechar 0
LayerCount: 2
Fore
SplineSet
626 -20 m 0,0,1
 374 -20 374 -20 237 128.5 c 128,-1,2
 100 277 100 277 100 546 c 0,3,4
 100 726 100 726 164.5 850 c 128,-1,5
 229 974 229 974 348 1038 c 128,-1,6
 467 1102 467 1102 630 1102 c 0,7,8
 867 1102 867 1102 998 944 c 128,-1,9
 1129 786 1129 786 1129 495 c 2,10,-1
 1129 487 l 1,11,-1
 395 487 l 1,12,13
 395 340 395 340 460.5 254 c 128,-1,14
 526 168 526 168 640 168 c 0,15,16
 714 168 714 168 771 199.5 c 128,-1,17
 828 231 828 231 848 297 c 1,18,-1
 1113 274 l 1,19,20
 1058 133 1058 133 930 56.5 c 128,-1,21
 802 -20 802 -20 626 -20 c 0,0,1
626 925 m 0,22,23
 523 925 523 925 462 855.5 c 128,-1,24
 401 786 401 786 397 663 c 1,25,-1
 857 663 l 1,26,27
 850 783 850 783 788.5 854 c 128,-1,28
 727 925 727 925 626 925 c 0,22,23
EndSplineSet
EndChar

StartChar: f
Encoding: 102 102 73
Width: 1229
GlyphClass: 2
Flags: W
AnchorPoint: "bottom" 517 -10 basechar 0
AnchorPoint: "top" 728 1519 basechar 0
LayerCount: 2
Fore
SplineSet
653 892 m 1,0,-1
 653 0 l 1,1,-1
 373 0 l 1,2,-1
 373 892 l 1,3,-1
 117 892 l 1,4,-1
 117 1082 l 1,5,-1
 373 1082 l 1,6,-1
 373 1165 l 2,7,8
 373 1339 373 1339 482.5 1426.5 c 128,-1,9
 592 1514 592 1514 795 1514 c 0,10,11
 954 1514 954 1514 1122 1486 c 1,12,-1
 1122 1302 l 1,13,14
 972 1321 972 1321 844 1321 c 0,15,16
 746 1321 746 1321 699.5 1280.5 c 128,-1,17
 653 1240 653 1240 653 1139 c 2,18,-1
 653 1082 l 1,19,-1
 1096 1082 l 1,20,-1
 1096 892 l 1,21,-1
 653 892 l 1,0,-1
EndSplineSet
EndChar

StartChar: g
Encoding: 103 103 74
Width: 1229
GlyphClass: 2
Flags: W
AnchorPoint: "bottom" 644 -441 basechar 0
AnchorPoint: "top" 695 1093 basechar 0
LayerCount: 2
Fore
SplineSet
616 -434 m 0,0,1
 430 -434 430 -434 313 -357 c 128,-1,2
 196 -280 196 -280 169 -143 c 1,3,-1
 450 -110 l 1,4,5
 465 -175 465 -175 512 -213 c 128,-1,6
 559 -251 559 -251 624 -251 c 0,7,8
 725 -251 725 -251 777 -178.5 c 128,-1,9
 829 -106 829 -106 829 37 c 2,10,-1
 829 96 l 1,11,-1
 831 211 l 1,12,-1
 829 211 l 1,13,14
 736 12 736 12 501 12 c 0,15,16
 322 12 322 12 223 151.5 c 128,-1,17
 124 291 124 291 124 550 c 0,18,19
 124 812 124 812 227 955.5 c 128,-1,20
 330 1099 330 1099 522 1099 c 0,21,22
 627 1099 627 1099 706 1050.5 c 128,-1,23
 785 1002 785 1002 829 908 c 1,24,-1
 834 908 l 1,25,26
 834 943 834 943 838.5 1003 c 128,-1,27
 843 1063 843 1063 848 1082 c 1,28,-1
 1114 1082 l 1,29,30
 1108 974 1108 974 1108 832 c 2,31,-1
 1108 33 l 2,32,33
 1108 -194 1108 -194 980.5 -314 c 128,-1,34
 853 -434 853 -434 616 -434 c 0,0,1
831 556 m 0,35,36
 831 720 831 720 775 813 c 128,-1,37
 719 906 719 906 622 906 c 0,38,39
 522 906 522 906 469.5 815.5 c 128,-1,40
 417 725 417 725 417 550 c 0,41,42
 417 376 417 376 471 291.5 c 128,-1,43
 525 207 525 207 620 207 c 0,44,45
 722 207 722 207 776.5 301 c 128,-1,46
 831 395 831 395 831 556 c 0,35,36
EndSplineSet
EndChar

StartChar: h
Encoding: 104 104 75
Width: 1229
GlyphClass: 2
Flags: W
AnchorPoint: "bottom" 623 -5 basechar 0
AnchorPoint: "top" 625 1484 basechar 0
LayerCount: 2
Fore
SplineSet
420 866 m 1,0,1
 477 990 477 990 563 1046 c 128,-1,2
 649 1102 649 1102 768 1102 c 0,3,4
 936 1102 936 1102 1020 1000 c 128,-1,5
 1104 898 1104 898 1104 686 c 2,6,-1
 1104 0 l 1,7,-1
 824 0 l 1,8,-1
 824 621 l 2,9,10
 824 772 824 772 783.5 831.5 c 128,-1,11
 743 891 743 891 651 891 c 0,12,13
 549 891 549 891 486.5 803.5 c 128,-1,14
 424 716 424 716 424 579 c 2,15,-1
 424 0 l 1,16,-1
 143 0 l 1,17,-1
 143 1484 l 1,18,-1
 424 1484 l 1,19,-1
 424 1079 l 2,20,21
 424 970 424 970 416 866 c 1,22,-1
 420 866 l 1,0,1
EndSplineSet
EndChar

StartChar: i
Encoding: 105 105 76
Width: 1229
GlyphClass: 2
Flags: W
AnchorPoint: "bottom-right" 652 6 basechar 0
AnchorPoint: "top" 653 1487 basechar 0
AnchorPoint: "bottom" 671 -6 basechar 0
LayerCount: 2
Fore
SplineSet
794 190 m 1,0,-1
 1147 190 l 1,1,-1
 1147 0 l 1,2,-1
 118 0 l 1,3,-1
 118 190 l 1,4,-1
 513 190 l 1,5,-1
 513 892 l 1,6,-1
 223 892 l 1,7,-1
 223 1082 l 1,8,-1
 794 1082 l 1,9,-1
 794 190 l 1,0,-1
513 1277 m 1,10,-1
 513 1484 l 1,11,-1
 794 1484 l 1,12,-1
 794 1277 l 1,13,-1
 513 1277 l 1,10,-1
EndSplineSet
EndChar

StartChar: j
Encoding: 106 106 77
Width: 1229
GlyphClass: 2
Flags: W
AnchorPoint: "bottom" 488 -436 basechar 0
AnchorPoint: "top" 724 1488 basechar 0
LayerCount: 2
Fore
SplineSet
864 -13 m 2,0,1
 864 -142 864 -142 807.5 -234.5 c 128,-1,2
 751 -327 751 -327 646.5 -376 c 128,-1,3
 542 -425 542 -425 405 -425 c 0,4,5
 326 -425 326 -425 244 -412 c 128,-1,6
 162 -399 162 -399 117 -382 c 1,7,-1
 117 -172 l 1,8,9
 253 -206 253 -206 380 -206 c 0,10,11
 490 -206 490 -206 536 -152.5 c 128,-1,12
 582 -99 582 -99 582 10 c 2,13,-1
 582 892 l 1,14,-1
 228 892 l 1,15,-1
 228 1082 l 1,16,-1
 864 1082 l 1,17,-1
 864 -13 l 2,0,1
583 1277 m 1,18,-1
 583 1484 l 1,19,-1
 864 1484 l 1,20,-1
 864 1277 l 1,21,-1
 583 1277 l 1,18,-1
EndSplineSet
EndChar

StartChar: k
Encoding: 107 107 78
Width: 1229
GlyphClass: 2
Flags: W
AnchorPoint: "bottom" 639 -6 basechar 0
AnchorPoint: "top" 637 1485 basechar 0
LayerCount: 2
Fore
SplineSet
864 0 m 1,0,-1
 575 490 l 1,1,-1
 454 406 l 1,2,-1
 454 0 l 1,3,-1
 173 0 l 1,4,-1
 173 1484 l 1,5,-1
 454 1484 l 1,6,-1
 454 634 l 1,7,-1
 840 1082 l 1,8,-1
 1142 1082 l 1,9,-1
 762 660 l 1,10,-1
 1171 0 l 1,11,-1
 864 0 l 1,0,-1
EndSplineSet
EndChar

StartChar: l
Encoding: 108 108 79
Width: 1229
GlyphClass: 2
Flags: W
HStem: 5 187<817.858 1147> 1294 190<223 513>
VStem: 513 281<234.747 1294>
AnchorPoint: "bottom" 859 -3 basechar 0
AnchorPoint: "top" 521 1489 basechar 0
LayerCount: 2
Fore
SplineSet
930 192 m 16,0,-1
 1147 190 l 1,1,-1
 1147 0 l 1,2,-1
 798 5 l 8,3,4
 699 22 699 22 607 93 c 24,5,6
 564 126 564 126 538 206 c 24,7,8
 515 274 515 274 513 376 c 17,9,-1
 513 1294 l 1,10,-1
 223 1294 l 1,11,-1
 223 1484 l 1,12,-1
 794 1484 l 1,13,-1
 794 344 l 9,14,15
 796 258 796 258 817 234 c 24,16,17
 844 203 844 203 930 192 c 16,0,-1
936 190 m 1025,18,-1
794 344 m 1025,19,-1
803 0 m 1025,20,-1
513 376 m 1025,21,-1
EndSplineSet
EndChar

StartChar: m
Encoding: 109 109 80
Width: 1229
GlyphClass: 2
Flags: W
AnchorPoint: "bottom" 618 -7 basechar 0
AnchorPoint: "top" 663 1097 basechar 0
LayerCount: 2
Fore
SplineSet
501 0 m 1,0,-1
 501 658 l 2,1,2
 501 807 501 807 482.5 865 c 128,-1,3
 464 923 464 923 414 923 c 0,4,5
 363 923 363 923 333.5 829 c 128,-1,6
 304 735 304 735 304 582 c 2,7,-1
 304 0 l 1,8,-1
 75 0 l 1,9,-1
 75 851 l 2,10,11
 75 1040 75 1040 69 1082 c 1,12,-1
 278 1082 l 1,13,-1
 284 955 l 1,14,-1
 284 907 l 1,15,-1
 286 907 l 1,16,17
 320 1009 320 1009 372 1055.5 c 128,-1,18
 424 1102 424 1102 502 1102 c 0,19,20
 590 1102 590 1102 633.5 1054 c 128,-1,21
 677 1006 677 1006 696 906 c 1,22,-1
 698 906 l 1,23,24
 738 1012 738 1012 793.5 1057 c 128,-1,25
 849 1102 849 1102 934 1102 c 0,26,27
 1052 1102 1052 1102 1103 1016 c 128,-1,28
 1154 930 1154 930 1154 721 c 2,29,-1
 1154 0 l 1,30,-1
 926 0 l 1,31,-1
 926 658 l 2,32,33
 926 807 926 807 907.5 865 c 128,-1,34
 889 923 889 923 839 923 c 0,35,36
 788 923 788 923 758.5 842.5 c 128,-1,37
 729 762 729 762 729 601 c 2,38,-1
 729 0 l 1,39,-1
 501 0 l 1,0,-1
EndSplineSet
EndChar

StartChar: n
Encoding: 110 110 81
Width: 1229
GlyphClass: 2
Flags: W
AnchorPoint: "bottom" 626 -3 basechar 0
AnchorPoint: "top" 630 1098 basechar 0
LayerCount: 2
Fore
SplineSet
824 0 m 1,0,-1
 824 619 l 2,1,2
 824 760 824 760 785.5 826 c 128,-1,3
 747 892 747 892 653 892 c 0,4,5
 549 892 549 892 486.5 803.5 c 128,-1,6
 424 715 424 715 424 580 c 2,7,-1
 424 0 l 1,8,-1
 143 0 l 1,9,-1
 143 840 l 2,10,11
 143 927 143 927 140.5 982.5 c 128,-1,12
 138 1038 138 1038 135 1082 c 1,13,-1
 403 1082 l 1,14,15
 406 1063 406 1063 411 980.5 c 128,-1,16
 416 898 416 898 416 867 c 1,17,-1
 420 867 l 1,18,19
 477 991 477 991 563 1047 c 128,-1,20
 649 1103 649 1103 768 1103 c 0,21,22
 1104 1103 1104 1103 1104 687 c 2,23,-1
 1104 0 l 1,24,-1
 824 0 l 1,0,-1
EndSplineSet
EndChar

StartChar: o
Encoding: 111 111 82
Width: 1229
GlyphClass: 2
Flags: W
AnchorPoint: "bottom-right" 617 2 basechar 0
AnchorPoint: "top" 637 1105 basechar 0
AnchorPoint: "bottom" 618 -28 basechar 0
LayerCount: 2
Fore
SplineSet
1137 542 m 0,0,1
 1137 273 1137 273 1001 126.5 c 128,-1,2
 865 -20 865 -20 610 -20 c 0,3,4
 364 -20 364 -20 228 126.5 c 128,-1,5
 92 273 92 273 92 542 c 0,6,7
 92 810 92 810 227 956 c 128,-1,8
 362 1102 362 1102 616 1102 c 0,9,10
 1137 1102 1137 1102 1137 542 c 0,0,1
843 542 m 0,11,12
 843 734 843 734 792 821.5 c 128,-1,13
 741 909 741 909 620 909 c 0,14,15
 496 909 496 909 441.5 821 c 128,-1,16
 387 733 387 733 387 542 c 0,17,18
 387 349 387 349 442.5 260.5 c 128,-1,19
 498 172 498 172 607 172 c 0,20,21
 731 172 731 172 787 259.5 c 128,-1,22
 843 347 843 347 843 542 c 0,11,12
EndSplineSet
EndChar

StartChar: p
Encoding: 112 112 83
Width: 1229
GlyphClass: 2
Flags: W
AnchorPoint: "bottom" 644 -432 basechar 0
AnchorPoint: "top" 626 1105 basechar 0
LayerCount: 2
Fore
SplineSet
412 1082 m 1,0,1
 418 1061 418 1061 422.5 998 c 128,-1,2
 427 935 427 935 427 906 c 1,3,-1
 431 906 l 1,4,5
 479 1001 479 1001 559.5 1052 c 128,-1,6
 640 1103 640 1103 747 1103 c 0,7,8
 927 1103 927 1103 1029.5 952 c 128,-1,9
 1132 801 1132 801 1132 543 c 0,10,11
 1132 278 1132 278 1028.5 129 c 128,-1,12
 925 -20 925 -20 736 -20 c 0,13,14
 629 -20 629 -20 550 28.5 c 128,-1,15
 471 77 471 77 429 171 c 1,16,-1
 427 171 l 1,17,-1
 429 -7 l 1,18,-1
 429 -425 l 1,19,-1
 148 -425 l 1,20,-1
 148 846 l 2,21,22
 148 946 148 946 140 1082 c 1,23,-1
 412 1082 l 1,0,1
425 536 m 0,24,25
 425 417 425 417 451 336.5 c 128,-1,26
 477 256 477 256 524.5 213.5 c 128,-1,27
 572 171 572 171 636 171 c 0,28,29
 737 171 737 171 788 266 c 128,-1,30
 839 361 839 361 839 543 c 0,31,32
 839 727 839 727 786.5 819 c 128,-1,33
 734 911 734 911 638 911 c 0,34,35
 576 911 576 911 527 866.5 c 128,-1,36
 478 822 478 822 451.5 739 c 128,-1,37
 425 656 425 656 425 536 c 0,24,25
EndSplineSet
EndChar

StartChar: q
Encoding: 113 113 84
Width: 1229
GlyphClass: 2
Flags: W
AnchorPoint: "bottom" 599 -432 basechar 0
AnchorPoint: "top" 588 1103 basechar 0
LayerCount: 2
Fore
SplineSet
1089 1082 m 1,0,1
 1081 946 1081 946 1081 846 c 2,2,-1
 1081 -425 l 1,3,-1
 800 -425 l 1,4,-1
 800 -7 l 1,5,-1
 802 171 l 1,6,-1
 800 171 l 1,7,8
 759 80 759 80 676.5 30 c 128,-1,9
 594 -20 594 -20 483 -20 c 0,10,11
 297 -20 297 -20 197 127 c 128,-1,12
 97 274 97 274 97 543 c 0,13,14
 97 798 97 798 204 950.5 c 128,-1,15
 311 1103 311 1103 492 1103 c 0,16,17
 700 1103 700 1103 798 906 c 1,18,-1
 802 906 l 1,19,20
 802 950 802 950 808 1009.5 c 128,-1,21
 814 1069 814 1069 817 1082 c 1,22,-1
 1089 1082 l 1,0,1
804 536 m 0,23,24
 804 656 804 656 777.5 739 c 128,-1,25
 751 822 751 822 702.5 866.5 c 128,-1,26
 654 911 654 911 591 911 c 0,27,28
 495 911 495 911 442.5 819 c 128,-1,29
 390 727 390 727 390 543 c 0,30,31
 390 360 390 360 441.5 265.5 c 128,-1,32
 493 171 493 171 593 171 c 0,33,34
 691 171 691 171 747.5 267 c 128,-1,35
 804 363 804 363 804 536 c 0,23,24
EndSplineSet
EndChar

StartChar: r
Encoding: 114 114 85
Width: 1229
GlyphClass: 2
Flags: W
AnchorPoint: "bottom" 387 -6 basechar 0
AnchorPoint: "top" 664 1099 basechar 0
LayerCount: 2
Fore
SplineSet
1081 848 m 1,0,1
 969 867 969 867 869 867 c 0,2,3
 713 867 713 867 621.5 749 c 128,-1,4
 530 631 530 631 530 438 c 2,5,-1
 530 0 l 1,6,-1
 250 0 l 1,7,-1
 250 701 l 2,8,9
 250 777 250 777 236.5 880 c 128,-1,10
 223 983 223 983 198 1082 c 1,11,-1
 469 1082 l 1,12,13
 505 952 505 952 515 854 c 1,14,-1
 519 854 l 1,15,16
 569 990 569 990 654 1046 c 128,-1,17
 739 1102 739 1102 875 1102 c 0,18,19
 979 1102 979 1102 1081 1085 c 1,20,-1
 1081 848 l 1,0,1
EndSplineSet
EndChar

StartChar: s
Encoding: 115 115 86
Width: 1229
GlyphClass: 2
Flags: W
AnchorPoint: "bottom" 635 -28 basechar 0
AnchorPoint: "top" 642 1108 basechar 0
LayerCount: 2
Fore
SplineSet
1104 316 m 0,0,1
 1104 159 1104 159 975.5 69.5 c 128,-1,2
 847 -20 847 -20 620 -20 c 0,3,4
 397 -20 397 -20 278.5 50.5 c 128,-1,5
 160 121 160 121 121 270 c 1,6,-1
 368 307 l 1,7,8
 389 230 389 230 440.5 198 c 128,-1,9
 492 166 492 166 620 166 c 0,10,11
 738 166 738 166 792 196 c 128,-1,12
 846 226 846 226 846 290 c 0,13,14
 846 342 846 342 802.5 372.5 c 128,-1,15
 759 403 759 403 655 424 c 0,16,17
 417 471 417 471 334 511.5 c 128,-1,18
 251 552 251 552 207.5 616.5 c 128,-1,19
 164 681 164 681 164 775 c 0,20,21
 164 930 164 930 283.5 1016.5 c 128,-1,22
 403 1103 403 1103 622 1103 c 0,23,24
 815 1103 815 1103 932.5 1028 c 128,-1,25
 1050 953 1050 953 1079 811 c 1,26,-1
 830 785 l 1,27,28
 818 851 818 851 771 883.5 c 128,-1,29
 724 916 724 916 622 916 c 0,30,31
 522 916 522 916 472 890.5 c 128,-1,32
 422 865 422 865 422 805 c 0,33,34
 422 758 422 758 460.5 730.5 c 128,-1,35
 499 703 499 703 590 685 c 0,36,37
 717 659 717 659 815.5 631.5 c 128,-1,38
 914 604 914 604 973.5 566 c 128,-1,39
 1033 528 1033 528 1068.5 468.5 c 128,-1,40
 1104 409 1104 409 1104 316 c 0,0,1
EndSplineSet
EndChar

StartChar: t
Encoding: 116 116 87
Width: 1229
GlyphClass: 2
Flags: W
AnchorPoint: "bottom" 712 -19 basechar 0
AnchorPoint: "top" 516 1367 basechar 0
LayerCount: 2
Fore
SplineSet
328 892 m 1,0,-1
 161 892 l 1,1,-1
 161 1082 l 1,2,-1
 342 1082 l 1,3,-1
 430 1364 l 1,4,-1
 606 1364 l 1,5,-1
 606 1082 l 1,6,-1
 991 1082 l 1,7,-1
 991 892 l 1,8,-1
 606 892 l 1,9,-1
 606 362 l 2,10,11
 606 274 606 274 622.5 243.5 c 128,-1,12
 639 213 639 213 676 195.5 c 128,-1,13
 713 178 713 178 780 178 c 0,14,15
 904 178 904 178 1035 205 c 1,16,-1
 1035 19 l 1,17,18
 893 -4 893 -4 834 -8.5 c 128,-1,19
 775 -13 775 -13 711 -13 c 0,20,21
 584 -13 584 -13 498.5 21.5 c 128,-1,22
 413 56 413 56 369.5 129.5 c 128,-1,23
 326 203 326 203 326 336 c 2,24,-1
 328 892 l 1,0,-1
EndSplineSet
EndChar

StartChar: u
Encoding: 117 117 88
Width: 1229
GlyphClass: 2
Flags: W
AnchorPoint: "bottom-right" 942 10 basechar 0
AnchorPoint: "bottom" 607 -22 basechar 0
AnchorPoint: "top" 609 1080 basechar 0
LayerCount: 2
Fore
SplineSet
416 1082 m 1,0,-1
 416 475 l 2,1,2
 416 337 416 337 460.5 263.5 c 128,-1,3
 505 190 505 190 588 190 c 0,4,5
 678 190 678 190 736.5 278.5 c 128,-1,6
 795 367 795 367 795 502 c 2,7,-1
 795 1082 l 1,8,-1
 1076 1082 l 1,9,-1
 1076 242 l 2,10,11
 1076 104 1076 104 1084 0 c 1,12,-1
 816 0 l 1,13,14
 804 144 804 144 804 215 c 1,15,-1
 799 215 l 1,16,17
 692 -20 692 -20 471 -20 c 0,18,19
 307 -20 307 -20 221 84.5 c 128,-1,20
 135 189 135 189 135 395 c 2,21,-1
 135 1082 l 1,22,-1
 416 1082 l 1,0,-1
EndSplineSet
EndChar

StartChar: v
Encoding: 118 118 89
Width: 1229
GlyphClass: 2
Flags: W
AnchorPoint: "bottom" 604 -6 basechar 0
AnchorPoint: "top" 619 1084 basechar 0
LayerCount: 2
Fore
SplineSet
774 0 m 1,0,-1
 438 0 l 1,1,-1
 31 1082 l 1,2,-1
 328 1082 l 1,3,-1
 537 460 l 1,4,5
 552 410 552 410 608 210 c 1,6,7
 614 234 614 234 644.5 337.5 c 128,-1,8
 675 441 675 441 899 1082 c 1,9,-1
 1193 1082 l 1,10,-1
 774 0 l 1,0,-1
EndSplineSet
EndChar

StartChar: w
Encoding: 119 119 90
Width: 1229
GlyphClass: 2
Flags: W
AnchorPoint: "bottom" 598 -4 basechar 0
AnchorPoint: "top" 622 1076 basechar 0
LayerCount: 2
Fore
SplineSet
1028 0 m 1,0,-1
 784 0 l 1,1,-1
 641 471 l 2,2,3
 616 551 616 551 614 573 c 1,4,5
 613 564 613 564 603 526.5 c 128,-1,6
 593 489 593 489 437 0 c 1,7,-1
 194 0 l 1,8,-1
 11 1082 l 1,9,-1
 239 1082 l 1,10,-1
 322 475 l 1,11,12
 341 323 341 323 341 249 c 1,13,-1
 361 323 l 1,14,-1
 518 817 l 1,15,-1
 711 817 l 1,16,-1
 851 362 l 2,17,18
 866 312 866 312 880 249 c 1,19,20
 880 311 880 311 890 392 c 128,-1,21
 900 473 900 473 992 1082 c 1,22,-1
 1218 1082 l 1,23,-1
 1028 0 l 1,0,-1
EndSplineSet
EndChar

StartChar: x
Encoding: 120 120 91
Width: 1229
GlyphClass: 2
Flags: W
AnchorPoint: "bottom" 602 -4 basechar 0
AnchorPoint: "top" 618 1077 basechar 0
LayerCount: 2
Fore
SplineSet
874 0 m 1,0,-1
 612 392 l 1,1,-1
 348 0 l 1,2,-1
 49 0 l 1,3,-1
 455 559 l 1,4,-1
 68 1082 l 1,5,-1
 371 1082 l 1,6,-1
 612 728 l 1,7,-1
 852 1082 l 1,8,-1
 1157 1082 l 1,9,-1
 770 562 l 1,10,-1
 1179 0 l 1,11,-1
 874 0 l 1,0,-1
EndSplineSet
EndChar

StartChar: y
Encoding: 121 121 92
Width: 1229
GlyphClass: 2
Flags: W
AnchorPoint: "bottom" 513 -434 basechar 0
AnchorPoint: "top" 641 1078 basechar 0
LayerCount: 2
Fore
SplineSet
325 -425 m 0,0,1
 219 -425 219 -425 143 -412 c 1,2,-1
 143 -212 l 1,3,-1
 194 -217 l 1,4,-1
 245 -220 l 1,5,6
 305 -220 305 -220 344.5 -201 c 128,-1,7
 384 -182 384 -182 415.5 -138 c 128,-1,8
 447 -94 447 -94 486 11 c 1,9,-1
 38 1082 l 1,10,-1
 335 1082 l 1,11,-1
 525 555 l 2,12,13
 565 446 565 446 626 221 c 1,14,-1
 635 258 l 1,15,-1
 716 551 l 1,16,-1
 896 1082 l 1,17,-1
 1190 1082 l 1,18,-1
 742 -57 l 2,19,20
 662 -263 662 -263 567 -344 c 128,-1,21
 472 -425 472 -425 325 -425 c 0,0,1
EndSplineSet
EndChar

StartChar: z
Encoding: 122 122 93
Width: 1229
GlyphClass: 2
Flags: W
AnchorPoint: "bottom" 619 -9 basechar 0
AnchorPoint: "top" 618 1085 basechar 0
LayerCount: 2
Fore
SplineSet
138 0 m 1,0,-1
 138 199 l 1,1,-1
 708 879 l 1,2,-1
 179 879 l 1,3,-1
 179 1082 l 1,4,-1
 1028 1082 l 1,5,-1
 1028 881 l 1,6,-1
 461 205 l 1,7,-1
 1077 205 l 1,8,-1
 1077 0 l 1,9,-1
 138 0 l 1,0,-1
EndSplineSet
EndChar

StartChar: braceleft
Encoding: 123 123 94
Width: 1229
GlyphClass: 2
Flags: W
LayerCount: 2
Fore
SplineSet
718 -425 m 2,0,1
 584 -425 584 -425 503.5 -346.5 c 128,-1,2
 423 -268 423 -268 423 -126 c 2,3,-1
 423 202 l 2,4,5
 423 316 423 316 368 372.5 c 128,-1,6
 313 429 313 429 194 431 c 1,7,-1
 194 626 l 1,8,9
 315 631 315 631 369 687.5 c 128,-1,10
 423 744 423 744 423 857 c 2,11,-1
 423 1185 l 2,12,13
 423 1331 423 1331 501.5 1407.5 c 128,-1,14
 580 1484 580 1484 718 1484 c 2,15,-1
 1045 1484 l 1,16,-1
 1045 1294 l 1,17,-1
 857 1294 l 2,18,19
 766 1294 766 1294 725.5 1242 c 128,-1,20
 685 1190 685 1190 685 1085 c 2,21,-1
 685 784 l 2,22,23
 685 689 685 689 627.5 620 c 128,-1,24
 570 551 570 551 478 532 c 1,25,-1
 478 528 l 1,26,27
 573 506 573 506 629 437.5 c 128,-1,28
 685 369 685 369 685 276 c 2,29,-1
 685 -25 l 2,30,31
 685 -131 685 -131 725.5 -182.5 c 128,-1,32
 766 -234 766 -234 857 -234 c 2,33,-1
 1045 -234 l 1,34,-1
 1045 -425 l 1,35,-1
 718 -425 l 2,0,1
EndSplineSet
Validated: 1
EndChar

StartChar: bar
Encoding: 124 124 95
Width: 1229
GlyphClass: 2
Flags: W
LayerCount: 2
Fore
SplineSet
483 -455 m 1,0,-1
 483 1484 l 1,1,-1
 745 1484 l 1,2,-1
 745 -455 l 1,3,-1
 483 -455 l 1,0,-1
EndSplineSet
Validated: 1
EndChar

StartChar: braceright
Encoding: 125 125 96
Width: 1229
GlyphClass: 2
Flags: W
LayerCount: 2
Fore
SplineSet
184 -425 m 1,0,-1
 184 -234 l 1,1,-1
 372 -234 l 2,2,3
 463 -234 463 -234 503.5 -182.5 c 128,-1,4
 544 -131 544 -131 544 -25 c 2,5,-1
 544 276 l 2,6,7
 544 369 544 369 600 437.5 c 128,-1,8
 656 506 656 506 751 528 c 1,9,-1
 751 532 l 1,10,11
 658 552 658 552 601 621 c 128,-1,12
 544 690 544 690 544 784 c 2,13,-1
 544 1085 l 2,14,15
 544 1190 544 1190 503.5 1242 c 128,-1,16
 463 1294 463 1294 372 1294 c 2,17,-1
 184 1294 l 1,18,-1
 184 1484 l 1,19,-1
 511 1484 l 2,20,21
 649 1484 649 1484 727.5 1407.5 c 128,-1,22
 806 1331 806 1331 806 1185 c 2,23,-1
 806 857 l 2,24,25
 806 744 806 744 860 687.5 c 128,-1,26
 914 631 914 631 1035 626 c 1,27,-1
 1035 431 l 1,28,29
 916 429 916 429 861 372.5 c 128,-1,30
 806 316 806 316 806 202 c 2,31,-1
 806 -126 l 2,32,33
 806 -267 806 -267 726 -346 c 128,-1,34
 646 -425 646 -425 511 -425 c 2,35,-1
 184 -425 l 1,0,-1
EndSplineSet
Validated: 1
EndChar

StartChar: asciitilde
Encoding: 126 126 97
Width: 1229
GlyphClass: 2
Flags: W
LayerCount: 2
Fore
SplineSet
866 516 m 0,0,1
 791 516 791 516 718.5 537 c 128,-1,2
 646 558 646 558 571 584 c 0,3,4
 436 631 436 631 350 631 c 0,5,6
 279 631 279 631 219.5 609.5 c 128,-1,7
 160 588 160 588 95 543 c 1,8,-1
 95 756 l 1,9,10
 208 840 208 840 366 840 c 0,11,12
 471 840 471 840 608 793 c 0,13,14
 740 747 740 747 790 735 c 128,-1,15
 840 723 840 723 885 723 c 0,16,17
 1019 723 1019 723 1133 815 c 1,18,-1
 1133 596 l 1,19,20
 1069 552 1069 552 1010.5 534 c 128,-1,21
 952 516 952 516 866 516 c 0,0,1
EndSplineSet
Validated: 1
EndChar

StartChar: dagger
Encoding: 8224 8224 130
Width: 1229
GlyphClass: 2
Flags: W
LayerCount: 2
Fore
SplineSet
713 960 m 1,0,-1
 691 -213 l 1,1,-1
 536 -213 l 1,2,-1
 514 960 l 1,3,-1
 172 933 l 1,4,-1
 172 1137 l 1,5,-1
 514 1108 l 1,6,-1
 486 1484 l 1,7,-1
 741 1484 l 1,8,-1
 713 1108 l 1,9,-1
 1056 1137 l 1,10,-1
 1056 933 l 1,11,-1
 713 960 l 1,0,-1
EndSplineSet
Validated: 1
EndChar

StartChar: degree
Encoding: 176 176 131
Width: 1229
GlyphClass: 2
Flags: W
LayerCount: 2
Fore
SplineSet
935 1110 m 256,0,1
 935 980 935 980 841.5 887.5 c 128,-1,2
 748 795 748 795 614 795 c 0,3,4
 482 795 482 795 388 886 c 128,-1,5
 294 977 294 977 294 1110 c 0,6,7
 294 1196 294 1196 336.5 1269 c 128,-1,8
 379 1342 379 1342 452.5 1383.5 c 128,-1,9
 526 1425 526 1425 614 1425 c 0,10,11
 749 1425 749 1425 842 1332.5 c 128,-1,12
 935 1240 935 1240 935 1110 c 256,0,1
777 1110 m 256,13,14
 777 1180 777 1180 730.5 1228 c 128,-1,15
 684 1276 684 1276 614 1276 c 0,16,17
 543 1276 543 1276 495.5 1227.5 c 128,-1,18
 448 1179 448 1179 448 1110 c 256,19,20
 448 1041 448 1041 497 991.5 c 128,-1,21
 546 942 546 942 614 942 c 0,22,23
 681 942 681 942 729 991 c 128,-1,24
 777 1040 777 1040 777 1110 c 256,13,14
EndSplineSet
Validated: 1
EndChar

StartChar: cent
Encoding: 162 162 132
Width: 1229
GlyphClass: 2
Flags: W
VStem: 98 283<440.01 889.228> 551 165<-60 133.948 325 1002 1190.31 1380> 856 283<401.031 508 839 923.633>
LayerCount: 2
Fore
SplineSet
715 -59 m 5,0,-1
 715 -60 l 5,1,-1
 553 -60 l 5,2,-1
 553 -59 l 5,3,-1
 551 -59 l 5,4,-1
 551 129 l 5,5,6
 337 150 337 150 218 286 c 4,7,8
 98 422 98 422 98 657 c 4,9,10
 98 889 98 889 216 1030 c 4,11,12
 333 1170 333 1170 551 1196 c 5,13,-1
 551 1380 l 5,14,-1
 553 1380 l 5,15,-1
 715 1380 l 5,16,-1
 716 1380 l 5,17,-1
 716 1196 l 5,18,19
 884 1178 884 1178 993 1084 c 132,-1,20
 1102 990 1102 990 1130 839 c 5,21,-1
 848 825 l 5,22,23
 833 916 833 916 777 966 c 4,24,25
 750 990 750 990 716 1002 c 5,26,-1
 716 325 l 5,27,28
 752 340 752 340 782 366 c 4,29,30
 842 420 842 420 856 520 c 5,31,-1
 1139 508 l 5,32,33
 1117 356 1117 356 1005 254 c 4,34,35
 893 153 893 153 716 131 c 5,36,-1
 716 -59 l 5,37,-1
 715 -59 l 5,0,-1
551 1003 m 5,38,39
 486 982 486 982 445 923 c 4,40,41
 381 831 381 831 381 667 c 4,42,43
 382 493 382 493 448 402 c 4,44,45
 489 346 489 346 551 324 c 5,46,-1
 551 1003 l 5,38,39
EndSplineSet
EndChar

StartChar: sterling
Encoding: 163 163 133
Width: 1229
GlyphClass: 2
Flags: W
LayerCount: 2
Fore
SplineSet
1180 363 m 1,0,1
 1149 191 1149 191 1044 95.5 c 128,-1,2
 939 0 939 0 788 0 c 2,3,-1
 84 0 l 1,4,-1
 84 205 l 1,5,6
 186 263 186 263 223.5 335 c 128,-1,7
 261 407 261 407 261 512 c 2,8,-1
 261 594 l 1,9,-1
 73 594 l 1,10,-1
 73 764 l 1,11,-1
 251 764 l 1,12,-1
 251 962 l 2,13,14
 251 1163 251 1163 358 1266.5 c 128,-1,15
 465 1370 465 1370 677 1370 c 0,16,17
 846 1370 846 1370 943 1301 c 128,-1,18
 1040 1232 1040 1232 1084 1079 c 1,19,-1
 851 1032 l 1,20,21
 830 1109 830 1109 789 1144 c 128,-1,22
 748 1179 748 1179 682 1179 c 0,23,24
 591 1179 591 1179 551 1121.5 c 128,-1,25
 511 1064 511 1064 511 939 c 2,26,-1
 511 764 l 1,27,-1
 797 764 l 1,28,-1
 797 594 l 1,29,-1
 511 594 l 1,30,-1
 511 514 l 2,31,32
 511 411 511 411 470 338 c 128,-1,33
 429 265 429 265 329 209 c 1,34,-1
 719 209 l 2,35,36
 823 209 823 209 876.5 258.5 c 128,-1,37
 930 308 930 308 947 402 c 1,38,-1
 1180 363 l 1,0,1
EndSplineSet
Validated: 1
EndChar

StartChar: section
Encoding: 167 167 134
Width: 1229
GlyphClass: 2
Flags: W
LayerCount: 2
Fore
SplineSet
629 1485 m 0,0,1
 823 1485 823 1485 940.5 1414.5 c 128,-1,2
 1058 1344 1058 1344 1085 1211 c 1,3,-1
 846 1186 l 1,4,5
 833 1248 833 1248 776 1281.5 c 128,-1,6
 719 1315 719 1315 629 1315 c 0,7,8
 517 1315 517 1315 464.5 1285.5 c 128,-1,9
 412 1256 412 1256 412 1191 c 0,10,11
 412 1150 412 1150 439 1121.5 c 128,-1,12
 466 1093 466 1093 515.5 1071.5 c 128,-1,13
 565 1050 565 1050 696 1021 c 0,14,15
 864 983 864 983 944.5 942 c 128,-1,16
 1025 901 1025 901 1067.5 840 c 128,-1,17
 1110 779 1110 779 1110 692 c 0,18,19
 1110 599 1110 599 1055 527.5 c 128,-1,20
 1000 456 1000 456 913 429 c 1,21,22
 1094 350 1094 350 1094 173 c 0,23,24
 1094 6 1094 6 968.5 -82.5 c 128,-1,25
 843 -171 843 -171 610 -171 c 0,26,27
 387 -171 387 -171 266.5 -101.5 c 128,-1,28
 146 -32 146 -32 107 117 c 1,29,-1
 344 154 l 1,30,31
 364 74 364 74 425.5 36.5 c 128,-1,32
 487 -1 487 -1 610 -1 c 0,33,34
 732 -1 732 -1 795 31.5 c 128,-1,35
 858 64 858 64 858 144 c 0,36,37
 858 192 858 192 834 222 c 128,-1,38
 810 252 810 252 758.5 274.5 c 128,-1,39
 707 297 707 297 522 341 c 0,40,41
 316 390 316 390 230.5 468 c 128,-1,42
 145 546 145 546 145 658 c 0,43,44
 145 751 145 751 200 815 c 128,-1,45
 255 879 255 879 358 914 c 1,46,47
 268 952 268 952 219 1020 c 128,-1,48
 170 1088 170 1088 170 1172 c 0,49,50
 170 1321 170 1321 287.5 1403 c 128,-1,51
 405 1485 405 1485 629 1485 c 0,0,1
872 658 m 0,52,53
 872 729 872 729 812.5 767 c 128,-1,54
 753 805 753 805 580 838 c 1,55,56
 387 815 387 815 387 685 c 0,57,58
 387 644 387 644 414 616.5 c 128,-1,59
 441 589 441 589 491 568 c 128,-1,60
 541 547 541 547 677 516 c 1,61,62
 872 526 872 526 872 658 c 0,52,53
EndSplineSet
Validated: 1
EndChar

StartChar: bullet
Encoding: 8226 8226 135
Width: 1229
GlyphClass: 2
Flags: W
LayerCount: 2
Fore
SplineSet
907 681 m 0,0,1
 907 560 907 560 820 473 c 128,-1,2
 733 386 733 386 612 386 c 0,3,4
 493 386 493 386 407 472.5 c 128,-1,5
 321 559 321 559 321 681 c 256,6,7
 321 803 321 803 406.5 888.5 c 128,-1,8
 492 974 492 974 612 974 c 0,9,10
 734 974 734 974 820.5 888.5 c 128,-1,11
 907 803 907 803 907 681 c 0,0,1
EndSplineSet
Validated: 1
EndChar

StartChar: paragraph
Encoding: 182 182 136
Width: 1229
GlyphClass: 2
Flags: W
LayerCount: 2
Fore
SplineSet
984 1206 m 1,0,-1
 984 -324 l 1,1,-1
 828 -324 l 1,2,-1
 828 1206 l 1,3,-1
 633 1206 l 1,4,-1
 633 -324 l 1,5,-1
 478 -324 l 1,6,-1
 478 634 l 1,7,8
 309 634 309 634 212 726.5 c 128,-1,9
 115 819 115 819 115 989 c 0,10,11
 115 1158 115 1158 213.5 1253.5 c 128,-1,12
 312 1349 312 1349 486 1349 c 2,13,-1
 1115 1349 l 1,14,-1
 1115 1206 l 1,15,-1
 984 1206 l 1,0,-1
EndSplineSet
Validated: 1
EndChar

StartChar: germandbls
Encoding: 223 223 137
Width: 1229
GlyphClass: 2
Flags: W
LayerCount: 2
Fore
SplineSet
1178 312 m 0,0,1
 1178 150 1178 150 1077.5 65 c 128,-1,2
 977 -20 977 -20 791 -20 c 0,3,4
 645 -20 645 -20 529 23 c 1,5,-1
 529 229 l 1,6,7
 579 206 579 206 646.5 188 c 128,-1,8
 714 170 714 170 761 170 c 0,9,10
 842 170 842 170 879 204.5 c 128,-1,11
 916 239 916 239 916 296 c 0,12,13
 916 348 916 348 878 392.5 c 128,-1,14
 840 437 840 437 747 498 c 0,15,16
 578 607 578 607 578 760 c 0,17,18
 578 814 578 814 605.5 861 c 128,-1,19
 633 908 633 908 690 958 c 0,20,21
 751 1012 751 1012 776 1052.5 c 128,-1,22
 801 1093 801 1093 801 1138 c 0,23,24
 801 1203 801 1203 754.5 1242 c 128,-1,25
 708 1281 708 1281 620 1281 c 0,26,27
 517 1281 517 1281 463 1217.5 c 128,-1,28
 409 1154 409 1154 409 1013 c 2,29,-1
 409 0 l 1,30,-1
 128 0 l 1,31,-1
 128 1007 l 2,32,33
 128 1241 128 1241 255.5 1362.5 c 128,-1,34
 383 1484 383 1484 623 1484 c 0,35,36
 829 1484 829 1484 948 1394 c 128,-1,37
 1067 1304 1067 1304 1067 1149 c 0,38,39
 1067 1095 1067 1095 1050.5 1052.5 c 128,-1,40
 1034 1010 1034 1010 1009 976 c 128,-1,41
 984 942 984 942 954.5 915 c 128,-1,42
 925 888 925 888 900 865.5 c 128,-1,43
 875 843 875 843 858.5 822.5 c 128,-1,44
 842 802 842 802 842 782 c 0,45,46
 842 757 842 757 862.5 734.5 c 128,-1,47
 883 712 883 712 1010 618 c 0,48,49
 1178 493 1178 493 1178 312 c 0,0,1
EndSplineSet
Validated: 1
EndChar

StartChar: registered
Encoding: 174 174 138
Width: 1229
GlyphClass: 2
Flags: W
LayerCount: 2
Fore
SplineSet
1197 761 m 0,0,1
 1197 534 1197 534 1126 370.5 c 128,-1,2
 1055 207 1055 207 923 122.5 c 128,-1,3
 791 38 791 38 614 38 c 256,4,5
 437 38 437 38 305.5 123.5 c 128,-1,6
 174 209 174 209 102.5 372 c 128,-1,7
 31 535 31 535 31 761 c 256,8,9
 31 987 31 987 102 1150 c 128,-1,10
 173 1313 173 1313 305.5 1398.5 c 128,-1,11
 438 1484 438 1484 614 1484 c 256,12,13
 790 1484 790 1484 922.5 1399 c 128,-1,14
 1055 1314 1055 1314 1126 1151.5 c 128,-1,15
 1197 989 1197 989 1197 761 c 0,0,1
789 343 m 1,16,-1
 599 672 l 1,17,-1
 483 672 l 1,18,-1
 483 343 l 1,19,-1
 332 343 l 1,20,-1
 332 1174 l 1,21,-1
 639 1174 l 2,22,23
 781 1174 781 1174 856.5 1111 c 128,-1,24
 932 1048 932 1048 932 937 c 0,25,26
 932 835 932 835 881.5 770 c 128,-1,27
 831 705 831 705 746 686 c 1,28,-1
 964 343 l 1,29,-1
 789 343 l 1,16,-1
781 935 m 0,30,31
 781 1062 781 1062 605 1062 c 2,32,-1
 483 1062 l 1,33,-1
 483 782 l 1,34,-1
 617 782 l 2,35,36
 697 782 697 782 739 821 c 128,-1,37
 781 860 781 860 781 935 c 0,30,31
1071 761 m 0,38,39
 1071 1049 1071 1049 951.5 1208.5 c 128,-1,40
 832 1368 832 1368 614 1368 c 0,41,42
 399 1368 399 1368 279.5 1208.5 c 128,-1,43
 160 1049 160 1049 160 761 c 0,44,45
 160 470 160 470 280 311.5 c 128,-1,46
 400 153 400 153 614 153 c 0,47,48
 831 153 831 153 951 311.5 c 128,-1,49
 1071 470 1071 470 1071 761 c 0,38,39
EndSplineSet
Validated: 1
EndChar

StartChar: copyright
Encoding: 169 169 139
Width: 1229
GlyphClass: 2
Flags: W
LayerCount: 2
Fore
SplineSet
628 333 m 0,0,1
 460 333 460 333 367.5 446.5 c 128,-1,2
 275 560 275 560 275 763 c 0,3,4
 275 965 275 965 364 1076 c 128,-1,5
 453 1187 453 1187 621 1187 c 0,6,7
 838 1187 838 1187 924 978 c 1,8,-1
 786 935 l 1,9,10
 737 1062 737 1062 623 1062 c 0,11,12
 528 1062 528 1062 478 985.5 c 128,-1,13
 428 909 428 909 428 763 c 0,14,15
 428 621 428 621 481.5 539 c 128,-1,16
 535 457 535 457 628 457 c 0,17,18
 741 457 741 457 799 611 c 1,19,-1
 928 569 l 1,20,21
 891 456 891 456 813.5 394.5 c 128,-1,22
 736 333 736 333 628 333 c 0,0,1
1197 761 m 0,23,24
 1197 534 1197 534 1126 370.5 c 128,-1,25
 1055 207 1055 207 923 122.5 c 128,-1,26
 791 38 791 38 614 38 c 256,27,28
 437 38 437 38 305.5 123.5 c 128,-1,29
 174 209 174 209 102.5 372 c 128,-1,30
 31 535 31 535 31 761 c 256,31,32
 31 987 31 987 102 1150 c 128,-1,33
 173 1313 173 1313 305.5 1398.5 c 128,-1,34
 438 1484 438 1484 614 1484 c 256,35,36
 790 1484 790 1484 922.5 1399 c 128,-1,37
 1055 1314 1055 1314 1126 1151.5 c 128,-1,38
 1197 989 1197 989 1197 761 c 0,23,24
1071 761 m 0,39,40
 1071 1049 1071 1049 951.5 1208.5 c 128,-1,41
 832 1368 832 1368 614 1368 c 0,42,43
 399 1368 399 1368 279.5 1208.5 c 128,-1,44
 160 1049 160 1049 160 761 c 0,45,46
 160 470 160 470 280 311.5 c 128,-1,47
 400 153 400 153 614 153 c 0,48,49
 831 153 831 153 951 311.5 c 128,-1,50
 1071 470 1071 470 1071 761 c 0,39,40
EndSplineSet
Validated: 1
EndChar

StartChar: trademark
Encoding: 8482 8482 140
Width: 1229
GlyphClass: 2
Flags: W
LayerCount: 2
Fore
SplineSet
315 1351 m 1,0,-1
 315 842 l 1,1,-1
 158 842 l 1,2,-1
 158 1351 l 1,3,-1
 0 1351 l 1,4,-1
 0 1483 l 1,5,-1
 477 1483 l 1,6,-1
 477 1351 l 1,7,-1
 315 1351 l 1,0,-1
864 1044 m 1,8,9
 866 1060 866 1060 878 1099 c 128,-1,10
 890 1138 890 1138 1023 1483 c 1,11,-1
 1206 1483 l 1,12,-1
 1206 842 l 1,13,-1
 1071 842 l 1,14,-1
 1071 1195 l 1,15,-1
 1074 1283 l 1,16,-1
 1048 1195 l 1,17,-1
 912 842 l 1,18,-1
 815 842 l 1,19,-1
 679 1195 l 1,20,-1
 653 1282 l 1,21,-1
 656 1195 l 1,22,-1
 656 842 l 1,23,-1
 521 842 l 1,24,-1
 521 1483 l 1,25,-1
 704 1483 l 1,26,-1
 846 1111 l 2,27,28
 860 1075 860 1075 864 1044 c 1,8,9
EndSplineSet
Validated: 1
EndChar

StartChar: acute
Encoding: 180 180 141
Width: 1229
GlyphClass: 2
Flags: W
LayerCount: 2
Fore
SplineSet
367 1184 m 1,0,-1
 367 1215 l 1,1,-1
 619 1458 l 1,2,-1
 877 1458 l 1,3,-1
 877 1415 l 1,4,-1
 537 1184 l 1,5,-1
 367 1184 l 1,0,-1
EndSplineSet
Validated: 1
EndChar

StartChar: dieresis
Encoding: 168 168 142
Width: 1229
GlyphClass: 2
Flags: W
LayerCount: 2
Fore
SplineSet
713 1219 m 1,0,-1
 713 1438 l 1,1,-1
 940 1438 l 1,2,-1
 940 1219 l 1,3,-1
 713 1219 l 1,0,-1
289 1219 m 1,4,-1
 289 1438 l 1,5,-1
 513 1438 l 1,6,-1
 513 1219 l 1,7,-1
 289 1219 l 1,4,-1
EndSplineSet
Validated: 1
EndChar

StartChar: notequal
Encoding: 8800 8800 143
Width: 1229
GlyphClass: 2
Flags: W
LayerCount: 2
Fore
SplineSet
513 291 m 1,0,-1
 384 37 l 1,1,-1
 171 37 l 1,2,-1
 300 291 l 1,3,-1
 91 291 l 1,4,-1
 91 512 l 1,5,-1
 408 512 l 1,6,-1
 574 842 l 1,7,-1
 91 842 l 1,8,-1
 91 1065 l 1,9,-1
 683 1065 l 1,10,-1
 816 1323 l 1,11,-1
 1027 1323 l 1,12,-1
 896 1065 l 1,13,-1
 1138 1065 l 1,14,-1
 1138 842 l 1,15,-1
 787 842 l 1,16,-1
 621 512 l 1,17,-1
 1138 512 l 1,18,-1
 1138 291 l 1,19,-1
 513 291 l 1,0,-1
EndSplineSet
Validated: 1
EndChar

StartChar: AE
Encoding: 198 198 144
Width: 1229
GlyphClass: 2
Flags: W
AnchorPoint: "top" 764 1417 basechar 0
AnchorPoint: "bottom" 622 -59 basechar 0
LayerCount: 2
Fore
SplineSet
616 387 m 1,0,-1
 363 387 l 1,1,-1
 261 0 l 1,2,-1
 0 0 l 1,3,-1
 372 1349 l 1,4,-1
 1176 1349 l 1,5,-1
 1176 1147 l 1,6,-1
 867 1147 l 1,7,-1
 867 792 l 1,8,-1
 1164 792 l 1,9,-1
 1164 592 l 1,10,-1
 867 592 l 1,11,-1
 867 202 l 1,12,-1
 1215 202 l 1,13,-1
 1215 0 l 1,14,-1
 616 0 l 1,15,-1
 616 387 l 1,0,-1
616 1152 m 1,16,-1
 558 1152 l 1,17,-1
 512 952 l 1,18,-1
 414 586 l 1,19,-1
 616 586 l 1,20,-1
 616 1152 l 1,16,-1
EndSplineSet
EndChar

StartChar: Oslash
Encoding: 216 216 145
Width: 1229
GlyphClass: 2
Flags: W
LayerCount: 2
Fore
SplineSet
1157 679 m 0,0,1
 1157 334 1157 334 1017 157 c 128,-1,2
 877 -20 877 -20 615 -20 c 0,3,4
 400 -20 400 -20 266 99 c 1,5,-1
 160 -43 l 1,6,-1
 46 32 l 1,7,-1
 177 208 l 1,8,9
 72 384 72 384 72 679 c 0,10,11
 72 1024 72 1024 212.5 1197 c 128,-1,12
 353 1370 353 1370 615 1370 c 0,13,14
 827 1370 827 1370 960 1255 c 1,15,-1
 1066 1397 l 1,16,-1
 1180 1322 l 1,17,-1
 1050 1149 l 1,18,19
 1157 975 1157 975 1157 679 c 0,0,1
858 679 m 0,20,21
 858 788 858 788 844 872 c 1,22,-1
 436 326 l 1,23,24
 498 212 498 212 615 212 c 0,25,26
 736 212 736 212 797 330.5 c 128,-1,27
 858 449 858 449 858 679 c 0,20,21
371 679 m 0,28,29
 371 560 371 560 385 486 c 1,30,-1
 792 1031 l 1,31,32
 732 1138 732 1138 615 1138 c 0,33,34
 371 1138 371 1138 371 679 c 0,28,29
EndSplineSet
Validated: 1
EndChar

StartChar: infinity
Encoding: 8734 8734 146
Width: 1229
GlyphClass: 2
Flags: W
LayerCount: 2
Fore
SplineSet
1210 583 m 0,0,1
 1210 415 1210 415 1130 305.5 c 128,-1,2
 1050 196 1050 196 920 196 c 0,3,4
 823 196 823 196 754 252 c 128,-1,5
 685 308 685 308 614 445 c 1,6,7
 558 347 558 347 515.5 301 c 128,-1,8
 473 255 473 255 422.5 230.5 c 128,-1,9
 372 206 372 206 311 206 c 0,10,11
 178 206 178 206 98.5 310.5 c 128,-1,12
 19 415 19 415 19 597 c 0,13,14
 19 768 19 768 98.5 876 c 128,-1,15
 178 984 178 984 311 984 c 0,16,17
 403 984 403 984 472.5 925.5 c 128,-1,18
 542 867 542 867 614 725 c 1,19,20
 672 830 672 830 713.5 877.5 c 128,-1,21
 755 925 755 925 802.5 950 c 128,-1,22
 850 975 850 975 908 975 c 0,23,24
 1052 975 1052 975 1131 869.5 c 128,-1,25
 1210 764 1210 764 1210 583 c 0,0,1
896 802 m 0,26,27
 794 802 794 802 692 585 c 1,28,29
 739 484 739 484 786 426.5 c 128,-1,30
 833 369 833 369 895 369 c 0,31,32
 953 369 953 369 986.5 429 c 128,-1,33
 1020 489 1020 489 1020 585 c 0,34,35
 1020 687 1020 687 986.5 744.5 c 128,-1,36
 953 802 953 802 896 802 c 0,26,27
535 595 m 1,37,38
 477 723 477 723 434.5 768 c 128,-1,39
 392 813 392 813 342 813 c 0,40,41
 282 813 282 813 245.5 750.5 c 128,-1,42
 209 688 209 688 209 595 c 0,43,44
 209 496 209 496 245 438 c 128,-1,45
 281 380 281 380 343 380 c 0,46,47
 394 380 394 380 439.5 434 c 128,-1,48
 485 488 485 488 535 595 c 1,37,38
EndSplineSet
Validated: 1
EndChar

StartChar: plusminus
Encoding: 177 177 147
Width: 1229
GlyphClass: 2
Flags: W
LayerCount: 2
Fore
SplineSet
726 707 m 1,0,-1
 726 366 l 1,1,-1
 502 366 l 1,2,-1
 502 707 l 1,3,-1
 101 707 l 1,4,-1
 101 930 l 1,5,-1
 502 930 l 1,6,-1
 502 1270 l 1,7,-1
 726 1270 l 1,8,-1
 726 930 l 1,9,-1
 1128 930 l 1,10,-1
 1128 707 l 1,11,-1
 726 707 l 1,0,-1
101 0 m 1,12,-1
 101 223 l 1,13,-1
 1128 223 l 1,14,-1
 1128 0 l 1,15,-1
 101 0 l 1,12,-1
EndSplineSet
Validated: 1
EndChar

StartChar: lessequal
Encoding: 8804 8804 148
Width: 1229
GlyphClass: 2
Flags: W
LayerCount: 2
Fore
SplineSet
91 631 m 1,0,-1
 91 952 l 1,1,-1
 1117 1298 l 1,2,-1
 1117 1071 l 1,3,-1
 285 791 l 1,4,-1
 1117 512 l 1,5,-1
 1117 285 l 1,6,-1
 91 631 l 1,0,-1
91 0 m 1,7,-1
 91 223 l 1,8,-1
 1115 223 l 1,9,-1
 1115 0 l 1,10,-1
 91 0 l 1,7,-1
EndSplineSet
Validated: 1
EndChar

StartChar: greaterequal
Encoding: 8805 8805 149
Width: 1229
GlyphClass: 2
Flags: W
LayerCount: 2
Fore
SplineSet
111 285 m 1,0,-1
 111 512 l 1,1,-1
 943 791 l 1,2,-1
 111 1071 l 1,3,-1
 111 1298 l 1,4,-1
 1137 952 l 1,5,-1
 1137 631 l 1,6,-1
 111 285 l 1,0,-1
113 0 m 1,7,-1
 113 223 l 1,8,-1
 1137 223 l 1,9,-1
 1137 0 l 1,10,-1
 113 0 l 1,7,-1
EndSplineSet
Validated: 1
EndChar

StartChar: yen
Encoding: 165 165 150
Width: 1229
GlyphClass: 2
Flags: W
LayerCount: 2
Fore
SplineSet
811 691 m 1,0,-1
 1087 691 l 1,1,-1
 1087 545 l 1,2,-1
 749 545 l 1,3,-1
 749 383 l 1,4,-1
 1087 383 l 1,5,-1
 1087 236 l 1,6,-1
 749 236 l 1,7,-1
 749 0 l 1,8,-1
 477 0 l 1,9,-1
 477 236 l 1,10,-1
 141 236 l 1,11,-1
 141 383 l 1,12,-1
 477 383 l 1,13,-1
 477 545 l 1,14,-1
 141 545 l 1,15,-1
 141 691 l 1,16,-1
 417 691 l 1,17,-1
 33 1349 l 1,18,-1
 322 1349 l 1,19,-1
 612 813 l 1,20,-1
 906 1349 l 1,21,-1
 1195 1349 l 1,22,-1
 811 691 l 1,0,-1
EndSplineSet
Validated: 1
EndChar

StartChar: mu
Encoding: 181 181 151
Width: 1229
GlyphClass: 2
Flags: W
LayerCount: 2
Fore
SplineSet
834 0 m 1,0,1
 833 12 833 12 830.5 34 c 128,-1,2
 828 56 828 56 826 82.5 c 128,-1,3
 824 109 824 109 822.5 136 c 128,-1,4
 821 163 821 163 821 184 c 1,5,-1
 818 184 l 1,6,7
 740 -20 740 -20 572 -20 c 0,8,9
 520 -20 520 -20 476.5 4 c 128,-1,10
 433 28 433 28 410 70 c 1,11,-1
 406 70 l 1,12,13
 410 27 410 27 410 -45 c 2,14,-1
 410 -416 l 1,15,-1
 129 -416 l 1,16,-1
 129 1082 l 1,17,-1
 410 1082 l 1,18,-1
 410 477 l 2,19,20
 410 193 410 193 594 193 c 0,21,22
 691 193 691 193 752 276.5 c 128,-1,23
 813 360 813 360 813 504 c 2,24,-1
 813 1082 l 1,25,-1
 1094 1082 l 1,26,-1
 1094 242 l 2,27,28
 1094 112 1094 112 1102 0 c 1,29,-1
 834 0 l 1,0,1
EndSplineSet
Validated: 1
EndChar

StartChar: partialdiff
Encoding: 8706 8706 152
Width: 1229
GlyphClass: 2
Flags: W
LayerCount: 2
Fore
SplineSet
1137 937 m 0,0,1
 1137 809 1137 809 1108 653 c 128,-1,2
 1079 497 1079 497 1021.5 368 c 128,-1,3
 964 239 964 239 884 152 c 128,-1,4
 804 65 804 65 701 19 c 128,-1,5
 598 -27 598 -27 474 -27 c 0,6,7
 284 -27 284 -27 180.5 74.5 c 128,-1,8
 77 176 77 176 77 361 c 0,9,10
 77 479 77 479 117.5 602.5 c 128,-1,11
 158 726 158 726 227.5 816 c 128,-1,12
 297 906 297 906 390 954.5 c 128,-1,13
 483 1003 483 1003 597 1003 c 0,14,15
 700 1003 700 1003 780 957.5 c 128,-1,16
 860 912 860 912 897 838 c 1,17,-1
 903 838 l 1,18,19
 910 915 910 915 910 941 c 0,20,21
 910 1107 910 1107 835.5 1195.5 c 128,-1,22
 761 1284 761 1284 613 1284 c 0,23,24
 546 1284 546 1284 471 1259 c 128,-1,25
 396 1234 396 1234 344 1196 c 1,26,-1
 389 1404 l 1,27,28
 502 1477 502 1477 660 1477 c 0,29,30
 890 1477 890 1477 1013.5 1338 c 128,-1,31
 1137 1199 1137 1199 1137 937 c 0,0,1
859 663 m 1,32,33
 840 737 840 737 780 785.5 c 128,-1,34
 720 834 720 834 642 834 c 0,35,36
 553 834 553 834 479.5 773.5 c 128,-1,37
 406 713 406 713 360 597 c 128,-1,38
 314 481 314 481 314 365 c 0,39,40
 314 273 314 273 361.5 220.5 c 128,-1,41
 409 168 409 168 495 168 c 0,42,43
 624 168 624 168 724.5 306.5 c 128,-1,44
 825 445 825 445 859 663 c 1,32,33
EndSplineSet
Validated: 1
EndChar

StartChar: summation
Encoding: 8721 8721 153
Width: 1229
GlyphClass: 2
Flags: W
LayerCount: 2
Fore
SplineSet
22 -455 m 1,0,-1
 22 -295 l 1,1,-1
 628 451 l 1,2,-1
 42 1197 l 1,3,-1
 42 1349 l 1,4,-1
 1159 1349 l 1,5,-1
 1159 1122 l 1,6,-1
 413 1122 l 1,7,-1
 941 455 l 1,8,-1
 393 -227 l 1,9,-1
 1216 -227 l 1,10,-1
 1216 -455 l 1,11,-1
 22 -455 l 1,0,-1
EndSplineSet
Validated: 1
EndChar

StartChar: product
Encoding: 8719 8719 154
Width: 1229
GlyphClass: 2
Flags: W
LayerCount: 2
Fore
SplineSet
841 -455 m 1,0,-1
 841 1105 l 1,1,-1
 399 1105 l 1,2,-1
 399 -455 l 1,3,-1
 104 -455 l 1,4,-1
 104 1349 l 1,5,-1
 1123 1349 l 1,6,-1
 1123 -455 l 1,7,-1
 841 -455 l 1,0,-1
EndSplineSet
Validated: 1
EndChar

StartChar: integral
Encoding: 8747 8747 155
Width: 1229
GlyphClass: 2
Flags: W
LayerCount: 2
Fore
SplineSet
354 -455 m 0,0,1
 311 -455 311 -455 265 -448 c 128,-1,2
 219 -441 219 -441 199 -434 c 1,3,-1
 199 -217 l 1,4,5
 265 -242 265 -242 318 -242 c 0,6,7
 473 -242 473 -242 473 -45 c 2,8,-1
 473 1126 l 2,9,10
 473 1306 473 1306 579 1406.5 c 128,-1,11
 685 1507 685 1507 875 1507 c 0,12,13
 963 1507 963 1507 1030 1488 c 1,14,-1
 1030 1269 l 1,15,16
 980 1294 980 1294 911 1294 c 0,17,18
 834 1294 834 1294 794 1243.5 c 128,-1,19
 754 1193 754 1193 754 1099 c 2,20,-1
 754 -74 l 2,21,22
 754 -256 754 -256 648.5 -355.5 c 128,-1,23
 543 -455 543 -455 354 -455 c 0,0,1
EndSplineSet
Validated: 1
EndChar

StartChar: ordfeminine
Encoding: 170 170 156
Width: 1229
GlyphClass: 2
Flags: W
LayerCount: 2
Fore
SplineSet
445 643 m 0,0,1
 333 643 333 643 267.5 704 c 128,-1,2
 202 765 202 765 202 875 c 0,3,4
 202 991 202 991 284 1053.5 c 128,-1,5
 366 1116 366 1116 528 1118 c 2,6,-1
 697 1120 l 1,7,-1
 697 1168 l 2,8,9
 697 1305 697 1305 578 1305 c 0,10,11
 517 1305 517 1305 486.5 1278.5 c 128,-1,12
 456 1252 456 1252 449 1197 c 1,13,-1
 230 1208 l 1,14,15
 250 1319 250 1319 341 1380 c 128,-1,16
 432 1441 432 1441 576 1441 c 0,17,18
 732 1441 732 1441 819 1372.5 c 128,-1,19
 906 1304 906 1304 906 1171 c 2,20,-1
 906 898 l 2,21,22
 906 843 906 843 916.5 815 c 128,-1,23
 927 787 927 787 965 787 c 1,24,-1
 1021 792 l 1,25,-1
 1021 667 l 1,26,27
 954 646 954 646 885 646 c 0,28,29
 804 646 804 646 757 688 c 128,-1,30
 710 730 710 730 704 800 c 1,31,-1
 701 800 l 1,32,33
 618 643 618 643 445 643 c 0,0,1
527 794 m 0,34,35
 597 794 597 794 647 848.5 c 128,-1,36
 697 903 697 903 697 979 c 2,37,-1
 697 1010 l 1,38,-1
 591 1007 l 2,39,40
 490 1004 490 1004 454.5 976.5 c 128,-1,41
 419 949 419 949 419 891 c 0,42,43
 419 794 419 794 527 794 c 0,34,35
EndSplineSet
Validated: 1
EndChar

StartChar: ordmasculine
Encoding: 186 186 157
Width: 1229
GlyphClass: 2
Flags: W
LayerCount: 2
Fore
SplineSet
1003 1043 m 0,0,1
 1003 857 1003 857 898.5 750 c 128,-1,2
 794 643 794 643 610 643 c 0,3,4
 431 643 431 643 329 750.5 c 128,-1,5
 227 858 227 858 227 1043 c 0,6,7
 227 1230 227 1230 329.5 1335.5 c 128,-1,8
 432 1441 432 1441 615 1441 c 0,9,10
 801 1441 801 1441 902 1338 c 128,-1,11
 1003 1235 1003 1235 1003 1043 c 0,0,1
773 1043 m 0,12,13
 773 1163 773 1163 738 1220 c 128,-1,14
 703 1277 703 1277 617 1277 c 0,15,16
 532 1277 532 1277 493.5 1219.5 c 128,-1,17
 455 1162 455 1162 455 1043 c 0,18,19
 455 804 455 804 609 804 c 0,20,21
 696 804 696 804 734.5 862 c 128,-1,22
 773 920 773 920 773 1043 c 0,12,13
EndSplineSet
Validated: 1
EndChar

StartChar: Ohm
Encoding: 8486 8486 158
Width: 1229
GlyphClass: 2
Flags: W
LayerCount: 2
Fore
SplineSet
614 1143 m 256,0,1
 494 1143 494 1143 423 1040 c 128,-1,2
 352 937 352 937 352 754 c 0,3,4
 352 620 352 620 395.5 517 c 128,-1,5
 439 414 439 414 545 304 c 1,6,-1
 545 0 l 1,7,-1
 50 0 l 1,8,-1
 50 228 l 1,9,-1
 166 228 l 2,10,11
 230 228 230 228 340 217 c 1,12,13
 68 434 68 434 68 798 c 0,14,15
 68 967 68 967 139 1097.5 c 128,-1,16
 210 1228 210 1228 335.5 1299 c 128,-1,17
 461 1370 461 1370 614 1370 c 0,18,19
 766 1370 766 1370 892 1299 c 128,-1,20
 1018 1228 1018 1228 1089 1097 c 128,-1,21
 1160 966 1160 966 1160 798 c 0,22,23
 1160 434 1160 434 888 217 c 1,24,25
 1002 228 1002 228 1066 228 c 2,26,-1
 1178 228 l 1,27,-1
 1178 0 l 1,28,-1
 683 0 l 1,29,-1
 683 304 l 1,30,31
 789 414 789 414 832.5 516 c 128,-1,32
 876 618 876 618 876 754 c 0,33,34
 876 937 876 937 805 1040 c 128,-1,35
 734 1143 734 1143 614 1143 c 256,0,1
EndSplineSet
Validated: 1
EndChar

StartChar: ae
Encoding: 230 230 159
Width: 1229
GlyphClass: 2
Flags: W
AnchorPoint: "bottom" 580 -73 basechar 0
AnchorPoint: "top" 630 1174 basechar 0
LayerCount: 2
Fore
SplineSet
699 484 m 1,0,-1
 699 482 l 2,1,2
 699 333 699 333 743.5 246.5 c 128,-1,3
 788 160 788 160 864 160 c 0,4,5
 924 160 924 160 956 198 c 128,-1,6
 988 236 988 236 1004 301 c 1,7,-1
 1182 256 l 1,8,9
 1145 116 1145 116 1064.5 48 c 128,-1,10
 984 -20 984 -20 868 -20 c 0,11,12
 753 -20 753 -20 686.5 35 c 128,-1,13
 620 90 620 90 586 212 c 1,14,15
 536 94 536 94 457 37 c 128,-1,16
 378 -20 378 -20 278 -20 c 0,17,18
 155 -20 155 -20 87.5 66.5 c 128,-1,19
 20 153 20 153 20 302 c 0,20,21
 20 474 20 474 102 565.5 c 128,-1,22
 184 657 184 657 350 660 c 1,23,-1
 497 664 l 1,24,-1
 497 719 l 2,25,26
 497 812 497 812 467 866 c 128,-1,27
 437 920 437 920 381 920 c 0,28,29
 332 920 332 920 306.5 883 c 128,-1,30
 281 846 281 846 273 773 c 1,31,-1
 65 790 l 1,32,33
 104 1102 104 1102 380 1102 c 0,34,35
 556 1102 556 1102 627 963 c 1,36,37
 712 1102 712 1102 873 1102 c 0,38,39
 1039 1102 1039 1102 1123.5 960.5 c 128,-1,40
 1208 819 1208 819 1208 527 c 2,41,-1
 1208 484 l 1,42,-1
 699 484 l 1,0,-1
229 299 m 0,43,44
 229 235 229 235 249.5 198.5 c 128,-1,45
 270 162 270 162 308 162 c 0,46,47
 386 162 386 162 441.5 248 c 128,-1,48
 497 334 497 334 497 445 c 2,49,-1
 497 499 l 1,50,-1
 395 496 l 2,51,52
 302 493 302 493 265.5 446.5 c 128,-1,53
 229 400 229 400 229 299 c 0,43,44
859 924 m 0,54,55
 819 924 819 924 783 891.5 c 128,-1,56
 747 859 747 859 725 800.5 c 128,-1,57
 703 742 703 742 701 660 c 1,58,-1
 1002 660 l 1,59,60
 994 793 994 793 959.5 858.5 c 128,-1,61
 925 924 925 924 859 924 c 0,54,55
EndSplineSet
EndChar

StartChar: oslash
Encoding: 248 248 160
Width: 1229
GlyphClass: 2
Flags: W
LayerCount: 2
Fore
SplineSet
1137 542 m 0,0,1
 1137 273 1137 273 1001 126.5 c 128,-1,2
 865 -20 865 -20 610 -20 c 0,3,4
 410 -20 410 -20 282 77 c 1,5,-1
 197 -20 l 1,6,-1
 101 58 l 1,7,-1
 196 165 l 1,8,9
 92 308 92 308 92 542 c 0,10,11
 92 810 92 810 227 956 c 128,-1,12
 362 1102 362 1102 616 1102 c 0,13,14
 821 1102 821 1102 945 1015 c 1,15,-1
 1024 1104 l 1,16,-1
 1122 1026 l 1,17,-1
 1035 928 l 1,18,19
 1137 788 1137 788 1137 542 c 0,0,1
843 542 m 0,20,21
 843 625 843 625 832 698 c 1,22,-1
 443 259 l 1,23,24
 498 172 498 172 607 172 c 0,25,26
 731 172 731 172 787 259.5 c 128,-1,27
 843 347 843 347 843 542 c 0,20,21
387 542 m 0,28,29
 387 458 387 458 397 394 c 1,30,-1
 784 832 l 1,31,32
 731 909 731 909 620 909 c 0,33,34
 496 909 496 909 441.5 821 c 128,-1,35
 387 733 387 733 387 542 c 0,28,29
EndSplineSet
Validated: 1
EndChar

StartChar: questiondown
Encoding: 191 191 161
Width: 1229
GlyphClass: 2
Flags: W
LayerCount: 2
Fore
SplineSet
124 96 m 0,0,1
 124 161 124 161 146.5 215 c 128,-1,2
 169 269 169 269 211.5 316.5 c 128,-1,3
 254 364 254 364 407 474 c 0,4,5
 539 570 539 570 544 676 c 1,6,-1
 811 676 l 1,7,8
 805 574 805 574 753 493 c 128,-1,9
 701 412 701 412 602 343 c 1,10,11
 489 266 489 266 448 216.5 c 128,-1,12
 407 167 407 167 407 108 c 0,13,14
 407 31 407 31 468 -15.5 c 128,-1,15
 529 -62 529 -62 628 -62 c 0,16,17
 729 -62 729 -62 797.5 -3 c 128,-1,18
 866 56 866 56 878 153 c 1,19,-1
 1163 141 l 1,20,21
 1135 -63 1135 -63 995 -175.5 c 128,-1,22
 855 -288 855 -288 632 -288 c 0,23,24
 400 -288 400 -288 262 -184 c 128,-1,25
 124 -80 124 -80 124 96 c 0,0,1
819 1082 m 1,26,-1
 819 812 l 1,27,-1
 530 812 l 1,28,-1
 530 1082 l 1,29,-1
 819 1082 l 1,26,-1
EndSplineSet
Validated: 1
EndChar

StartChar: exclamdown
Encoding: 161 161 162
Width: 1229
GlyphClass: 2
Flags: W
LayerCount: 2
Fore
SplineSet
500 653 m 1,0,-1
 730 653 l 1,1,-1
 762 -270 l 1,2,-1
 468 -270 l 1,3,-1
 500 653 l 1,0,-1
762 1079 m 1,4,-1
 762 809 l 1,5,-1
 474 809 l 1,6,-1
 474 1079 l 1,7,-1
 762 1079 l 1,4,-1
EndSplineSet
Validated: 1
EndChar

StartChar: logicalnot
Encoding: 172 172 163
Width: 1229
GlyphClass: 2
Flags: W
LayerCount: 2
Fore
SplineSet
887 141 m 1,0,-1
 887 569 l 1,1,-1
 84 569 l 1,2,-1
 84 793 l 1,3,-1
 1111 793 l 1,4,-1
 1111 141 l 1,5,-1
 887 141 l 1,0,-1
EndSplineSet
Validated: 1
EndChar

StartChar: radical
Encoding: 8730 8730 164
Width: 1229
GlyphClass: 2
Flags: W
LayerCount: 2
Fore
SplineSet
682 -25 m 1,0,-1
 514 -25 l 1,1,-1
 244 729 l 1,2,-1
 60 729 l 1,3,-1
 60 895 l 1,4,-1
 371 895 l 1,5,-1
 590 260 l 1,6,-1
 1002 1620 l 1,7,-1
 1188 1620 l 1,8,-1
 682 -25 l 1,0,-1
EndSplineSet
Validated: 1
EndChar

StartChar: florin
Encoding: 402 402 165
Width: 1229
GlyphClass: 2
Flags: W
LayerCount: 2
Fore
SplineSet
1066 1158 m 1,0,1
 1039 1167 1039 1167 991 1173.5 c 128,-1,2
 943 1180 943 1180 911 1180 c 0,3,4
 831 1180 831 1180 796 1153 c 128,-1,5
 761 1126 761 1126 747 1053 c 2,6,-1
 727 946 l 1,7,-1
 1029 946 l 1,8,-1
 993 756 l 1,9,-1
 690 756 l 1,10,-1
 458 -425 l 1,11,-1
 177 -425 l 1,12,-1
 409 756 l 1,13,-1
 201 756 l 1,14,-1
 238 946 l 1,15,-1
 446 946 l 1,16,-1
 473 1081 l 1,17,18
 500 1231 500 1231 598 1300.5 c 128,-1,19
 696 1370 696 1370 871 1370 c 0,20,21
 943 1370 943 1370 1015.5 1357.5 c 128,-1,22
 1088 1345 1088 1345 1113 1335 c 1,23,-1
 1066 1158 l 1,0,1
EndSplineSet
Validated: 1
EndChar

StartChar: approxequal
Encoding: 8776 8776 166
Width: 1229
GlyphClass: 2
Flags: W
LayerCount: 2
Fore
SplineSet
866 756 m 0,0,1
 791 756 791 756 718.5 776.5 c 128,-1,2
 646 797 646 797 571 823 c 0,3,4
 439 870 439 870 350 870 c 0,5,6
 283 870 283 870 224 850.5 c 128,-1,7
 165 831 165 831 95 782 c 1,8,-1
 95 995 l 1,9,10
 205 1079 205 1079 366 1079 c 0,11,12
 419 1079 419 1079 481 1066.5 c 128,-1,13
 543 1054 543 1054 685 1006 c 1,14,15
 806 963 806 963 885 963 c 0,16,17
 1019 963 1019 963 1133 1055 c 1,18,-1
 1133 836 l 1,19,20
 1070 791 1070 791 1010 773.5 c 128,-1,21
 950 756 950 756 866 756 c 0,0,1
866 274 m 0,22,23
 791 274 791 274 718.5 296 c 128,-1,24
 646 318 646 318 571 344 c 0,25,26
 442 389 442 389 350 389 c 0,27,28
 279 389 279 389 219.5 367.5 c 128,-1,29
 160 346 160 346 95 301 c 1,30,-1
 95 514 l 1,31,32
 208 598 208 598 366 598 c 0,33,34
 449 598 449 598 529 575 c 128,-1,35
 609 552 609 552 685 526 c 1,36,37
 787 494 787 494 822 487.5 c 128,-1,38
 857 481 857 481 885 481 c 0,39,40
 1019 481 1019 481 1133 573 c 1,41,-1
 1133 354 l 1,42,43
 1069 310 1069 310 1010.5 292 c 128,-1,44
 952 274 952 274 866 274 c 0,22,23
EndSplineSet
Validated: 1
EndChar

StartChar: Delta
Encoding: 8710 8710 167
Width: 1229
GlyphClass: 2
Flags: W
LayerCount: 2
Fore
SplineSet
18 226 m 1,0,-1
 446 1349 l 1,1,-1
 791 1349 l 1,2,-1
 1212 226 l 1,3,-1
 1212 0 l 1,4,-1
 18 0 l 1,5,-1
 18 226 l 1,0,-1
918 244 m 1,6,-1
 695 862 l 1,7,8
 651 1000 651 1000 625 1120 c 1,9,-1
 616 1159 l 1,10,11
 615 1149 615 1149 587.5 1041 c 128,-1,12
 560 933 560 933 537 860 c 1,13,-1
 317 244 l 1,14,-1
 918 244 l 1,6,-1
EndSplineSet
Validated: 1
EndChar

StartChar: guillemotleft
Encoding: 171 171 168
Width: 1229
GlyphClass: 2
Flags: W
LayerCount: 2
Fore
SplineSet
857 141 m 1,0,-1
 601 502 l 1,1,-1
 601 573 l 1,2,-1
 857 940 l 1,3,-1
 1095 940 l 1,4,-1
 1095 903 l 1,5,-1
 841 537 l 1,6,-1
 1097 176 l 1,7,-1
 1097 141 l 1,8,-1
 857 141 l 1,0,-1
390 141 m 1,9,-1
 132 502 l 1,10,-1
 132 573 l 1,11,-1
 390 940 l 1,12,-1
 626 940 l 1,13,-1
 626 903 l 1,14,-1
 372 537 l 1,15,-1
 628 176 l 1,16,-1
 628 141 l 1,17,-1
 390 141 l 1,9,-1
EndSplineSet
Validated: 1
EndChar

StartChar: guillemotright
Encoding: 187 187 169
Width: 1229
GlyphClass: 2
Flags: W
LayerCount: 2
Fore
SplineSet
132 141 m 1,0,-1
 132 176 l 1,1,-1
 388 537 l 1,2,-1
 134 903 l 1,3,-1
 134 940 l 1,4,-1
 372 940 l 1,5,-1
 628 573 l 1,6,-1
 628 502 l 1,7,-1
 372 141 l 1,8,-1
 132 141 l 1,0,-1
601 141 m 1,9,-1
 601 176 l 1,10,-1
 857 537 l 1,11,-1
 603 903 l 1,12,-1
 603 940 l 1,13,-1
 839 940 l 1,14,-1
 1097 573 l 1,15,-1
 1097 502 l 1,16,-1
 839 141 l 1,17,-1
 601 141 l 1,9,-1
EndSplineSet
Validated: 1
EndChar

StartChar: ellipsis
Encoding: 8230 8230 170
Width: 1229
GlyphClass: 2
Flags: W
LayerCount: 2
Fore
SplineSet
921 0 m 1,0,-1
 921 305 l 1,1,-1
 1179 305 l 1,2,-1
 1179 0 l 1,3,-1
 921 0 l 1,0,-1
491 0 m 1,4,-1
 491 305 l 1,5,-1
 747 305 l 1,6,-1
 747 0 l 1,7,-1
 491 0 l 1,4,-1
59 0 m 1,8,-1
 59 305 l 1,9,-1
 317 305 l 1,10,-1
 317 0 l 1,11,-1
 59 0 l 1,8,-1
EndSplineSet
Validated: 1
EndChar

StartChar: OE
Encoding: 338 338 174
Width: 1229
GlyphClass: 2
Flags: W
LayerCount: 2
Fore
SplineSet
599 0 m 1,0,-1
 521 -5 l 1,1,2
 266 -5 266 -5 148 164 c 128,-1,3
 30 333 30 333 30 681 c 0,4,5
 30 1031 30 1031 148.5 1193 c 128,-1,6
 267 1355 267 1355 523 1355 c 0,7,8
 561 1355 561 1355 612 1349 c 1,9,-1
 1170 1349 l 1,10,-1
 1170 1147 l 1,11,-1
 857 1147 l 1,12,-1
 857 792 l 1,13,-1
 1144 792 l 1,14,-1
 1144 592 l 1,15,-1
 857 592 l 1,16,-1
 857 202 l 1,17,-1
 1211 202 l 1,18,-1
 1211 0 l 1,19,-1
 599 0 l 1,0,-1
522 190 m 0,20,21
 578 190 578 190 606 196 c 1,22,-1
 606 1153 l 1,23,24
 568 1159 568 1159 523 1159 c 0,25,26
 399 1159 399 1159 345.5 1044 c 128,-1,27
 292 929 292 929 292 681 c 0,28,29
 292 431 292 431 348.5 310.5 c 128,-1,30
 405 190 405 190 522 190 c 0,20,21
EndSplineSet
Validated: 1
EndChar

StartChar: oe
Encoding: 339 339 175
Width: 1229
GlyphClass: 2
Flags: W
LayerCount: 2
Fore
SplineSet
732 484 m 1,0,1
 732 337 732 337 771 253.5 c 128,-1,2
 810 170 810 170 880 170 c 0,3,4
 931 170 931 170 957 203 c 128,-1,5
 983 236 983 236 997 301 c 1,6,-1
 1175 256 l 1,7,8
 1141 116 1141 116 1065 48 c 128,-1,9
 989 -20 989 -20 882 -20 c 0,10,11
 700 -20 700 -20 619 163 c 1,12,13
 536 -20 536 -20 353 -20 c 0,14,15
 196 -20 196 -20 112 124.5 c 128,-1,16
 28 269 28 269 28 542 c 0,17,18
 28 821 28 821 113 961.5 c 128,-1,19
 198 1102 198 1102 360 1102 c 0,20,21
 547 1102 547 1102 626 925 c 1,22,23
 711 1102 711 1102 885 1102 c 0,24,25
 1204 1102 1204 1102 1204 527 c 2,26,-1
 1204 484 l 1,27,-1
 732 484 l 1,0,1
523 542 m 0,28,29
 523 731 523 731 487 822.5 c 128,-1,30
 451 914 451 914 373 914 c 0,31,32
 300 914 300 914 268.5 821.5 c 128,-1,33
 237 729 237 729 237 542 c 0,34,35
 237 354 237 354 268.5 261 c 128,-1,36
 300 168 300 168 367 168 c 0,37,38
 449 168 449 168 486 264 c 128,-1,39
 523 360 523 360 523 542 c 0,28,29
875 914 m 0,40,41
 740 914 740 914 734 660 c 1,42,-1
 998 660 l 1,43,44
 990 800 990 800 963 857 c 128,-1,45
 936 914 936 914 875 914 c 0,40,41
EndSplineSet
Validated: 1
EndChar

StartChar: endash
Encoding: 8211 8211 176
Width: 1229
GlyphClass: 2
Flags: W
LayerCount: 2
Fore
SplineSet
162 418 m 1,0,-1
 162 621 l 1,1,-1
 1066 621 l 1,2,-1
 1066 418 l 1,3,-1
 162 418 l 1,0,-1
EndSplineSet
Validated: 1
EndChar

StartChar: emdash
Encoding: 8212 8212 177
Width: 1229
GlyphClass: 2
Flags: W
LayerCount: 2
Fore
SplineSet
-10 418 m 1,0,-1
 -10 621 l 1,1,-1
 1238 621 l 1,2,-1
 1238 418 l 1,3,-1
 -10 418 l 1,0,-1
EndSplineSet
Validated: 1
EndChar

StartChar: quotedblleft
Encoding: 8220 8220 178
Width: 1229
GlyphClass: 2
Flags: W
LayerCount: 2
Fore
SplineSet
631 1484 m 1,0,-1
 462 862 l 1,1,-1
 137 862 l 1,2,-1
 448 1484 l 1,3,-1
 631 1484 l 1,0,-1
1090 1484 m 1,4,-1
 921 862 l 1,5,-1
 596 862 l 1,6,-1
 907 1484 l 1,7,-1
 1090 1484 l 1,4,-1
EndSplineSet
Validated: 1
EndChar

StartChar: quotedblright
Encoding: 8221 8221 179
Width: 1229
GlyphClass: 2
Flags: W
LayerCount: 2
Fore
SplineSet
597 862 m 1,0,-1
 766 1484 l 1,1,-1
 1091 1484 l 1,2,-1
 780 862 l 1,3,-1
 597 862 l 1,0,-1
138 862 m 1,4,-1
 307 1484 l 1,5,-1
 632 1484 l 1,6,-1
 321 862 l 1,7,-1
 138 862 l 1,4,-1
EndSplineSet
Validated: 1
EndChar

StartChar: quoteleft
Encoding: 8216 8216 180
Width: 1229
GlyphClass: 2
Flags: W
LayerCount: 2
Fore
SplineSet
861 1484 m 1,0,-1
 692 862 l 1,1,-1
 367 862 l 1,2,-1
 678 1484 l 1,3,-1
 861 1484 l 1,0,-1
EndSplineSet
Validated: 1
EndChar

StartChar: quoteright
Encoding: 8217 8217 181
Width: 1229
GlyphClass: 2
Flags: W
LayerCount: 2
Fore
SplineSet
369 862 m 1,0,-1
 538 1484 l 1,1,-1
 863 1484 l 1,2,-1
 552 862 l 1,3,-1
 369 862 l 1,0,-1
EndSplineSet
Validated: 1
EndChar

StartChar: divide
Encoding: 247 247 182
Width: 1229
GlyphClass: 2
Flags: W
LayerCount: 2
Fore
SplineSet
494 961 m 1,0,-1
 494 1194 l 1,1,-1
 732 1194 l 1,2,-1
 732 961 l 1,3,-1
 494 961 l 1,0,-1
101 569 m 1,4,-1
 101 793 l 1,5,-1
 1128 793 l 1,6,-1
 1128 569 l 1,7,-1
 101 569 l 1,4,-1
494 170 m 1,8,-1
 494 403 l 1,9,-1
 732 403 l 1,10,-1
 732 170 l 1,11,-1
 494 170 l 1,8,-1
EndSplineSet
Validated: 1
EndChar

StartChar: lozenge
Encoding: 9674 9674 183
Width: 1229
GlyphClass: 2
Flags: W
LayerCount: 2
Fore
SplineSet
665 0 m 1,0,-1
 561 0 l 1,1,-1
 110 721 l 1,2,-1
 561 1446 l 1,3,-1
 665 1446 l 1,4,-1
 1119 723 l 1,5,-1
 665 0 l 1,0,-1
614 1204 m 1,6,-1
 325 723 l 1,7,-1
 614 229 l 1,8,-1
 903 723 l 1,9,-1
 614 1204 l 1,6,-1
EndSplineSet
Validated: 1
EndChar

StartChar: fraction
Encoding: 8260 8260 186
Width: 1229
GlyphClass: 2
Flags: W
LayerCount: 2
Fore
SplineSet
329 0 m 1,0,-1
 167 0 l 1,1,-1
 905 1349 l 1,2,-1
 1066 1349 l 1,3,-1
 329 0 l 1,0,-1
EndSplineSet
Validated: 1
EndChar

StartChar: Euro
Encoding: 8364 8364 187
Width: 1229
GlyphClass: 2
Flags: W
LayerCount: 2
Fore
SplineSet
893 463 m 1,0,-1
 520 463 l 1,1,2
 547 342 547 342 610 276.5 c 128,-1,3
 673 211 673 211 769 211 c 0,4,5
 848 211 848 211 913.5 241.5 c 128,-1,6
 979 272 979 272 1047 326 c 1,7,-1
 1178 142 l 1,8,9
 1090 61 1090 61 986 20.5 c 128,-1,10
 882 -20 882 -20 747 -20 c 0,11,12
 532 -20 532 -20 394 104.5 c 128,-1,13
 256 229 256 229 219 460 c 1,14,-1
 71 460 l 1,15,-1
 71 604 l 1,16,-1
 202 604 l 1,17,18
 199 674 199 674 199 679 c 2,19,-1
 202 758 l 1,20,-1
 71 758 l 1,21,-1
 71 900 l 1,22,-1
 218 900 l 1,23,24
 254 1125 254 1125 390.5 1247.5 c 128,-1,25
 527 1370 527 1370 749 1370 c 0,26,27
 994 1370 994 1370 1161 1228 c 1,28,-1
 1030 1026 l 1,29,30
 969 1075 969 1075 903 1107 c 128,-1,31
 837 1139 837 1139 760 1139 c 0,32,33
 667 1139 667 1139 607 1077 c 128,-1,34
 547 1015 547 1015 523 898 c 1,35,-1
 893 898 l 1,36,-1
 893 757 l 1,37,-1
 501 757 l 1,38,39
 498 736 498 736 498 679 c 0,40,41
 498 637 498 637 502 605 c 1,42,-1
 893 605 l 1,43,-1
 893 463 l 1,0,-1
EndSplineSet
Validated: 1
EndChar

StartChar: guilsinglleft
Encoding: 8249 8249 188
Width: 1229
GlyphClass: 2
Flags: W
LayerCount: 2
Fore
SplineSet
614 141 m 1,0,-1
 356 502 l 1,1,-1
 356 573 l 1,2,-1
 614 940 l 1,3,-1
 850 940 l 1,4,-1
 850 903 l 1,5,-1
 596 537 l 1,6,-1
 852 176 l 1,7,-1
 852 141 l 1,8,-1
 614 141 l 1,0,-1
EndSplineSet
Validated: 1
EndChar

StartChar: guilsinglright
Encoding: 8250 8250 189
Width: 1229
GlyphClass: 2
Flags: W
LayerCount: 2
Fore
SplineSet
376 141 m 1,0,-1
 376 176 l 1,1,-1
 632 537 l 1,2,-1
 378 903 l 1,3,-1
 378 940 l 1,4,-1
 614 940 l 1,5,-1
 872 573 l 1,6,-1
 872 502 l 1,7,-1
 614 141 l 1,8,-1
 376 141 l 1,0,-1
EndSplineSet
Validated: 1
EndChar

StartChar: fi
Encoding: 64257 64257 190
Width: 1229
GlyphClass: 2
Flags: W
LayerCount: 2
Fore
SplineSet
453 892 m 1,0,-1
 453 0 l 1,1,-1
 173 0 l 1,2,-1
 173 892 l 1,3,-1
 27 892 l 1,4,-1
 27 1082 l 1,5,-1
 173 1082 l 1,6,-1
 173 1195 l 2,7,8
 173 1351 173 1351 258 1432.5 c 128,-1,9
 343 1514 343 1514 495 1514 c 0,10,11
 598 1514 598 1514 702 1486 c 1,12,-1
 702 1302 l 1,13,14
 619 1321 619 1321 557 1321 c 0,15,16
 502 1321 502 1321 477.5 1286.5 c 128,-1,17
 453 1252 453 1252 453 1169 c 2,18,-1
 453 1082 l 1,19,-1
 676 1082 l 1,20,-1
 676 892 l 1,21,-1
 453 892 l 1,0,-1
1089 0 m 1,22,-1
 808 0 l 1,23,-1
 808 1082 l 1,24,-1
 1089 1082 l 1,25,-1
 1089 0 l 1,22,-1
808 1277 m 1,26,-1
 808 1484 l 1,27,-1
 1089 1484 l 1,28,-1
 1089 1277 l 1,29,-1
 808 1277 l 1,26,-1
EndSplineSet
Validated: 1
EndChar

StartChar: fl
Encoding: 64258 64258 191
Width: 1229
GlyphClass: 2
Flags: W
LayerCount: 2
Fore
SplineSet
453 892 m 1,0,-1
 453 0 l 1,1,-1
 173 0 l 1,2,-1
 173 892 l 1,3,-1
 27 892 l 1,4,-1
 27 1082 l 1,5,-1
 173 1082 l 1,6,-1
 173 1195 l 2,7,8
 173 1351 173 1351 258 1432.5 c 128,-1,9
 343 1514 343 1514 495 1514 c 0,10,11
 598 1514 598 1514 702 1486 c 1,12,-1
 702 1302 l 1,13,14
 619 1321 619 1321 557 1321 c 0,15,16
 502 1321 502 1321 477.5 1286.5 c 128,-1,17
 453 1252 453 1252 453 1169 c 2,18,-1
 453 1082 l 1,19,-1
 676 1082 l 1,20,-1
 676 892 l 1,21,-1
 453 892 l 1,0,-1
808 0 m 1,22,-1
 808 1484 l 1,23,-1
 1089 1484 l 1,24,-1
 1089 0 l 1,25,-1
 808 0 l 1,22,-1
EndSplineSet
Validated: 1
EndChar

StartChar: daggerdbl
Encoding: 8225 8225 192
Width: 1229
GlyphClass: 2
Flags: W
LayerCount: 2
Fore
SplineSet
513 980 m 1,0,-1
 173 953 l 1,1,-1
 173 1157 l 1,2,-1
 513 1128 l 1,3,-1
 497 1484 l 1,4,-1
 712 1484 l 1,5,-1
 696 1128 l 1,6,-1
 1057 1157 l 1,7,-1
 1057 953 l 1,8,-1
 696 980 l 1,9,-1
 670 635 l 1,10,-1
 696 293 l 1,11,-1
 1056 320 l 1,12,-1
 1056 116 l 1,13,-1
 696 145 l 1,14,-1
 712 -211 l 1,15,-1
 497 -211 l 1,16,-1
 513 145 l 1,17,-1
 172 116 l 1,18,-1
 172 320 l 1,19,-1
 513 293 l 1,20,-1
 539 635 l 1,21,-1
 513 980 l 1,0,-1
EndSplineSet
Validated: 1
EndChar

StartChar: bulletoperator
Encoding: 8729 8729 193
Width: 1229
GlyphClass: 2
Flags: W
LayerCount: 2
Fore
SplineSet
470 417 m 1,0,-1
 470 722 l 1,1,-1
 758 722 l 1,2,-1
 758 417 l 1,3,-1
 470 417 l 1,0,-1
EndSplineSet
Validated: 1
EndChar

StartChar: quotesinglbase
Encoding: 8218 8218 194
Width: 1229
GlyphClass: 2
Flags: W
LayerCount: 2
Fore
SplineSet
319 -363 m 1,0,-1
 488 259 l 1,1,-1
 813 259 l 1,2,-1
 502 -363 l 1,3,-1
 319 -363 l 1,0,-1
EndSplineSet
Validated: 1
EndChar

StartChar: quotedblbase
Encoding: 8222 8222 195
Width: 1229
GlyphClass: 2
Flags: W
LayerCount: 2
Fore
SplineSet
597 -364 m 1,0,-1
 766 258 l 1,1,-1
 1091 258 l 1,2,-1
 780 -364 l 1,3,-1
 597 -364 l 1,0,-1
138 -364 m 1,4,-1
 307 258 l 1,5,-1
 632 258 l 1,6,-1
 321 -364 l 1,7,-1
 138 -364 l 1,4,-1
EndSplineSet
Validated: 1
EndChar

StartChar: perthousand
Encoding: 8240 8240 196
Width: 1229
GlyphClass: 2
Flags: W
LayerCount: 2
Fore
SplineSet
164 429 m 1,0,-1
 4 429 l 1,1,-1
 605 1028 l 1,2,-1
 767 1028 l 1,3,-1
 164 429 l 1,0,-1
236 1411 m 0,4,5
 353 1411 353 1411 408.5 1336.5 c 128,-1,6
 464 1262 464 1262 464 1115 c 0,7,8
 464 966 464 966 404.5 890 c 128,-1,9
 345 814 345 814 232 814 c 0,10,11
 116 814 116 814 58 891 c 128,-1,12
 0 968 0 968 0 1115 c 0,13,14
 0 1263 0 1263 57 1337 c 128,-1,15
 114 1411 114 1411 236 1411 c 0,4,5
314 1115 m 0,16,17
 314 1210 314 1210 297 1246.5 c 128,-1,18
 280 1283 280 1283 235 1283 c 0,19,20
 189 1283 189 1283 169.5 1240.5 c 128,-1,21
 150 1198 150 1198 150 1115 c 0,22,23
 150 1034 150 1034 169.5 990.5 c 128,-1,24
 189 947 189 947 234 947 c 0,25,26
 274 947 274 947 294 991 c 128,-1,27
 314 1035 314 1035 314 1115 c 0,16,17
495 597 m 0,28,29
 612 597 612 597 667.5 522.5 c 128,-1,30
 723 448 723 448 723 301 c 0,31,32
 723 152 723 152 663.5 76 c 128,-1,33
 604 0 604 0 491 0 c 0,34,35
 375 0 375 0 317 77 c 128,-1,36
 259 154 259 154 259 301 c 0,37,38
 259 449 259 449 316 523 c 128,-1,39
 373 597 373 597 495 597 c 0,28,29
573 301 m 0,40,41
 573 396 573 396 556 432.5 c 128,-1,42
 539 469 539 469 494 469 c 0,43,44
 448 469 448 469 428.5 426.5 c 128,-1,45
 409 384 409 384 409 301 c 0,46,47
 409 220 409 220 428.5 176.5 c 128,-1,48
 448 133 448 133 493 133 c 0,49,50
 533 133 533 133 553 177 c 128,-1,51
 573 221 573 221 573 301 c 0,40,41
1000 597 m 0,52,53
 1117 597 1117 597 1172.5 522.5 c 128,-1,54
 1228 448 1228 448 1228 301 c 0,55,56
 1228 152 1228 152 1168.5 76 c 128,-1,57
 1109 0 1109 0 996 0 c 0,58,59
 880 0 880 0 822 77 c 128,-1,60
 764 154 764 154 764 301 c 0,61,62
 764 449 764 449 821 523 c 128,-1,63
 878 597 878 597 1000 597 c 0,52,53
1078 301 m 0,64,65
 1078 396 1078 396 1061 432.5 c 128,-1,66
 1044 469 1044 469 999 469 c 0,67,68
 953 469 953 469 933.5 426.5 c 128,-1,69
 914 384 914 384 914 301 c 0,70,71
 914 220 914 220 933.5 176.5 c 128,-1,72
 953 133 953 133 998 133 c 0,73,74
 1038 133 1038 133 1058 177 c 128,-1,75
 1078 221 1078 221 1078 301 c 0,64,65
EndSplineSet
Validated: 1
EndChar

StartChar: dotlessi
Encoding: 305 305 212
Width: 1229
GlyphClass: 2
Flags: W
LayerCount: 2
Fore
SplineSet
794 190 m 1,0,-1
 1147 190 l 1,1,-1
 1147 0 l 1,2,-1
 118 0 l 1,3,-1
 118 190 l 1,4,-1
 513 190 l 1,5,-1
 513 892 l 1,6,-1
 223 892 l 1,7,-1
 223 1082 l 1,8,-1
 794 1082 l 1,9,-1
 794 190 l 1,0,-1
EndSplineSet
Validated: 1
EndChar

StartChar: circumflex
Encoding: 710 710 213
Width: 1229
GlyphClass: 2
Flags: W
LayerCount: 2
Fore
SplineSet
983 1211 m 1,0,-1
 983 1183 l 1,1,-1
 824 1183 l 1,2,-1
 621 1317 l 1,3,-1
 617 1317 l 1,4,-1
 406 1183 l 1,5,-1
 246 1183 l 1,6,-1
 246 1211 l 1,7,-1
 504 1461 l 1,8,-1
 733 1461 l 1,9,-1
 983 1211 l 1,0,-1
EndSplineSet
Validated: 1
EndChar

StartChar: tilde
Encoding: 732 732 214
Width: 1229
GlyphClass: 2
Flags: W
LayerCount: 2
Fore
SplineSet
781 1183 m 0,0,1
 737 1183 737 1183 692.5 1200.5 c 128,-1,2
 648 1218 648 1218 606 1239.5 c 128,-1,3
 564 1261 564 1261 526.5 1278.5 c 128,-1,4
 489 1296 489 1296 459 1296 c 0,5,6
 414 1296 414 1296 392 1272.5 c 128,-1,7
 370 1249 370 1249 361 1183 c 1,8,-1
 224 1183 l 1,9,10
 236 1339 236 1339 291.5 1402.5 c 128,-1,11
 347 1466 347 1466 449 1466 c 0,12,13
 494 1466 494 1466 539 1448.5 c 128,-1,14
 584 1431 584 1431 626 1409.5 c 128,-1,15
 668 1388 668 1388 704.5 1370.5 c 128,-1,16
 741 1353 741 1353 770 1353 c 0,17,18
 817 1353 817 1353 839 1379.5 c 128,-1,19
 861 1406 861 1406 869 1466 c 1,20,-1
 1004 1466 l 1,21,22
 996 1355 996 1355 970 1298 c 128,-1,23
 944 1241 944 1241 896.5 1212 c 128,-1,24
 849 1183 849 1183 781 1183 c 0,0,1
EndSplineSet
Validated: 1
EndChar

StartChar: firsttonechinese
Encoding: 713 713 215
Width: 1229
GlyphClass: 2
Flags: W
LayerCount: 2
Fore
SplineSet
308 1371 m 1,0,-1
 920 1371 l 1,1,-1
 920 1203 l 1,2,-1
 308 1203 l 1,3,-1
 308 1371 l 1,0,-1
EndSplineSet
Validated: 1
EndChar

StartChar: breve
Encoding: 728 728 216
Width: 1229
GlyphClass: 2
Flags: W
LayerCount: 2
Fore
SplineSet
612 1183 m 0,0,1
 451 1183 451 1183 361 1255.5 c 128,-1,2
 271 1328 271 1328 260 1461 c 1,3,-1
 423 1461 l 1,4,5
 438 1340 438 1340 614 1340 c 0,6,7
 702 1340 702 1340 746 1369 c 128,-1,8
 790 1398 790 1398 804 1461 c 1,9,-1
 968 1461 l 1,10,11
 934 1183 934 1183 612 1183 c 0,0,1
EndSplineSet
Validated: 1
EndChar

StartChar: dotaccent
Encoding: 729 729 217
Width: 1229
GlyphClass: 2
Flags: W
LayerCount: 2
Fore
SplineSet
474 1267 m 1,0,-1
 474 1474 l 1,1,-1
 755 1474 l 1,2,-1
 755 1267 l 1,3,-1
 474 1267 l 1,0,-1
EndSplineSet
Validated: 1
EndChar

StartChar: ring
Encoding: 730 730 218
Width: 1229
GlyphClass: 2
Flags: W
LayerCount: 2
Fore
SplineSet
856 1348 m 0,0,1
 856 1261 856 1261 790.5 1204.5 c 128,-1,2
 725 1148 725 1148 614 1148 c 0,3,4
 502 1148 502 1148 437 1204.5 c 128,-1,5
 372 1261 372 1261 372 1348 c 0,6,7
 372 1437 372 1437 438.5 1492 c 128,-1,8
 505 1547 505 1547 614 1547 c 0,9,10
 725 1547 725 1547 790.5 1491.5 c 128,-1,11
 856 1436 856 1436 856 1348 c 0,0,1
717 1348 m 256,12,13
 717 1380 717 1380 689 1399.5 c 128,-1,14
 661 1419 661 1419 614 1419 c 0,15,16
 568 1419 568 1419 539 1400 c 128,-1,17
 510 1381 510 1381 510 1348 c 256,18,19
 510 1315 510 1315 539 1296 c 128,-1,20
 568 1277 568 1277 614 1277 c 256,21,22
 660 1277 660 1277 688.5 1296.5 c 128,-1,23
 717 1316 717 1316 717 1348 c 256,12,13
EndSplineSet
Validated: 1
EndChar

StartChar: cedilla
Encoding: 184 184 219
Width: 1229
GlyphClass: 2
Flags: W
LayerCount: 2
Fore
SplineSet
493 -255 m 0,0,1
 493 -349 493 -349 415 -397 c 128,-1,2
 337 -445 337 -445 190 -445 c 0,3,4
 145 -445 145 -445 89 -439 c 1,5,-1
 89 -321 l 1,6,7
 124 -328 124 -328 173 -328 c 0,8,9
 310 -328 310 -328 310 -259 c 0,10,11
 310 -224 310 -224 282 -207 c 128,-1,12
 254 -190 254 -190 188 -190 c 0,13,14
 150 -190 150 -190 136 -192 c 1,15,-1
 205 0 l 1,16,-1
 348 0 l 1,17,-1
 308 -102 l 1,18,19
 402 -107 402 -107 447.5 -148 c 128,-1,20
 493 -189 493 -189 493 -255 c 0,0,1
EndSplineSet
Validated: 1
EndChar

StartChar: hungarumlaut
Encoding: 733 733 220
Width: 1229
GlyphClass: 2
Flags: W
LayerCount: 2
Fore
SplineSet
142 1182 m 1,0,-1
 0 1182 l 1,1,-1
 0 1216 l 1,2,-1
 225 1461 l 1,3,-1
 460 1461 l 1,4,-1
 460 1418 l 1,5,-1
 142 1182 l 1,0,-1
548 1182 m 1,6,-1
 406 1182 l 1,7,-1
 406 1216 l 1,8,-1
 631 1461 l 1,9,-1
 866 1461 l 1,10,-1
 866 1418 l 1,11,-1
 548 1182 l 1,6,-1
EndSplineSet
Validated: 1
EndChar

StartChar: ogonek
Encoding: 731 731 221
Width: 1229
GlyphClass: 2
Flags: W
LayerCount: 2
Fore
SplineSet
657 -425 m 0,0,1
 546 -425 546 -425 483 -371 c 128,-1,2
 420 -317 420 -317 420 -225 c 0,3,4
 420 -150 420 -150 463.5 -83 c 128,-1,5
 507 -16 507 -16 578 21 c 1,6,-1
 731 21 l 1,7,8
 668 -21 668 -21 635 -78.5 c 128,-1,9
 602 -136 602 -136 602 -189 c 0,10,11
 602 -231 602 -231 626.5 -256.5 c 128,-1,12
 651 -282 651 -282 696 -282 c 0,13,14
 750 -282 750 -282 808 -255 c 1,15,-1
 808 -392 l 1,16,17
 745 -425 745 -425 657 -425 c 0,0,1
EndSplineSet
Validated: 1
EndChar

StartChar: caron
Encoding: 711 711 222
Width: 1229
GlyphClass: 2
Flags: W
LayerCount: 2
Fore
SplineSet
733 1183 m 1,0,-1
 504 1183 l 1,1,-1
 246 1432 l 1,2,-1
 246 1461 l 1,3,-1
 406 1461 l 1,4,-1
 617 1327 l 1,5,-1
 621 1327 l 1,6,-1
 824 1461 l 1,7,-1
 983 1461 l 1,8,-1
 983 1432 l 1,9,-1
 733 1183 l 1,0,-1
EndSplineSet
Validated: 1
EndChar

StartChar: Lslash
Encoding: 321 321 223
Width: 1229
GlyphClass: 2
Flags: W
LayerCount: 2
Fore
SplineSet
221 657 m 1,0,-1
 221 1349 l 1,1,-1
 516 1349 l 1,2,-1
 516 810 l 1,3,-1
 762 938 l 1,4,-1
 854 757 l 1,5,-1
 516 580 l 1,6,-1
 516 228 l 1,7,-1
 1132 228 l 1,8,-1
 1132 0 l 1,9,-1
 221 0 l 1,10,-1
 221 426 l 1,11,-1
 97 362 l 1,12,-1
 0 543 l 1,13,-1
 221 657 l 1,0,-1
EndSplineSet
Validated: 1
EndChar

StartChar: lslash
Encoding: 322 322 224
Width: 1229
GlyphClass: 2
Flags: W
LayerCount: 2
Fore
SplineSet
794 950 m 1,0,-1
 1005 1071 l 1,1,-1
 1088 916 l 1,2,-1
 794 748 l 1,3,-1
 794 190 l 1,4,-1
 1147 190 l 1,5,-1
 1147 0 l 1,6,-1
 118 0 l 1,7,-1
 118 190 l 1,8,-1
 513 190 l 1,9,-1
 513 587 l 1,10,-1
 317 475 l 1,11,-1
 232 629 l 1,12,-1
 513 789 l 1,13,-1
 513 1294 l 1,14,-1
 223 1294 l 1,15,-1
 223 1484 l 1,16,-1
 794 1484 l 1,17,-1
 794 950 l 1,0,-1
EndSplineSet
Validated: 1
EndChar

StartChar: brokenbar
Encoding: 166 166 229
Width: 1229
GlyphClass: 2
Flags: W
LayerCount: 2
Fore
SplineSet
483 676 m 1,0,-1
 483 1454 l 1,1,-1
 745 1454 l 1,2,-1
 745 676 l 1,3,-1
 483 676 l 1,0,-1
483 -455 m 1,4,-1
 483 324 l 1,5,-1
 745 324 l 1,6,-1
 745 -455 l 1,7,-1
 483 -455 l 1,4,-1
EndSplineSet
Validated: 1
EndChar

StartChar: Eth
Encoding: 208 208 230
Width: 1229
GlyphClass: 2
Flags: W
LayerCount: 2
Fore
SplineSet
1162 685 m 0,0,1
 1162 355 1162 355 1008 177.5 c 128,-1,2
 854 0 854 0 569 0 c 2,3,-1
 148 0 l 1,4,-1
 148 564 l 1,5,-1
 14 564 l 1,6,-1
 14 783 l 1,7,-1
 148 783 l 1,8,-1
 148 1349 l 1,9,-1
 509 1349 l 2,10,11
 837 1349 837 1349 999.5 1184.5 c 128,-1,12
 1162 1020 1162 1020 1162 685 c 0,0,1
865 685 m 0,13,14
 865 912 865 912 779.5 1016.5 c 128,-1,15
 694 1121 694 1121 504 1121 c 2,16,-1
 443 1121 l 1,17,-1
 443 783 l 1,18,-1
 650 783 l 1,19,-1
 650 564 l 1,20,-1
 443 564 l 1,21,-1
 443 228 l 1,22,-1
 545 228 l 2,23,24
 865 228 865 228 865 685 c 0,13,14
EndSplineSet
Validated: 1
EndChar

StartChar: eth
Encoding: 240 240 231
Width: 1229
GlyphClass: 2
Flags: W
LayerCount: 2
Fore
SplineSet
820 1266 m 1,0,1
 1135 946 1135 946 1135 541 c 2,2,-1
 1135 537 l 2,3,4
 1135 270 1135 270 999 125 c 128,-1,5
 863 -20 863 -20 607 -20 c 0,6,7
 360 -20 360 -20 222 112 c 128,-1,8
 84 244 84 244 84 479 c 0,9,10
 84 717 84 717 221.5 848 c 128,-1,11
 359 979 359 979 611 979 c 0,12,13
 689 979 689 979 745 959 c 1,14,15
 688 1078 688 1078 604 1176 c 1,16,-1
 369 1074 l 1,17,-1
 292 1229 l 1,18,-1
 478 1308 l 1,19,20
 390 1379 390 1379 220 1484 c 1,21,-1
 513 1484 l 1,22,23
 609 1436 609 1436 673 1390 c 1,24,-1
 922 1499 l 1,25,-1
 1005 1345 l 1,26,-1
 820 1266 l 1,0,1
841 477 m 0,27,28
 841 637 841 637 788 711.5 c 128,-1,29
 735 786 735 786 615 786 c 0,30,31
 490 786 490 786 434.5 710.5 c 128,-1,32
 379 635 379 635 379 477 c 0,33,34
 379 170 379 170 602 170 c 0,35,36
 729 170 729 170 785 244 c 128,-1,37
 841 318 841 318 841 477 c 0,27,28
EndSplineSet
Validated: 1
EndChar

StartChar: Thorn
Encoding: 222 222 234
Width: 1229
GlyphClass: 2
Flags: W
LayerCount: 2
Fore
SplineSet
1161 693 m 0,0,1
 1161 567 1161 567 1098.5 467 c 128,-1,2
 1036 367 1036 367 919.5 311.5 c 128,-1,3
 803 256 803 256 647 256 c 2,4,-1
 432 256 l 1,5,-1
 432 0 l 1,6,-1
 137 0 l 1,7,-1
 137 1349 l 1,8,-1
 432 1349 l 1,9,-1
 432 1114 l 1,10,-1
 635 1114 l 2,11,12
 885 1114 885 1114 1023 1003.5 c 128,-1,13
 1161 893 1161 893 1161 693 c 0,0,1
864 689 m 0,14,15
 864 790 864 790 794.5 847.5 c 128,-1,16
 725 905 725 905 602 905 c 2,17,-1
 432 905 l 1,18,-1
 432 465 l 1,19,-1
 610 465 l 2,20,21
 725 465 725 465 794.5 525 c 128,-1,22
 864 585 864 585 864 689 c 0,14,15
EndSplineSet
Validated: 1
EndChar

StartChar: thorn
Encoding: 254 254 235
Width: 1229
GlyphClass: 2
Flags: W
LayerCount: 2
Fore
SplineSet
143 1484 m 1,0,-1
 424 1484 l 1,1,-1
 424 1072 l 1,2,-1
 420 904 l 1,3,-1
 424 904 l 1,4,5
 535 1103 535 1103 745 1103 c 0,6,7
 924 1103 924 1103 1025.5 956 c 128,-1,8
 1127 809 1127 809 1127 545 c 0,9,10
 1127 279 1127 279 1021.5 129.5 c 128,-1,11
 916 -20 916 -20 727 -20 c 0,12,13
 628 -20 628 -20 548.5 30.5 c 128,-1,14
 469 81 469 81 424 172 c 1,15,-1
 418 172 l 1,16,17
 424 142 424 142 424 -10 c 2,18,-1
 424 -425 l 1,19,-1
 143 -425 l 1,20,-1
 143 1484 l 1,0,-1
844 545 m 0,21,22
 844 908 844 908 636 908 c 0,23,24
 535 908 535 908 477.5 810.5 c 128,-1,25
 420 713 420 713 420 537 c 0,26,27
 420 362 420 362 477.5 267 c 128,-1,28
 535 172 535 172 634 172 c 0,29,30
 743 172 743 172 793.5 266.5 c 128,-1,31
 844 361 844 361 844 545 c 0,21,22
EndSplineSet
Validated: 1
EndChar

StartChar: minus
Encoding: 8722 8722 236
Width: 1229
GlyphClass: 2
Flags: W
LayerCount: 2
Fore
SplineSet
101 569 m 1,0,-1
 101 793 l 1,1,-1
 1128 793 l 1,2,-1
 1128 569 l 1,3,-1
 101 569 l 1,0,-1
EndSplineSet
Validated: 1
EndChar

StartChar: multiply
Encoding: 215 215 237
Width: 1229
GlyphClass: 2
Flags: W
LayerCount: 2
Fore
SplineSet
102 326 m 1,0,-1
 458 684 l 1,1,-1
 106 1036 l 1,2,-1
 264 1192 l 1,3,-1
 616 842 l 1,4,-1
 968 1194 l 1,5,-1
 1126 1036 l 1,6,-1
 774 682 l 1,7,-1
 1126 332 l 1,8,-1
 968 172 l 1,9,-1
 616 526 l 1,10,-1
 260 168 l 1,11,-1
 102 326 l 1,0,-1
EndSplineSet
Validated: 1
EndChar

StartChar: onesuperior
Encoding: 185 185 238
Width: 1229
GlyphClass: 2
Flags: W
LayerCount: 2
Fore
SplineSet
275 563 m 1,0,-1
 275 705 l 1,1,-1
 511 705 l 1,2,-1
 511 1235 l 1,3,4
 488 1188 488 1188 416 1154 c 128,-1,5
 344 1120 344 1120 280 1120 c 1,6,-1
 280 1274 l 1,7,8
 352 1274 352 1274 421 1312 c 128,-1,9
 490 1350 490 1350 521 1410 c 1,10,-1
 725 1410 l 1,11,-1
 725 705 l 1,12,-1
 945 705 l 1,13,-1
 945 563 l 1,14,-1
 275 563 l 1,0,-1
EndSplineSet
Validated: 1
EndChar

StartChar: twosuperior
Encoding: 178 178 239
Width: 1229
GlyphClass: 2
Flags: W
LayerCount: 2
Fore
SplineSet
277 563 m 1,0,-1
 277 705 l 1,1,2
 340 842 340 842 543 969 c 0,3,4
 638 1029 638 1029 679 1074 c 128,-1,5
 720 1119 720 1119 720 1166 c 0,6,7
 720 1273 720 1273 624 1273 c 0,8,9
 525 1273 525 1273 513 1158 c 1,10,-1
 285 1164 l 1,11,12
 300 1282 300 1282 390.5 1352 c 128,-1,13
 481 1422 481 1422 624 1422 c 0,14,15
 780 1422 780 1422 866 1357 c 128,-1,16
 952 1292 952 1292 952 1175 c 0,17,18
 952 1028 952 1028 772 913 c 0,19,20
 639 828 639 828 599 795.5 c 128,-1,21
 559 763 559 763 542 725 c 1,22,-1
 967 725 l 1,23,-1
 967 563 l 1,24,-1
 277 563 l 1,0,-1
EndSplineSet
Validated: 1
EndChar

StartChar: threesuperior
Encoding: 179 179 240
Width: 1229
GlyphClass: 2
Flags: W
LayerCount: 2
Fore
SplineSet
962 799 m 0,0,1
 962 683 962 683 874 617 c 128,-1,2
 786 551 786 551 624 551 c 0,3,4
 297 551 297 551 264 795 c 1,5,-1
 486 810 l 1,6,7
 498 700 498 700 620 700 c 0,8,9
 740 700 740 700 740 813 c 0,10,11
 740 921 740 921 577 921 c 2,12,-1
 511 921 l 1,13,-1
 511 1069 l 1,14,-1
 571 1069 l 2,15,16
 646 1069 646 1069 683 1097 c 128,-1,17
 720 1125 720 1125 720 1174 c 0,18,19
 720 1220 720 1220 693 1246 c 128,-1,20
 666 1272 666 1272 615 1272 c 0,21,22
 566 1272 566 1272 535.5 1245.5 c 128,-1,23
 505 1219 505 1219 500 1167 c 1,24,-1
 282 1181 l 1,25,26
 297 1294 297 1294 387.5 1357.5 c 128,-1,27
 478 1421 478 1421 621 1421 c 0,28,29
 769 1421 769 1421 854.5 1360 c 128,-1,30
 940 1299 940 1299 940 1200 c 0,31,32
 940 1125 940 1125 897 1072 c 128,-1,33
 854 1019 854 1019 761 1000 c 1,34,-1
 761 998 l 1,35,36
 856 987 856 987 909 935 c 128,-1,37
 962 883 962 883 962 799 c 0,0,1
EndSplineSet
Validated: 1
EndChar

StartChar: franc
Encoding: 8355 8355 244
Width: 1229
GlyphClass: 2
Flags: W
LayerCount: 2
Fore
SplineSet
462 1141 m 1,0,-1
 462 805 l 1,1,-1
 1099 805 l 1,2,-1
 1099 597 l 1,3,-1
 462 597 l 1,4,-1
 462 407 l 1,5,-1
 776 407 l 1,6,-1
 776 258 l 1,7,-1
 462 258 l 1,8,-1
 462 0 l 1,9,-1
 177 0 l 1,10,-1
 177 258 l 1,11,-1
 37 258 l 1,12,-1
 37 407 l 1,13,-1
 177 407 l 1,14,-1
 177 1349 l 1,15,-1
 1132 1349 l 1,16,-1
 1132 1141 l 1,17,-1
 462 1141 l 1,0,-1
EndSplineSet
Validated: 1
EndChar

StartChar: dcroat
Encoding: 273 273 254
Width: 1229
GlyphClass: 2
Flags: W
LayerCount: 2
Fore
SplineSet
1209 1180 m 1,0,-1
 1076 1180 l 1,1,-1
 1076 236 l 2,2,3
 1076 136 1076 136 1084 0 c 1,4,-1
 812 0 l 1,5,6
 808 15 808 15 802.5 75.5 c 128,-1,7
 797 136 797 136 797 176 c 1,8,-1
 793 176 l 1,9,10
 740 69 740 69 662 24.5 c 128,-1,11
 584 -20 584 -20 477 -20 c 0,12,13
 296 -20 296 -20 194 124.5 c 128,-1,14
 92 269 92 269 92 523 c 0,15,16
 92 785 92 785 194.5 926.5 c 128,-1,17
 297 1068 297 1068 488 1068 c 0,18,19
 595 1068 595 1068 674 1019.5 c 128,-1,20
 753 971 753 971 795 877 c 1,21,-1
 797 877 l 1,22,-1
 795 1087 l 1,23,-1
 795 1180 l 1,24,-1
 513 1180 l 1,25,-1
 513 1349 l 1,26,-1
 795 1349 l 1,27,-1
 795 1484 l 1,28,-1
 1076 1484 l 1,29,-1
 1076 1349 l 1,30,-1
 1209 1349 l 1,31,-1
 1209 1180 l 1,0,-1
799 530 m 0,32,33
 799 698 799 698 745.5 787.5 c 128,-1,34
 692 877 692 877 588 877 c 0,35,36
 485 877 485 877 435 789.5 c 128,-1,37
 385 702 385 702 385 523 c 0,38,39
 385 172 385 172 586 172 c 0,40,41
 687 172 687 172 743 265 c 128,-1,42
 799 358 799 358 799 530 c 0,32,33
EndSplineSet
Validated: 1
EndChar

StartChar: dcaron
Encoding: 271 271 262
Width: 1229
GlyphClass: 2
Flags: W
LayerCount: 2
Fore
SplineSet
640 0 m 1,0,1
 636 15 636 15 630.5 75.5 c 128,-1,2
 625 136 625 136 625 176 c 1,3,-1
 621 176 l 1,4,5
 568 69 568 69 503.5 24.5 c 128,-1,6
 439 -20 439 -20 355 -20 c 0,7,8
 207 -20 207 -20 117.5 134 c 128,-1,9
 28 288 28 288 28 539 c 0,10,11
 28 798 28 798 118.5 949 c 128,-1,12
 209 1100 209 1100 366 1100 c 0,13,14
 537 1100 537 1100 623 909 c 1,15,-1
 625 909 l 1,16,-1
 623 1087 l 1,17,-1
 623 1484 l 1,18,-1
 894 1484 l 1,19,-1
 894 236 l 2,20,21
 894 136 894 136 902 0 c 1,22,-1
 640 0 l 1,0,1
627 546 m 0,23,24
 627 664 627 664 606 744.5 c 128,-1,25
 585 825 585 825 548.5 867 c 128,-1,26
 512 909 512 909 466 909 c 0,27,28
 394 909 394 909 353.5 812 c 128,-1,29
 313 715 313 715 313 539 c 0,30,31
 313 370 313 370 353 271 c 128,-1,32
 393 172 393 172 464 172 c 0,33,34
 509 172 509 172 546.5 218 c 128,-1,35
 584 264 584 264 605.5 346.5 c 128,-1,36
 627 429 627 429 627 546 c 0,23,24
971 1129 m 1,37,-1
 971 1162 l 1,38,-1
 1000 1484 l 1,39,-1
 1231 1484 l 1,40,-1
 1231 1447 l 1,41,-1
 1110 1129 l 1,42,-1
 971 1129 l 1,37,-1
EndSplineSet
Validated: 1
EndChar

StartChar: lacute
Encoding: 314 314 269
Width: 1229
GlyphClass: 2
Flags: W
LayerCount: 2
Fore
SplineSet
794 190 m 1,0,-1
 1147 190 l 1,1,-1
 1147 0 l 1,2,-1
 118 0 l 1,3,-1
 118 190 l 1,4,-1
 513 190 l 1,5,-1
 513 1159 l 1,6,-1
 223 1159 l 1,7,-1
 223 1349 l 1,8,-1
 794 1349 l 1,9,-1
 794 190 l 1,0,-1
496 1431 m 1,10,-1
 496 1462 l 1,11,-1
 748 1705 l 1,12,-1
 1006 1705 l 1,13,-1
 1006 1662 l 1,14,-1
 666 1431 l 1,15,-1
 496 1431 l 1,10,-1
EndSplineSet
Validated: 1
EndChar

StartChar: Gamma
Encoding: 915 915 298
Width: 1229
GlyphClass: 2
Flags: W
LayerCount: 2
Fore
SplineSet
1144 1349 m 1,0,-1
 1144 1121 l 1,1,-1
 472 1121 l 1,2,-1
 472 1 l 1,3,-1
 177 1 l 1,4,-1
 177 1349 l 1,5,-1
 1144 1349 l 1,0,-1
EndSplineSet
Validated: 1
EndChar

StartChar: Theta
Encoding: 920 920 299
Width: 1229
GlyphClass: 2
Flags: W
LayerCount: 2
Fore
SplineSet
792 787 m 1,0,-1
 792 573 l 1,1,-1
 437 573 l 1,2,-1
 437 787 l 1,3,-1
 792 787 l 1,0,-1
1167 679 m 256,4,5
 1167 339 1167 339 1024 159.5 c 128,-1,6
 881 -20 881 -20 615 -20 c 0,7,8
 348 -20 348 -20 205 160.5 c 128,-1,9
 62 341 62 341 62 679 c 0,10,11
 62 1016 62 1016 205 1193 c 128,-1,12
 348 1370 348 1370 615 1370 c 0,13,14
 881 1370 881 1370 1024 1194.5 c 128,-1,15
 1167 1019 1167 1019 1167 679 c 256,4,5
878 679 m 0,16,17
 878 901 878 901 809 1019.5 c 128,-1,18
 740 1138 740 1138 615 1138 c 256,19,20
 490 1138 490 1138 420.5 1018 c 128,-1,21
 351 898 351 898 351 679 c 256,22,23
 351 460 351 460 420.5 336 c 128,-1,24
 490 212 490 212 615 212 c 0,25,26
 738 212 738 212 808 333.5 c 128,-1,27
 878 455 878 455 878 679 c 0,16,17
EndSplineSet
Validated: 1
EndChar

StartChar: Phi
Encoding: 934 934 300
Width: 1229
GlyphClass: 2
Flags: W
LayerCount: 2
Fore
SplineSet
964 700 m 0,0,1
 964 833 964 833 907 912.5 c 128,-1,2
 850 992 850 992 753 992 c 2,3,-1
 734 992 l 1,4,-1
 734 397 l 1,5,-1
 760 397 l 2,6,7
 851 397 851 397 907.5 481.5 c 128,-1,8
 964 566 964 566 964 700 c 0,0,1
496 -11 m 1,9,-1
 496 198 l 1,10,-1
 472 198 l 2,11,12
 339 198 339 198 232.5 262.5 c 128,-1,13
 126 327 126 327 67.5 443.5 c 128,-1,14
 9 560 9 560 9 704 c 0,15,16
 9 930 9 930 135.5 1060.5 c 128,-1,17
 262 1191 262 1191 484 1191 c 2,18,-1
 496 1191 l 1,19,-1
 496 1359 l 1,20,-1
 734 1359 l 1,21,-1
 734 1191 l 1,22,-1
 746 1191 l 2,23,24
 968 1191 968 1191 1094.5 1060.5 c 128,-1,25
 1221 930 1221 930 1221 704 c 0,26,27
 1221 482 1221 482 1091.5 340 c 128,-1,28
 962 198 962 198 758 198 c 2,29,-1
 734 198 l 1,30,-1
 734 -11 l 1,31,-1
 496 -11 l 1,9,-1
266 700 m 0,32,33
 266 565 266 565 322.5 481 c 128,-1,34
 379 397 379 397 470 397 c 2,35,-1
 496 397 l 1,36,-1
 496 992 l 1,37,-1
 477 992 l 2,38,39
 381 992 381 992 323.5 913 c 128,-1,40
 266 834 266 834 266 700 c 0,32,33
EndSplineSet
Validated: 1
EndChar

StartChar: alpha
Encoding: 945 945 301
Width: 1229
GlyphClass: 2
Flags: W
LayerCount: 2
Fore
SplineSet
850 237 m 1,0,1
 788 102 788 102 702 41 c 128,-1,2
 616 -20 616 -20 491 -20 c 0,3,4
 279 -20 279 -20 174.5 117.5 c 128,-1,5
 70 255 70 255 70 536 c 0,6,7
 70 820 70 820 183.5 961 c 128,-1,8
 297 1102 297 1102 517 1102 c 0,9,10
 648 1102 648 1102 742.5 1035.5 c 128,-1,11
 837 969 837 969 885 847 c 1,12,-1
 888 847 l 1,13,14
 913 971 913 971 963 1082 c 1,15,-1
 1228 1082 l 1,16,17
 1178 991 1178 991 1124.5 831 c 128,-1,18
 1071 671 1071 671 1059 556 c 1,19,20
 1091 247 1091 247 1195 0 c 1,21,-1
 925 0 l 1,22,23
 876 120 876 120 854 237 c 1,24,-1
 850 237 l 1,0,1
365 539 m 0,25,26
 365 343 365 343 407.5 258 c 128,-1,27
 450 173 450 173 546 173 c 0,28,29
 635 173 635 173 699 274 c 128,-1,30
 763 375 763 375 781 542 c 1,31,32
 759 720 759 720 700.5 814 c 128,-1,33
 642 908 642 908 554 908 c 0,34,35
 452 908 452 908 408.5 819 c 128,-1,36
 365 730 365 730 365 539 c 0,25,26
EndSplineSet
Validated: 1
EndChar

StartChar: delta
Encoding: 948 948 302
Width: 1229
GlyphClass: 2
Flags: W
LayerCount: 2
Fore
SplineSet
856 487 m 0,0,1
 856 597 856 597 810.5 696 c 128,-1,2
 765 795 765 795 657 903 c 1,3,4
 516 853 516 853 441 745.5 c 128,-1,5
 366 638 366 638 366 481 c 0,6,7
 366 336 366 336 428 256 c 128,-1,8
 490 176 490 176 602 176 c 0,9,10
 726 176 726 176 791 254 c 128,-1,11
 856 332 856 332 856 487 c 0,0,1
724 1294 m 1,12,-1
 577 1301 l 1,13,-1
 900 1008 l 2,14,15
 1031 889 1031 889 1088.5 762.5 c 128,-1,16
 1146 636 1146 636 1146 483 c 0,17,18
 1146 335 1146 335 1081.5 220.5 c 128,-1,19
 1017 106 1017 106 894 43 c 128,-1,20
 771 -20 771 -20 607 -20 c 0,21,22
 355 -20 355 -20 215.5 112.5 c 128,-1,23
 76 245 76 245 76 481 c 0,24,25
 76 863 76 863 541 1023 c 1,26,-1
 229 1337 l 1,27,-1
 229 1484 l 1,28,-1
 1082 1484 l 1,29,-1
 1082 1294 l 1,30,-1
 724 1294 l 1,12,-1
EndSplineSet
Validated: 1
EndChar

StartChar: epsilon
Encoding: 949 949 303
Width: 1229
GlyphClass: 2
Flags: W
LayerCount: 2
Fore
SplineSet
630 168 m 0,0,1
 818 168 818 168 970 325 c 1,2,-1
 1133 185 l 1,3,4
 1033 82 1033 82 901.5 31 c 128,-1,5
 770 -20 770 -20 621 -20 c 0,6,7
 391 -20 391 -20 261 64 c 128,-1,8
 131 148 131 148 131 297 c 0,9,10
 131 403 131 403 224.5 475 c 128,-1,11
 318 547 318 547 459 558 c 1,12,-1
 459 560 l 1,13,14
 331 573 331 573 247.5 644.5 c 128,-1,15
 164 716 164 716 164 812 c 0,16,17
 164 942 164 942 298 1022 c 128,-1,18
 432 1102 432 1102 657 1102 c 0,19,20
 965 1102 965 1102 1117 913 c 1,21,-1
 935 790 l 1,22,23
 888 852 888 852 812.5 887.5 c 128,-1,24
 737 923 737 923 653 923 c 0,25,26
 547 923 547 923 489 889.5 c 128,-1,27
 431 856 431 856 431 801 c 0,28,29
 431 727 431 727 529 689.5 c 128,-1,30
 627 652 627 652 839 652 c 1,31,-1
 839 475 l 1,32,33
 639 475 639 475 529.5 434 c 128,-1,34
 420 393 420 393 420 314 c 0,35,36
 420 245 420 245 476.5 206.5 c 128,-1,37
 533 168 533 168 630 168 c 0,0,1
EndSplineSet
Validated: 1
EndChar

StartChar: sigma
Encoding: 963 963 304
Width: 1229
GlyphClass: 2
Flags: W
LayerCount: 2
Fore
SplineSet
1130 458 m 0,0,1
 1130 235 1130 235 990 107.5 c 128,-1,2
 850 -20 850 -20 608 -20 c 0,3,4
 356 -20 356 -20 218 121.5 c 128,-1,5
 80 263 80 263 80 524 c 0,6,7
 80 792 80 792 238.5 937 c 128,-1,8
 397 1082 397 1082 699 1082 c 2,9,-1
 1221 1082 l 1,10,-1
 1221 892 l 1,11,-1
 1086 892 l 1,12,-1
 962 898 l 1,13,-1
 962 894 l 1,14,15
 1050 781 1050 781 1090 674 c 128,-1,16
 1130 567 1130 567 1130 458 c 0,0,1
836 492 m 0,17,18
 836 708 836 708 734 892 c 1,19,-1
 680 892 l 2,20,21
 592 892 592 892 522 847.5 c 128,-1,22
 452 803 452 803 413.5 719.5 c 128,-1,23
 375 636 375 636 375 524 c 0,24,25
 375 349 375 349 435 260.5 c 128,-1,26
 495 172 495 172 601 172 c 0,27,28
 715 172 715 172 775.5 257.5 c 128,-1,29
 836 343 836 343 836 492 c 0,17,18
EndSplineSet
Validated: 1
EndChar

StartChar: tau
Encoding: 964 964 305
Width: 1229
GlyphClass: 2
Flags: W
LayerCount: 2
Fore
SplineSet
380 892 m 2,0,1
 298 892 298 892 224 880 c 128,-1,2
 150 868 150 868 128 855 c 1,3,-1
 128 1053 l 1,4,5
 152 1065 152 1065 205.5 1073.5 c 128,-1,6
 259 1082 259 1082 311 1082 c 2,7,-1
 1070 1082 l 1,8,-1
 1070 892 l 1,9,-1
 725 892 l 1,10,-1
 725 312 l 2,11,12
 725 240 725 240 753 208.5 c 128,-1,13
 781 177 781 177 850 177 c 0,14,15
 889 177 889 177 953 185 c 1,16,-1
 953 2 l 1,17,18
 921 -7 921 -7 857.5 -14 c 128,-1,19
 794 -21 794 -21 756 -21 c 0,20,21
 593 -21 593 -21 520 45.5 c 128,-1,22
 447 112 447 112 447 251 c 2,23,-1
 447 892 l 1,24,-1
 380 892 l 2,0,1
EndSplineSet
Validated: 1
EndChar

StartChar: phi
Encoding: 966 966 306
Width: 1229
GlyphClass: 2
Flags: W
LayerCount: 2
Fore
SplineSet
1187 565 m 0,0,1
 1187 295 1187 295 1064.5 145.5 c 128,-1,2
 942 -4 942 -4 716 -18 c 1,3,-1
 716 -425 l 1,4,-1
 498 -425 l 1,5,-1
 498 -20 l 1,6,7
 277 -9 277 -9 159 136 c 128,-1,8
 41 281 41 281 41 544 c 0,9,10
 41 776 41 776 140 915 c 128,-1,11
 239 1054 239 1054 450 1106 c 1,12,-1
 471 927 l 1,13,14
 378 903 378 903 327 802.5 c 128,-1,15
 276 702 276 702 276 544 c 0,16,17
 276 358 276 358 332 266.5 c 128,-1,18
 388 175 388 175 498 167 c 1,19,-1
 498 702 l 2,20,21
 498 900 498 900 583.5 1002 c 128,-1,22
 669 1104 669 1104 833 1104 c 0,23,24
 993 1104 993 1104 1090 958.5 c 128,-1,25
 1187 813 1187 813 1187 565 c 0,0,1
952 567 m 0,26,27
 952 740 952 740 920 835 c 128,-1,28
 888 930 888 930 829 930 c 0,29,30
 772 930 772 930 744 876 c 128,-1,31
 716 822 716 822 716 699 c 2,32,-1
 716 166 l 1,33,34
 837 172 837 172 894.5 272 c 128,-1,35
 952 372 952 372 952 567 c 0,26,27
EndSplineSet
Validated: 1
EndChar

StartChar: underscoredbl
Encoding: 8215 8215 307
Width: 1229
GlyphClass: 2
Flags: W
LayerCount: 2
Fore
SplineSet
-5 -220 m 1,0,-1
 -5 -124 l 1,1,-1
 1233 -124 l 1,2,-1
 1233 -220 l 1,3,-1
 -5 -220 l 1,0,-1
-5 -425 m 1,4,-1
 -5 -329 l 1,5,-1
 1233 -329 l 1,6,-1
 1233 -425 l 1,7,-1
 -5 -425 l 1,4,-1
EndSplineSet
Validated: 1
EndChar

StartChar: exclamdbl
Encoding: 8252 8252 308
Width: 1229
GlyphClass: 2
Flags: W
LayerCount: 2
Fore
SplineSet
444 426 m 1,0,-1
 214 426 l 1,1,-1
 182 1349 l 1,2,-1
 476 1349 l 1,3,-1
 444 426 l 1,0,-1
182 0 m 1,4,-1
 182 270 l 1,5,-1
 470 270 l 1,6,-1
 470 0 l 1,7,-1
 182 0 l 1,4,-1
1014 426 m 1,8,-1
 784 426 l 1,9,-1
 752 1349 l 1,10,-1
 1046 1349 l 1,11,-1
 1014 426 l 1,8,-1
752 0 m 1,12,-1
 752 270 l 1,13,-1
 1040 270 l 1,14,-1
 1040 0 l 1,15,-1
 752 0 l 1,12,-1
EndSplineSet
Validated: 1
EndChar

StartChar: nsuperior
Encoding: 8319 8319 309
Width: 1229
GlyphClass: 2
Flags: W
LayerCount: 2
Fore
SplineSet
750 519 m 1,0,-1
 750 903 l 2,1,2
 750 990 750 990 727 1023.5 c 128,-1,3
 704 1057 704 1057 644 1057 c 0,4,5
 582 1057 582 1057 545.5 1009 c 128,-1,6
 509 961 509 961 509 870 c 2,7,-1
 509 519 l 1,8,-1
 331 519 l 1,9,-1
 331 1030 l 1,10,-1
 327 1169 l 1,11,-1
 493 1169 l 1,12,13
 494 1166 494 1166 495 1152.5 c 128,-1,14
 496 1139 496 1139 497.5 1122 c 128,-1,15
 499 1105 499 1105 501 1058 c 1,16,-1
 504 1058 l 1,17,18
 539 1123 539 1123 588.5 1152 c 128,-1,19
 638 1181 638 1181 712 1181 c 0,20,21
 822 1181 822 1181 875.5 1127 c 128,-1,22
 929 1073 929 1073 929 952 c 2,23,-1
 929 519 l 1,24,-1
 750 519 l 1,0,-1
EndSplineSet
Validated: 1
EndChar

StartChar: peseta
Encoding: 8359 8359 310
Width: 1229
GlyphClass: 2
Flags: W
LayerCount: 2
Fore
SplineSet
582 1015 m 0,0,1
 582 850 582 850 497 752 c 128,-1,2
 412 654 412 654 267 654 c 2,3,-1
 226 654 l 1,4,-1
 226 0 l 1,5,-1
 45 0 l 1,6,-1
 45 1349 l 1,7,-1
 255 1349 l 2,8,9
 582 1349 582 1349 582 1015 c 0,0,1
1210 181 m 0,10,11
 1210 97 1210 97 1158 43.5 c 128,-1,12
 1106 -10 1106 -10 1018 -10 c 0,13,14
 942 -10 942 -10 891 37.5 c 128,-1,15
 840 85 840 85 829 163 c 1,16,-1
 947 180 l 1,17,18
 964 92 964 92 1020 92 c 0,19,20
 1046 92 1046 92 1058 111.5 c 128,-1,21
 1070 131 1070 131 1070 151 c 0,22,23
 1070 187 1070 187 1047.5 218 c 128,-1,24
 1025 249 1025 249 977 282 c 0,25,26
 903 333 903 333 871 382.5 c 128,-1,27
 839 432 839 432 839 489 c 0,28,29
 839 570 839 570 891.5 617 c 128,-1,30
 944 664 944 664 1026 664 c 0,31,32
 1093 664 1093 664 1141.5 616.5 c 128,-1,33
 1190 569 1190 569 1198 496 c 1,34,-1
 1079 484 l 1,35,36
 1074 520 1074 520 1058.5 541.5 c 128,-1,37
 1043 563 1043 563 1024 563 c 0,38,39
 1003 563 1003 563 991 547.5 c 128,-1,40
 979 532 979 532 979 506 c 0,41,42
 979 469 979 469 1005.5 440.5 c 128,-1,43
 1032 412 1032 412 1083 377 c 0,44,45
 1210 290 1210 290 1210 181 c 0,10,11
400 1012 m 0,46,47
 400 1107 400 1107 364.5 1151.5 c 128,-1,48
 329 1196 329 1196 242 1196 c 2,49,-1
 226 1196 l 1,50,-1
 226 805 l 1,51,-1
 250 805 l 2,52,53
 400 805 400 805 400 1012 c 0,46,47
446 543 m 1,54,-1
 446 650 l 1,55,-1
 526 650 l 1,56,-1
 585 792 l 1,57,-1
 676 792 l 1,58,-1
 676 650 l 1,59,-1
 807 650 l 1,60,-1
 807 543 l 1,61,-1
 676 543 l 1,62,-1
 676 179 l 2,63,64
 676 101 676 101 734 101 c 0,65,66
 779 101 779 101 806 108 c 1,67,-1
 806 1 l 1,68,69
 755 -10 755 -10 703 -10 c 0,70,71
 619 -10 619 -10 572 31 c 128,-1,72
 525 72 525 72 525 151 c 2,73,-1
 525 543 l 1,74,-1
 446 543 l 1,54,-1
EndSplineSet
Validated: 1
EndChar

StartChar: arrowleft
Encoding: 8592 8592 311
Width: 1229
GlyphClass: 2
Flags: W
LayerCount: 2
Fore
SplineSet
231 297 m 1,0,1
 288 230 288 230 350 100 c 1,2,-1
 278 100 l 1,3,4
 151 249 151 249 8 322 c 1,5,-1
 8 358 l 1,6,7
 151 431 151 431 278 580 c 1,8,-1
 350 580 l 1,9,10
 288 450 288 450 231 383 c 1,11,-1
 1220 383 l 1,12,-1
 1220 297 l 1,13,-1
 231 297 l 1,0,1
EndSplineSet
Validated: 1
EndChar

StartChar: arrowup
Encoding: 8593 8593 312
Width: 1229
GlyphClass: 2
Flags: W
LayerCount: 2
Fore
SplineSet
571 928 m 1,0,1
 504 871 504 871 374 809 c 1,2,-1
 374 881 l 1,3,4
 523 1008 523 1008 596 1151 c 1,5,-1
 632 1151 l 1,6,7
 705 1008 705 1008 854 881 c 1,8,-1
 854 809 l 1,9,10
 724 871 724 871 657 928 c 1,11,-1
 657 -61 l 1,12,-1
 571 -61 l 1,13,-1
 571 928 l 1,0,1
EndSplineSet
Validated: 1
EndChar

StartChar: arrowright
Encoding: 8594 8594 313
Width: 1229
GlyphClass: 2
Flags: W
LayerCount: 2
Fore
SplineSet
997 383 m 1,0,1
 940 450 940 450 878 580 c 1,2,-1
 950 580 l 1,3,4
 1077 431 1077 431 1220 358 c 1,5,-1
 1220 322 l 1,6,7
 1077 249 1077 249 950 100 c 1,8,-1
 878 100 l 1,9,10
 940 230 940 230 997 297 c 1,11,-1
 8 297 l 1,12,-1
 8 383 l 1,13,-1
 997 383 l 1,0,1
EndSplineSet
Validated: 1
EndChar

StartChar: arrowdown
Encoding: 8595 8595 314
Width: 1229
GlyphClass: 2
Flags: W
LayerCount: 2
Fore
SplineSet
657 162 m 1,0,1
 724 219 724 219 854 281 c 1,2,-1
 854 209 l 1,3,4
 705 82 705 82 632 -61 c 1,5,-1
 596 -61 l 1,6,7
 523 82 523 82 374 209 c 1,8,-1
 374 281 l 1,9,10
 504 219 504 219 571 162 c 1,11,-1
 571 1151 l 1,12,-1
 657 1151 l 1,13,-1
 657 162 l 1,0,1
EndSplineSet
Validated: 1
EndChar

StartChar: arrowboth
Encoding: 8596 8596 315
Width: 1229
GlyphClass: 2
Flags: W
LayerCount: 2
Fore
SplineSet
231 297 m 1,0,1
 288 230 288 230 350 100 c 1,2,-1
 278 100 l 1,3,4
 151 249 151 249 8 322 c 1,5,-1
 8 358 l 1,6,7
 151 431 151 431 278 580 c 1,8,-1
 350 580 l 1,9,10
 288 450 288 450 231 383 c 1,11,-1
 997 383 l 1,12,13
 940 450 940 450 878 580 c 1,14,-1
 950 580 l 1,15,16
 1077 431 1077 431 1220 358 c 1,17,-1
 1220 322 l 1,18,19
 1077 249 1077 249 950 100 c 1,20,-1
 878 100 l 1,21,22
 940 230 940 230 997 297 c 1,23,-1
 231 297 l 1,0,1
EndSplineSet
Validated: 1
EndChar

StartChar: arrowupdn
Encoding: 8597 8597 316
Width: 1229
GlyphClass: 2
Flags: W
LayerCount: 2
Fore
SplineSet
571 928 m 1,0,1
 504 871 504 871 374 809 c 1,2,-1
 374 881 l 1,3,4
 523 1008 523 1008 596 1151 c 1,5,-1
 632 1151 l 1,6,7
 705 1008 705 1008 854 881 c 1,8,-1
 854 809 l 1,9,10
 724 871 724 871 657 928 c 1,11,-1
 657 162 l 1,12,13
 724 219 724 219 854 281 c 1,14,-1
 854 209 l 1,15,16
 705 82 705 82 632 -61 c 1,17,-1
 596 -61 l 1,18,19
 523 82 523 82 374 209 c 1,20,-1
 374 281 l 1,21,22
 504 219 504 219 571 162 c 1,23,-1
 571 928 l 1,0,1
EndSplineSet
Validated: 1
EndChar

StartChar: arrowupdnbse
Encoding: 8616 8616 317
Width: 1229
GlyphClass: 2
Flags: W
LayerCount: 2
Fore
SplineSet
374 -104 m 1,0,-1
 854 -104 l 1,1,-1
 854 -184 l 1,2,-1
 374 -184 l 1,3,-1
 374 -104 l 1,0,-1
571 928 m 1,4,5
 504 871 504 871 374 809 c 1,6,-1
 374 881 l 1,7,8
 523 1008 523 1008 596 1151 c 1,9,-1
 632 1151 l 1,10,11
 705 1008 705 1008 854 881 c 1,12,-1
 854 809 l 1,13,14
 724 871 724 871 657 928 c 1,15,-1
 657 162 l 1,16,17
 724 219 724 219 854 281 c 1,18,-1
 854 209 l 1,19,20
 705 82 705 82 632 -61 c 1,21,-1
 596 -61 l 1,22,23
 523 82 523 82 374 209 c 1,24,-1
 374 281 l 1,25,26
 504 219 504 219 571 162 c 1,27,-1
 571 928 l 1,4,5
EndSplineSet
Validated: 1
EndChar

StartChar: orthogonal
Encoding: 8735 8735 318
Width: 1229
GlyphClass: 2
Flags: W
LayerCount: 2
Fore
SplineSet
52 1223 m 1,0,-1
 146 1223 l 1,1,-1
 146 94 l 1,2,-1
 1176 94 l 1,3,-1
 1176 0 l 1,4,-1
 52 0 l 1,5,-1
 52 1223 l 1,0,-1
EndSplineSet
Validated: 1
EndChar

StartChar: intersection
Encoding: 8745 8745 319
Width: 1229
GlyphClass: 2
Flags: W
LayerCount: 2
Fore
SplineSet
156 -2 m 1,0,-1
 156 510 l 2,1,2
 156 660 156 660 214 779.5 c 128,-1,3
 272 899 272 899 376.5 965.5 c 128,-1,4
 481 1032 481 1032 611 1032 c 0,5,6
 742 1032 742 1032 847.5 966 c 128,-1,7
 953 900 953 900 1012.5 779 c 128,-1,8
 1072 658 1072 658 1072 510 c 2,9,-1
 1072 -2 l 1,10,-1
 969 -2 l 1,11,-1
 969 512 l 2,12,13
 969 702 969 702 871 816 c 128,-1,14
 773 930 773 930 613 930 c 0,15,16
 451 930 451 930 355 817 c 128,-1,17
 259 704 259 704 259 510 c 2,18,-1
 259 -2 l 1,19,-1
 156 -2 l 1,0,-1
EndSplineSet
Validated: 1
EndChar

StartChar: equivalence
Encoding: 8801 8801 320
Width: 1229
GlyphClass: 2
Flags: W
LayerCount: 2
Fore
SplineSet
116 956 m 1,0,-1
 116 1104 l 1,1,-1
 1111 1104 l 1,2,-1
 1111 956 l 1,3,-1
 116 956 l 1,0,-1
116 244 m 1,4,-1
 116 392 l 1,5,-1
 1111 392 l 1,6,-1
 1111 244 l 1,7,-1
 116 244 l 1,4,-1
116 600 m 1,8,-1
 116 748 l 1,9,-1
 1111 748 l 1,10,-1
 1111 600 l 1,11,-1
 116 600 l 1,8,-1
EndSplineSet
Validated: 1
EndChar

StartChar: house
Encoding: 8962 8962 321
Width: 1229
GlyphClass: 2
Flags: W
LayerCount: 2
Fore
SplineSet
138 0 m 1,0,-1
 138 635 l 1,1,-1
 614 1083 l 1,2,-1
 1090 635 l 1,3,-1
 1090 0 l 1,4,-1
 138 0 l 1,0,-1
221 85 m 1,5,-1
 1007 85 l 1,6,-1
 1007 597 l 1,7,-1
 614 967 l 1,8,-1
 221 597 l 1,9,-1
 221 85 l 1,5,-1
EndSplineSet
Validated: 1
EndChar

StartChar: revlogicalnot
Encoding: 8976 8976 322
Width: 1229
GlyphClass: 2
Flags: W
LayerCount: 2
Fore
SplineSet
262 608 m 1,0,-1
 262 180 l 1,1,-1
 115 180 l 1,2,-1
 116 754 l 1,3,-1
 1111 754 l 1,4,-1
 1111 608 l 1,5,-1
 262 608 l 1,0,-1
EndSplineSet
Validated: 1
EndChar

StartChar: integraltp
Encoding: 8992 8992 323
Width: 1229
GlyphClass: 2
Flags: W
LayerCount: 2
Fore
SplineSet
687 -615 m 1,0,-1
 542 -615 l 1,1,-1
 542 1207 l 2,2,3
 542 1440 542 1440 624 1572.5 c 128,-1,4
 706 1705 706 1705 855 1705 c 0,5,6
 925 1705 925 1705 975.5 1668.5 c 128,-1,7
 1026 1632 1026 1632 1026 1576 c 0,8,9
 1026 1537 1026 1537 1001 1512.5 c 128,-1,10
 976 1488 976 1488 941 1488 c 0,11,12
 902 1488 902 1488 880.5 1506 c 128,-1,13
 859 1524 859 1524 844.5 1545.5 c 128,-1,14
 830 1567 830 1567 816.5 1585 c 128,-1,15
 803 1603 803 1603 781 1603 c 0,16,17
 730 1603 730 1603 708.5 1527.5 c 128,-1,18
 687 1452 687 1452 687 1285 c 2,19,-1
 687 -615 l 1,0,-1
EndSplineSet
Validated: 1
EndChar

StartChar: integralbt
Encoding: 8993 8993 324
Width: 1229
GlyphClass: 2
Flags: W
LayerCount: 2
Fore
SplineSet
542 1705 m 1,0,-1
 687 1705 l 1,1,-1
 687 -117 l 2,2,3
 687 -354 687 -354 604 -484.5 c 128,-1,4
 521 -615 521 -615 374 -615 c 0,5,6
 304 -615 304 -615 253.5 -578.5 c 128,-1,7
 203 -542 203 -542 203 -486 c 0,8,9
 203 -447 203 -447 228 -422.5 c 128,-1,10
 253 -398 253 -398 288 -398 c 0,11,12
 327 -398 327 -398 348.5 -416 c 128,-1,13
 370 -434 370 -434 384.5 -455.5 c 128,-1,14
 399 -477 399 -477 412.5 -495 c 128,-1,15
 426 -513 426 -513 448 -513 c 0,16,17
 499 -513 499 -513 520.5 -437.5 c 128,-1,18
 542 -362 542 -362 542 -195 c 2,19,-1
 542 1705 l 1,0,-1
EndSplineSet
Validated: 1
EndChar

StartChar: uni2500
Encoding: 9472 9472 325
Width: 1229
GlyphClass: 2
Flags: W
LayerCount: 2
Fore
SplineSet
-10 555 m 1,0,-1
 -10 700 l 1,1,-1
 1239 700 l 1,2,-1
 1239 555 l 1,3,-1
 -10 555 l 1,0,-1
EndSplineSet
Validated: 1
EndChar

StartChar: uni2502
Encoding: 9474 9474 326
Width: 1229
GlyphClass: 2
Flags: W
LayerCount: 2
Fore
SplineSet
542 1705 m 1,0,-1
 687 1705 l 1,1,-1
 687 -615 l 1,2,-1
 542 -615 l 1,3,-1
 542 1705 l 1,0,-1
EndSplineSet
Validated: 1
EndChar

StartChar: uni250C
Encoding: 9484 9484 327
Width: 1229
GlyphClass: 2
Flags: W
LayerCount: 2
Fore
SplineSet
542 700 m 1,0,-1
 1239 700 l 1,1,-1
 1239 555 l 1,2,-1
 687 555 l 1,3,-1
 687 -615 l 1,4,-1
 542 -615 l 1,5,-1
 542 700 l 1,0,-1
EndSplineSet
Validated: 1
EndChar

StartChar: uni2510
Encoding: 9488 9488 328
Width: 1229
GlyphClass: 2
Flags: W
LayerCount: 2
Fore
SplineSet
-10 555 m 1,0,-1
 -10 700 l 1,1,-1
 687 700 l 1,2,-1
 687 -615 l 1,3,-1
 542 -615 l 1,4,-1
 542 555 l 1,5,-1
 -10 555 l 1,0,-1
EndSplineSet
Validated: 1
EndChar

StartChar: uni2514
Encoding: 9492 9492 329
Width: 1229
GlyphClass: 2
Flags: W
LayerCount: 2
Fore
SplineSet
542 1705 m 1,0,-1
 687 1705 l 1,1,-1
 687 700 l 1,2,-1
 1239 700 l 1,3,-1
 1239 555 l 1,4,-1
 542 555 l 1,5,-1
 542 1705 l 1,0,-1
EndSplineSet
Validated: 1
EndChar

StartChar: uni2518
Encoding: 9496 9496 330
Width: 1229
GlyphClass: 2
Flags: W
LayerCount: 2
Fore
SplineSet
-10 555 m 1,0,-1
 -10 700 l 1,1,-1
 542 700 l 1,2,-1
 542 1705 l 1,3,-1
 687 1705 l 1,4,-1
 687 555 l 1,5,-1
 -10 555 l 1,0,-1
EndSplineSet
Validated: 1
EndChar

StartChar: uni251C
Encoding: 9500 9500 331
Width: 1229
GlyphClass: 2
Flags: W
LayerCount: 2
Fore
SplineSet
542 1705 m 1,0,-1
 687 1705 l 1,1,-1
 687 700 l 1,2,-1
 1239 700 l 1,3,-1
 1239 555 l 1,4,-1
 687 555 l 1,5,-1
 687 -615 l 1,6,-1
 542 -615 l 1,7,-1
 542 1705 l 1,0,-1
EndSplineSet
Validated: 1
EndChar

StartChar: uni2524
Encoding: 9508 9508 332
Width: 1229
GlyphClass: 2
Flags: W
LayerCount: 2
Fore
SplineSet
-10 555 m 1,0,-1
 -10 700 l 1,1,-1
 542 700 l 1,2,-1
 542 1705 l 1,3,-1
 687 1705 l 1,4,-1
 687 -615 l 1,5,-1
 542 -615 l 1,6,-1
 542 555 l 1,7,-1
 -10 555 l 1,0,-1
EndSplineSet
Validated: 1
EndChar

StartChar: uni252C
Encoding: 9516 9516 333
Width: 1229
GlyphClass: 2
Flags: W
LayerCount: 2
Fore
SplineSet
-10 555 m 1,0,-1
 -10 700 l 1,1,-1
 1239 700 l 1,2,-1
 1239 555 l 1,3,-1
 687 555 l 1,4,-1
 687 -615 l 1,5,-1
 542 -615 l 1,6,-1
 542 555 l 1,7,-1
 -10 555 l 1,0,-1
EndSplineSet
Validated: 1
EndChar

StartChar: uni2534
Encoding: 9524 9524 334
Width: 1229
GlyphClass: 2
Flags: W
LayerCount: 2
Fore
SplineSet
-10 555 m 1,0,-1
 -10 700 l 1,1,-1
 542 700 l 1,2,-1
 542 1705 l 1,3,-1
 687 1705 l 1,4,-1
 687 700 l 1,5,-1
 1239 700 l 1,6,-1
 1239 555 l 1,7,-1
 -10 555 l 1,0,-1
EndSplineSet
Validated: 1
EndChar

StartChar: uni253C
Encoding: 9532 9532 335
Width: 1229
GlyphClass: 2
Flags: W
LayerCount: 2
Fore
SplineSet
-10 555 m 1,0,-1
 -10 700 l 1,1,-1
 542 700 l 1,2,-1
 542 1705 l 1,3,-1
 687 1705 l 1,4,-1
 687 700 l 1,5,-1
 1239 700 l 1,6,-1
 1239 555 l 1,7,-1
 687 555 l 1,8,-1
 687 -615 l 1,9,-1
 542 -615 l 1,10,-1
 542 555 l 1,11,-1
 -10 555 l 1,0,-1
EndSplineSet
Validated: 1
EndChar

StartChar: uni2550
Encoding: 9552 9552 336
Width: 1229
GlyphClass: 2
Flags: W
LayerCount: 2
Fore
SplineSet
-10 735 m 1,0,-1
 -10 880 l 1,1,-1
 1239 880 l 1,2,-1
 1239 735 l 1,3,-1
 -10 735 l 1,0,-1
-10 375 m 1,4,-1
 -10 520 l 1,5,-1
 1239 520 l 1,6,-1
 1239 375 l 1,7,-1
 -10 375 l 1,4,-1
EndSplineSet
Validated: 1
EndChar

StartChar: uni2551
Encoding: 9553 9553 337
Width: 1229
GlyphClass: 2
Flags: W
LayerCount: 2
Fore
SplineSet
362 1705 m 1,0,-1
 507 1705 l 1,1,-1
 507 -615 l 1,2,-1
 362 -615 l 1,3,-1
 362 1705 l 1,0,-1
722 1705 m 1,4,-1
 867 1705 l 1,5,-1
 867 -615 l 1,6,-1
 722 -615 l 1,7,-1
 722 1705 l 1,4,-1
EndSplineSet
Validated: 1
EndChar

StartChar: uni2552
Encoding: 9554 9554 338
Width: 1229
GlyphClass: 2
Flags: W
LayerCount: 2
Fore
SplineSet
542 880 m 1,0,-1
 1239 880 l 1,1,-1
 1239 735 l 1,2,-1
 687 735 l 1,3,-1
 687 520 l 1,4,-1
 1239 520 l 1,5,-1
 1239 375 l 1,6,-1
 687 375 l 1,7,-1
 687 -615 l 1,8,-1
 542 -615 l 1,9,-1
 542 880 l 1,0,-1
EndSplineSet
Validated: 1
EndChar

StartChar: uni2553
Encoding: 9555 9555 339
Width: 1229
GlyphClass: 2
Flags: W
LayerCount: 2
Fore
SplineSet
1239 700 m 1,0,-1
 1239 555 l 1,1,-1
 867 555 l 1,2,-1
 867 -615 l 1,3,-1
 722 -615 l 1,4,-1
 722 555 l 1,5,-1
 507 555 l 1,6,-1
 507 -615 l 1,7,-1
 362 -615 l 1,8,-1
 362 700 l 1,9,-1
 1239 700 l 1,0,-1
EndSplineSet
Validated: 1
EndChar

StartChar: uni2554
Encoding: 9556 9556 340
Width: 1229
GlyphClass: 2
Flags: W
LayerCount: 2
Fore
SplineSet
362 880 m 1,0,-1
 1239 880 l 1,1,-1
 1239 735 l 1,2,-1
 507 735 l 1,3,-1
 507 -615 l 1,4,-1
 362 -615 l 1,5,-1
 362 880 l 1,0,-1
722 520 m 1,6,-1
 1239 520 l 1,7,-1
 1239 375 l 1,8,-1
 867 375 l 1,9,-1
 867 -615 l 1,10,-1
 722 -615 l 1,11,-1
 722 520 l 1,6,-1
EndSplineSet
Validated: 1
EndChar

StartChar: uni2555
Encoding: 9557 9557 341
Width: 1229
GlyphClass: 2
Flags: W
LayerCount: 2
Fore
SplineSet
-10 375 m 1,0,-1
 -10 520 l 1,1,-1
 542 520 l 1,2,-1
 542 735 l 1,3,-1
 -10 735 l 1,4,-1
 -10 880 l 1,5,-1
 687 880 l 1,6,-1
 687 -615 l 1,7,-1
 542 -615 l 1,8,-1
 542 375 l 1,9,-1
 -10 375 l 1,0,-1
EndSplineSet
Validated: 1
EndChar

StartChar: uni2556
Encoding: 9558 9558 342
Width: 1229
GlyphClass: 2
Flags: W
LayerCount: 2
Fore
SplineSet
-10 555 m 1,0,-1
 -10 700 l 1,1,-1
 867 700 l 1,2,-1
 867 -615 l 1,3,-1
 722 -615 l 1,4,-1
 722 555 l 1,5,-1
 507 555 l 1,6,-1
 507 -615 l 1,7,-1
 362 -615 l 1,8,-1
 362 555 l 1,9,-1
 -10 555 l 1,0,-1
EndSplineSet
Validated: 1
EndChar

StartChar: uni2557
Encoding: 9559 9559 343
Width: 1229
GlyphClass: 2
Flags: W
LayerCount: 2
Fore
SplineSet
867 880 m 1,0,-1
 867 -615 l 1,1,-1
 722 -615 l 1,2,-1
 722 735 l 1,3,-1
 -10 735 l 1,4,-1
 -10 880 l 1,5,-1
 867 880 l 1,0,-1
507 -615 m 1,6,-1
 362 -615 l 1,7,-1
 362 375 l 1,8,-1
 -10 375 l 1,9,-1
 -10 520 l 1,10,-1
 507 520 l 1,11,-1
 507 -615 l 1,6,-1
EndSplineSet
Validated: 1
EndChar

StartChar: uni2558
Encoding: 9560 9560 344
Width: 1229
GlyphClass: 2
Flags: W
LayerCount: 2
Fore
SplineSet
542 1705 m 1,0,-1
 687 1705 l 1,1,-1
 687 880 l 1,2,-1
 1239 880 l 1,3,-1
 1239 735 l 1,4,-1
 687 735 l 1,5,-1
 687 520 l 1,6,-1
 1239 520 l 1,7,-1
 1239 375 l 1,8,-1
 542 375 l 1,9,-1
 542 1705 l 1,0,-1
EndSplineSet
Validated: 1
EndChar

StartChar: uni2559
Encoding: 9561 9561 345
Width: 1229
GlyphClass: 2
Flags: W
LayerCount: 2
Fore
SplineSet
722 1705 m 1,0,-1
 867 1705 l 1,1,-1
 867 700 l 1,2,-1
 1239 700 l 1,3,-1
 1239 555 l 1,4,-1
 362 555 l 1,5,-1
 362 1705 l 1,6,-1
 507 1705 l 1,7,-1
 507 700 l 1,8,-1
 722 700 l 1,9,-1
 722 1705 l 1,0,-1
EndSplineSet
Validated: 1
EndChar

StartChar: uni255A
Encoding: 9562 9562 346
Width: 1229
GlyphClass: 2
Flags: W
LayerCount: 2
Fore
SplineSet
362 1705 m 1,0,-1
 507 1705 l 1,1,-1
 507 520 l 1,2,-1
 1239 520 l 1,3,-1
 1239 375 l 1,4,-1
 362 375 l 1,5,-1
 362 1705 l 1,0,-1
722 1705 m 1,6,-1
 867 1705 l 1,7,-1
 867 880 l 1,8,-1
 1239 880 l 1,9,-1
 1239 735 l 1,10,-1
 722 735 l 1,11,-1
 722 1705 l 1,6,-1
EndSplineSet
Validated: 1
EndChar

StartChar: uni255B
Encoding: 9563 9563 347
Width: 1229
GlyphClass: 2
Flags: W
LayerCount: 2
Fore
SplineSet
-10 375 m 1,0,-1
 -10 520 l 1,1,-1
 542 520 l 1,2,-1
 542 735 l 1,3,-1
 -10 735 l 1,4,-1
 -10 880 l 1,5,-1
 542 880 l 1,6,-1
 542 1705 l 1,7,-1
 687 1705 l 1,8,-1
 687 375 l 1,9,-1
 -10 375 l 1,0,-1
EndSplineSet
Validated: 1
EndChar

StartChar: uni255C
Encoding: 9564 9564 348
Width: 1229
GlyphClass: 2
Flags: W
LayerCount: 2
Fore
SplineSet
867 555 m 1,0,-1
 -10 555 l 1,1,-1
 -10 700 l 1,2,-1
 362 700 l 1,3,-1
 362 1705 l 1,4,-1
 507 1705 l 1,5,-1
 507 700 l 1,6,-1
 722 700 l 1,7,-1
 722 1705 l 1,8,-1
 867 1705 l 1,9,-1
 867 555 l 1,0,-1
EndSplineSet
Validated: 1
EndChar

StartChar: uni255D
Encoding: 9565 9565 349
Width: 1229
GlyphClass: 2
Flags: W
LayerCount: 2
Fore
SplineSet
867 375 m 1,0,-1
 -10 375 l 1,1,-1
 -10 520 l 1,2,-1
 722 520 l 1,3,-1
 722 1705 l 1,4,-1
 867 1705 l 1,5,-1
 867 375 l 1,0,-1
362 1705 m 1,6,-1
 507 1705 l 1,7,-1
 507 735 l 1,8,-1
 -10 735 l 1,9,-1
 -10 880 l 1,10,-1
 362 880 l 1,11,-1
 362 1705 l 1,6,-1
EndSplineSet
Validated: 1
EndChar

StartChar: uni255E
Encoding: 9566 9566 350
Width: 1229
GlyphClass: 2
Flags: W
LayerCount: 2
Fore
SplineSet
542 1705 m 1,0,-1
 687 1705 l 1,1,-1
 687 880 l 1,2,-1
 1239 880 l 1,3,-1
 1239 735 l 1,4,-1
 687 735 l 1,5,-1
 687 520 l 1,6,-1
 1239 520 l 1,7,-1
 1239 375 l 1,8,-1
 687 375 l 1,9,-1
 687 -615 l 1,10,-1
 542 -615 l 1,11,-1
 542 1705 l 1,0,-1
EndSplineSet
Validated: 1
EndChar

StartChar: uni255F
Encoding: 9567 9567 351
Width: 1229
GlyphClass: 2
Flags: W
LayerCount: 2
Fore
SplineSet
722 1705 m 1,0,-1
 867 1705 l 1,1,-1
 867 700 l 1,2,-1
 1239 700 l 1,3,-1
 1239 555 l 1,4,-1
 867 555 l 1,5,-1
 867 -615 l 1,6,-1
 722 -615 l 1,7,-1
 722 1705 l 1,0,-1
362 1705 m 1,8,-1
 507 1705 l 1,9,-1
 507 -615 l 1,10,-1
 362 -615 l 1,11,-1
 362 1705 l 1,8,-1
EndSplineSet
Validated: 1
EndChar

StartChar: uni2560
Encoding: 9568 9568 352
Width: 1229
GlyphClass: 2
Flags: W
LayerCount: 2
Fore
SplineSet
507 -615 m 1,0,-1
 362 -615 l 1,1,-1
 362 1705 l 1,2,-1
 507 1705 l 1,3,-1
 507 -615 l 1,0,-1
722 520 m 1,4,-1
 1239 520 l 1,5,-1
 1239 375 l 1,6,-1
 867 375 l 1,7,-1
 867 -615 l 1,8,-1
 722 -615 l 1,9,-1
 722 520 l 1,4,-1
722 1705 m 1,10,-1
 867 1705 l 1,11,-1
 867 880 l 1,12,-1
 1239 880 l 1,13,-1
 1239 735 l 1,14,-1
 722 735 l 1,15,-1
 722 1705 l 1,10,-1
EndSplineSet
Validated: 1
EndChar

StartChar: uni2561
Encoding: 9569 9569 353
Width: 1229
GlyphClass: 2
Flags: W
LayerCount: 2
Fore
SplineSet
-10 375 m 1,0,-1
 -10 520 l 1,1,-1
 542 520 l 1,2,-1
 542 735 l 1,3,-1
 -10 735 l 1,4,-1
 -10 880 l 1,5,-1
 542 880 l 1,6,-1
 542 1705 l 1,7,-1
 687 1705 l 1,8,-1
 687 -615 l 1,9,-1
 542 -615 l 1,10,-1
 542 375 l 1,11,-1
 -10 375 l 1,0,-1
EndSplineSet
Validated: 1
EndChar

StartChar: uni2562
Encoding: 9570 9570 354
Width: 1229
GlyphClass: 2
Flags: W
LayerCount: 2
Fore
SplineSet
-10 555 m 1,0,-1
 -10 700 l 1,1,-1
 362 700 l 1,2,-1
 362 1705 l 1,3,-1
 507 1705 l 1,4,-1
 507 -615 l 1,5,-1
 362 -615 l 1,6,-1
 362 555 l 1,7,-1
 -10 555 l 1,0,-1
722 1705 m 1,8,-1
 867 1705 l 1,9,-1
 867 -615 l 1,10,-1
 722 -615 l 1,11,-1
 722 1705 l 1,8,-1
EndSplineSet
Validated: 1
EndChar

StartChar: uni2563
Encoding: 9571 9571 355
Width: 1229
GlyphClass: 2
Flags: W
LayerCount: 2
Fore
SplineSet
722 1705 m 1,0,-1
 867 1705 l 1,1,-1
 867 -615 l 1,2,-1
 722 -615 l 1,3,-1
 722 1705 l 1,0,-1
362 1705 m 1,4,-1
 507 1705 l 1,5,-1
 507 735 l 1,6,-1
 -10 735 l 1,7,-1
 -10 880 l 1,8,-1
 362 880 l 1,9,-1
 362 1705 l 1,4,-1
507 -615 m 1,10,-1
 362 -615 l 1,11,-1
 362 375 l 1,12,-1
 -10 375 l 1,13,-1
 -10 520 l 1,14,-1
 507 520 l 1,15,-1
 507 -615 l 1,10,-1
EndSplineSet
Validated: 1
EndChar

StartChar: uni2564
Encoding: 9572 9572 356
Width: 1229
GlyphClass: 2
Flags: W
LayerCount: 2
Fore
SplineSet
-10 375 m 1,0,-1
 -10 520 l 1,1,-1
 1239 520 l 1,2,-1
 1239 375 l 1,3,-1
 687 375 l 1,4,-1
 687 -615 l 1,5,-1
 542 -615 l 1,6,-1
 542 375 l 1,7,-1
 -10 375 l 1,0,-1
-10 735 m 1,8,-1
 -10 880 l 1,9,-1
 1239 880 l 1,10,-1
 1239 735 l 1,11,-1
 -10 735 l 1,8,-1
EndSplineSet
Validated: 1
EndChar

StartChar: uni2565
Encoding: 9573 9573 357
Width: 1229
GlyphClass: 2
Flags: W
LayerCount: 2
Fore
SplineSet
-10 555 m 1,0,-1
 -10 700 l 1,1,-1
 1239 700 l 1,2,-1
 1239 555 l 1,3,-1
 867 555 l 1,4,-1
 867 -615 l 1,5,-1
 722 -615 l 1,6,-1
 722 555 l 1,7,-1
 507 555 l 1,8,-1
 507 -615 l 1,9,-1
 362 -615 l 1,10,-1
 362 555 l 1,11,-1
 -10 555 l 1,0,-1
EndSplineSet
Validated: 1
EndChar

StartChar: uni2566
Encoding: 9574 9574 358
Width: 1229
GlyphClass: 2
Flags: W
LayerCount: 2
Fore
SplineSet
507 -615 m 1,0,-1
 362 -615 l 1,1,-1
 362 375 l 1,2,-1
 -10 375 l 1,3,-1
 -10 520 l 1,4,-1
 507 520 l 1,5,-1
 507 -615 l 1,0,-1
722 520 m 1,6,-1
 1239 520 l 1,7,-1
 1239 375 l 1,8,-1
 867 375 l 1,9,-1
 867 -615 l 1,10,-1
 722 -615 l 1,11,-1
 722 520 l 1,6,-1
1239 880 m 1,12,-1
 1239 735 l 1,13,-1
 -10 735 l 1,14,-1
 -10 880 l 1,15,-1
 1239 880 l 1,12,-1
EndSplineSet
Validated: 1
EndChar

StartChar: uni2567
Encoding: 9575 9575 359
Width: 1229
GlyphClass: 2
Flags: W
LayerCount: 2
Fore
SplineSet
-10 735 m 1,0,-1
 -10 880 l 1,1,-1
 542 880 l 1,2,-1
 542 1705 l 1,3,-1
 687 1705 l 1,4,-1
 687 880 l 1,5,-1
 1239 880 l 1,6,-1
 1239 735 l 1,7,-1
 -10 735 l 1,0,-1
-10 375 m 1,8,-1
 -10 520 l 1,9,-1
 1239 520 l 1,10,-1
 1239 375 l 1,11,-1
 -10 375 l 1,8,-1
EndSplineSet
Validated: 1
EndChar

StartChar: uni2568
Encoding: 9576 9576 360
Width: 1229
GlyphClass: 2
Flags: W
LayerCount: 2
Fore
SplineSet
-10 555 m 1,0,-1
 -10 700 l 1,1,-1
 362 700 l 1,2,-1
 362 1705 l 1,3,-1
 507 1705 l 1,4,-1
 507 700 l 1,5,-1
 722 700 l 1,6,-1
 722 1705 l 1,7,-1
 867 1705 l 1,8,-1
 867 700 l 1,9,-1
 1239 700 l 1,10,-1
 1239 555 l 1,11,-1
 -10 555 l 1,0,-1
EndSplineSet
Validated: 1
EndChar

StartChar: uni2569
Encoding: 9577 9577 361
Width: 1229
GlyphClass: 2
Flags: W
LayerCount: 2
Fore
SplineSet
722 1705 m 1,0,-1
 867 1705 l 1,1,-1
 867 880 l 1,2,-1
 1239 880 l 1,3,-1
 1239 735 l 1,4,-1
 722 735 l 1,5,-1
 722 1705 l 1,0,-1
362 1705 m 1,6,-1
 507 1705 l 1,7,-1
 507 735 l 1,8,-1
 -10 735 l 1,9,-1
 -10 880 l 1,10,-1
 362 880 l 1,11,-1
 362 1705 l 1,6,-1
-10 375 m 1,12,-1
 -10 520 l 1,13,-1
 1239 520 l 1,14,-1
 1239 375 l 1,15,-1
 -10 375 l 1,12,-1
EndSplineSet
Validated: 1
EndChar

StartChar: uni256A
Encoding: 9578 9578 362
Width: 1229
GlyphClass: 2
Flags: W
LayerCount: 2
Fore
SplineSet
-10 375 m 1,0,-1
 -10 520 l 1,1,-1
 542 520 l 1,2,-1
 542 735 l 1,3,-1
 -10 735 l 1,4,-1
 -10 880 l 1,5,-1
 542 880 l 1,6,-1
 542 1705 l 1,7,-1
 687 1705 l 1,8,-1
 687 880 l 1,9,-1
 1239 880 l 1,10,-1
 1239 735 l 1,11,-1
 687 735 l 1,12,-1
 687 520 l 1,13,-1
 1239 520 l 1,14,-1
 1239 375 l 1,15,-1
 687 375 l 1,16,-1
 687 -615 l 1,17,-1
 542 -615 l 1,18,-1
 542 375 l 1,19,-1
 -10 375 l 1,0,-1
EndSplineSet
Validated: 1
EndChar

StartChar: uni256B
Encoding: 9579 9579 363
Width: 1229
GlyphClass: 2
Flags: W
LayerCount: 2
Fore
SplineSet
722 1705 m 1,0,-1
 867 1705 l 1,1,-1
 867 700 l 1,2,-1
 1239 700 l 1,3,-1
 1239 555 l 1,4,-1
 867 555 l 1,5,-1
 867 -615 l 1,6,-1
 722 -615 l 1,7,-1
 722 555 l 1,8,-1
 507 555 l 1,9,-1
 507 -615 l 1,10,-1
 362 -615 l 1,11,-1
 362 555 l 1,12,-1
 -10 555 l 1,13,-1
 -10 700 l 1,14,-1
 362 700 l 1,15,-1
 362 1705 l 1,16,-1
 507 1705 l 1,17,-1
 507 700 l 1,18,-1
 722 700 l 1,19,-1
 722 1705 l 1,0,-1
EndSplineSet
Validated: 1
EndChar

StartChar: uni256C
Encoding: 9580 9580 364
Width: 1229
GlyphClass: 2
Flags: W
LayerCount: 2
Fore
SplineSet
722 1705 m 1,0,-1
 867 1705 l 1,1,-1
 867 880 l 1,2,-1
 1239 880 l 1,3,-1
 1239 735 l 1,4,-1
 722 735 l 1,5,-1
 722 1705 l 1,0,-1
507 -615 m 1,6,-1
 362 -615 l 1,7,-1
 362 375 l 1,8,-1
 -10 375 l 1,9,-1
 -10 520 l 1,10,-1
 507 520 l 1,11,-1
 507 -615 l 1,6,-1
722 520 m 1,12,-1
 1239 520 l 1,13,-1
 1239 375 l 1,14,-1
 867 375 l 1,15,-1
 867 -615 l 1,16,-1
 722 -615 l 1,17,-1
 722 520 l 1,12,-1
362 1705 m 1,18,-1
 507 1705 l 1,19,-1
 507 735 l 1,20,-1
 -10 735 l 1,21,-1
 -10 880 l 1,22,-1
 362 880 l 1,23,-1
 362 1705 l 1,18,-1
EndSplineSet
Validated: 1
EndChar

StartChar: upblock
Encoding: 9600 9600 365
Width: 1229
GlyphClass: 2
Flags: W
LayerCount: 2
Fore
SplineSet
1229 627 m 1,0,-1
 0 627 l 1,1,-1
 0 1705 l 1,2,-1
 1229 1705 l 1,3,-1
 1229 627 l 1,0,-1
EndSplineSet
Validated: 1
EndChar

StartChar: dnblock
Encoding: 9604 9604 366
Width: 1229
GlyphClass: 2
Flags: W
LayerCount: 2
Fore
SplineSet
1229 -615 m 1,0,-1
 0 -615 l 1,1,-1
 0 627 l 1,2,-1
 1229 627 l 1,3,-1
 1229 -615 l 1,0,-1
EndSplineSet
Validated: 1
EndChar

StartChar: block
Encoding: 9608 9608 367
Width: 1229
GlyphClass: 2
Flags: W
LayerCount: 2
Fore
SplineSet
1229 -615 m 1,0,-1
 0 -615 l 1,1,-1
 0 1705 l 1,2,-1
 1229 1705 l 1,3,-1
 1229 -615 l 1,0,-1
EndSplineSet
Validated: 1
EndChar

StartChar: lfblock
Encoding: 9612 9612 368
Width: 1229
GlyphClass: 2
Flags: W
LayerCount: 2
Fore
SplineSet
615 -615 m 1,0,-1
 0 -615 l 1,1,-1
 0 1705 l 1,2,-1
 615 1705 l 1,3,-1
 615 -615 l 1,0,-1
EndSplineSet
Validated: 1
EndChar

StartChar: rtblock
Encoding: 9616 9616 369
Width: 1229
GlyphClass: 2
Flags: W
LayerCount: 2
Fore
SplineSet
1229 -615 m 1,0,-1
 614 -615 l 1,1,-1
 614 1705 l 1,2,-1
 1229 1705 l 1,3,-1
 1229 -615 l 1,0,-1
EndSplineSet
Validated: 1
EndChar

StartChar: ltshade
Encoding: 9617 9617 370
Width: 1229
GlyphClass: 2
Flags: W
LayerCount: 2
Fore
SplineSet
0 1320 m 1,0,-1
 103 1320 l 1,1,-1
 103 1222 l 1,2,-1
 0 1222 l 1,3,-1
 0 1320 l 1,0,-1
410 1320 m 1,4,-1
 513 1320 l 1,5,-1
 513 1222 l 1,6,-1
 410 1222 l 1,7,-1
 410 1320 l 1,4,-1
820 1320 m 1,8,-1
 923 1320 l 1,9,-1
 923 1222 l 1,10,-1
 820 1222 l 1,11,-1
 820 1320 l 1,8,-1
205 1125 m 1,12,-1
 307 1125 l 1,13,-1
 307 1029 l 1,14,-1
 205 1029 l 1,15,-1
 205 1125 l 1,12,-1
615 1125 m 1,16,-1
 717 1125 l 1,17,-1
 717 1029 l 1,18,-1
 615 1029 l 1,19,-1
 615 1125 l 1,16,-1
1025 1125 m 1,20,-1
 1127 1125 l 1,21,-1
 1127 1029 l 1,22,-1
 1025 1029 l 1,23,-1
 1025 1125 l 1,20,-1
0 933 m 1,24,-1
 103 933 l 1,25,-1
 103 837 l 1,26,-1
 0 837 l 1,27,-1
 0 933 l 1,24,-1
410 933 m 1,28,-1
 513 933 l 1,29,-1
 513 837 l 1,30,-1
 410 837 l 1,31,-1
 410 933 l 1,28,-1
820 933 m 1,32,-1
 923 933 l 1,33,-1
 923 837 l 1,34,-1
 820 837 l 1,35,-1
 820 933 l 1,32,-1
205 738 m 1,36,-1
 307 738 l 1,37,-1
 307 642 l 1,38,-1
 205 642 l 1,39,-1
 205 738 l 1,36,-1
615 738 m 1,40,-1
 717 738 l 1,41,-1
 717 642 l 1,42,-1
 615 642 l 1,43,-1
 615 738 l 1,40,-1
1025 738 m 1,44,-1
 1127 738 l 1,45,-1
 1127 642 l 1,46,-1
 1025 642 l 1,47,-1
 1025 738 l 1,44,-1
0 546 m 1,48,-1
 103 546 l 1,49,-1
 103 450 l 1,50,-1
 0 450 l 1,51,-1
 0 546 l 1,48,-1
410 546 m 1,52,-1
 513 546 l 1,53,-1
 513 450 l 1,54,-1
 410 450 l 1,55,-1
 410 546 l 1,52,-1
820 546 m 1,56,-1
 923 546 l 1,57,-1
 923 450 l 1,58,-1
 820 450 l 1,59,-1
 820 546 l 1,56,-1
615 351 m 1,60,-1
 717 351 l 1,61,-1
 717 255 l 1,62,-1
 615 255 l 1,63,-1
 615 351 l 1,60,-1
1025 351 m 1,64,-1
 1127 351 l 1,65,-1
 1127 255 l 1,66,-1
 1025 255 l 1,67,-1
 1025 351 l 1,64,-1
205 351 m 1,68,-1
 307 351 l 1,69,-1
 307 255 l 1,70,-1
 205 255 l 1,71,-1
 205 351 l 1,68,-1
820 159 m 1,72,-1
 923 159 l 1,73,-1
 923 62 l 1,74,-1
 820 62 l 1,75,-1
 820 159 l 1,72,-1
410 159 m 1,76,-1
 513 159 l 1,77,-1
 513 62 l 1,78,-1
 410 62 l 1,79,-1
 410 159 l 1,76,-1
0 159 m 1,80,-1
 103 159 l 1,81,-1
 103 62 l 1,82,-1
 0 62 l 1,83,-1
 0 159 l 1,80,-1
205 -36 m 1,84,-1
 307 -36 l 1,85,-1
 307 -130 l 1,86,-1
 205 -130 l 1,87,-1
 205 -36 l 1,84,-1
615 -36 m 1,88,-1
 717 -36 l 1,89,-1
 717 -130 l 1,90,-1
 615 -130 l 1,91,-1
 615 -36 l 1,88,-1
1025 -36 m 1,92,-1
 1127 -36 l 1,93,-1
 1127 -130 l 1,94,-1
 1025 -130 l 1,95,-1
 1025 -36 l 1,92,-1
820 -228 m 1,96,-1
 923 -228 l 1,97,-1
 923 -325 l 1,98,-1
 820 -325 l 1,99,-1
 820 -228 l 1,96,-1
410 -228 m 1,100,-1
 513 -228 l 1,101,-1
 513 -325 l 1,102,-1
 410 -325 l 1,103,-1
 410 -228 l 1,100,-1
0 -228 m 1,104,-1
 103 -228 l 1,105,-1
 103 -325 l 1,106,-1
 0 -325 l 1,107,-1
 0 -228 l 1,104,-1
205 -421 m 1,108,-1
 307 -421 l 1,109,-1
 307 -517 l 1,110,-1
 205 -517 l 1,111,-1
 205 -421 l 1,108,-1
615 -421 m 1,112,-1
 717 -421 l 1,113,-1
 717 -517 l 1,114,-1
 615 -517 l 1,115,-1
 615 -421 l 1,112,-1
1025 -421 m 1,116,-1
 1127 -421 l 1,117,-1
 1127 -517 l 1,118,-1
 1025 -517 l 1,119,-1
 1025 -421 l 1,116,-1
205 1512 m 1,120,-1
 307 1512 l 1,121,-1
 307 1414 l 1,122,-1
 205 1414 l 1,123,-1
 205 1512 l 1,120,-1
615 1512 m 1,124,-1
 717 1512 l 1,125,-1
 717 1414 l 1,126,-1
 615 1414 l 1,127,-1
 615 1512 l 1,124,-1
1025 1512 m 1,128,-1
 1127 1512 l 1,129,-1
 1127 1414 l 1,130,-1
 1025 1414 l 1,131,-1
 1025 1512 l 1,128,-1
0 1705 m 1,132,-1
 103 1705 l 1,133,-1
 103 1609 l 1,134,-1
 0 1609 l 1,135,-1
 0 1705 l 1,132,-1
410 1705 m 1,136,-1
 513 1705 l 1,137,-1
 513 1609 l 1,138,-1
 410 1609 l 1,139,-1
 410 1705 l 1,136,-1
820 1705 m 1,140,-1
 923 1705 l 1,141,-1
 923 1609 l 1,142,-1
 820 1609 l 1,143,-1
 820 1705 l 1,140,-1
EndSplineSet
Validated: 1
EndChar

StartChar: shade
Encoding: 9618 9618 371
Width: 1229
GlyphClass: 2
Flags: W
LayerCount: 2
Fore
SplineSet
102 1320 m 1,0,-1
 205 1320 l 1,1,-1
 205 1222 l 1,2,-1
 102 1222 l 1,3,-1
 102 1320 l 1,0,-1
307 1320 m 1,4,-1
 410 1320 l 1,5,-1
 410 1222 l 1,6,-1
 307 1222 l 1,7,-1
 307 1320 l 1,4,-1
512 1320 m 1,8,-1
 615 1320 l 1,9,-1
 615 1222 l 1,10,-1
 512 1222 l 1,11,-1
 512 1320 l 1,8,-1
717 1320 m 1,12,-1
 820 1320 l 1,13,-1
 820 1222 l 1,14,-1
 717 1222 l 1,15,-1
 717 1320 l 1,12,-1
922 1320 m 1,16,-1
 1025 1320 l 1,17,-1
 1025 1222 l 1,18,-1
 922 1222 l 1,19,-1
 922 1320 l 1,16,-1
1127 1320 m 1,20,-1
 1230 1320 l 1,21,-1
 1230 1222 l 1,22,-1
 1127 1222 l 1,23,-1
 1127 1320 l 1,20,-1
0 1125 m 1,24,-1
 102 1125 l 1,25,-1
 102 1029 l 1,26,-1
 0 1029 l 1,27,-1
 0 1125 l 1,24,-1
205 1125 m 1,28,-1
 307 1125 l 1,29,-1
 307 1029 l 1,30,-1
 205 1029 l 1,31,-1
 205 1125 l 1,28,-1
410 1125 m 1,32,-1
 512 1125 l 1,33,-1
 512 1029 l 1,34,-1
 410 1029 l 1,35,-1
 410 1125 l 1,32,-1
615 1125 m 1,36,-1
 717 1125 l 1,37,-1
 717 1029 l 1,38,-1
 615 1029 l 1,39,-1
 615 1125 l 1,36,-1
820 1125 m 1,40,-1
 922 1125 l 1,41,-1
 922 1029 l 1,42,-1
 820 1029 l 1,43,-1
 820 1125 l 1,40,-1
1025 1125 m 1,44,-1
 1127 1125 l 1,45,-1
 1127 1029 l 1,46,-1
 1025 1029 l 1,47,-1
 1025 1125 l 1,44,-1
102 933 m 1,48,-1
 205 933 l 1,49,-1
 205 837 l 1,50,-1
 102 837 l 1,51,-1
 102 933 l 1,48,-1
307 933 m 1,52,-1
 410 933 l 1,53,-1
 410 837 l 1,54,-1
 307 837 l 1,55,-1
 307 933 l 1,52,-1
512 933 m 1,56,-1
 615 933 l 1,57,-1
 615 837 l 1,58,-1
 512 837 l 1,59,-1
 512 933 l 1,56,-1
717 933 m 1,60,-1
 820 933 l 1,61,-1
 820 837 l 1,62,-1
 717 837 l 1,63,-1
 717 933 l 1,60,-1
922 933 m 1,64,-1
 1025 933 l 1,65,-1
 1025 837 l 1,66,-1
 922 837 l 1,67,-1
 922 933 l 1,64,-1
1127 933 m 1,68,-1
 1230 933 l 1,69,-1
 1230 837 l 1,70,-1
 1127 837 l 1,71,-1
 1127 933 l 1,68,-1
0 738 m 1,72,-1
 102 738 l 1,73,-1
 102 642 l 1,74,-1
 0 642 l 1,75,-1
 0 738 l 1,72,-1
205 738 m 1,76,-1
 307 738 l 1,77,-1
 307 642 l 1,78,-1
 205 642 l 1,79,-1
 205 738 l 1,76,-1
410 738 m 1,80,-1
 512 738 l 1,81,-1
 512 642 l 1,82,-1
 410 642 l 1,83,-1
 410 738 l 1,80,-1
615 738 m 1,84,-1
 717 738 l 1,85,-1
 717 642 l 1,86,-1
 615 642 l 1,87,-1
 615 738 l 1,84,-1
820 738 m 1,88,-1
 922 738 l 1,89,-1
 922 642 l 1,90,-1
 820 642 l 1,91,-1
 820 738 l 1,88,-1
1025 738 m 1,92,-1
 1127 738 l 1,93,-1
 1127 642 l 1,94,-1
 1025 642 l 1,95,-1
 1025 738 l 1,92,-1
102 546 m 1,96,-1
 205 546 l 1,97,-1
 205 450 l 1,98,-1
 102 450 l 1,99,-1
 102 546 l 1,96,-1
307 546 m 1,100,-1
 410 546 l 1,101,-1
 410 450 l 1,102,-1
 307 450 l 1,103,-1
 307 546 l 1,100,-1
512 546 m 1,104,-1
 615 546 l 1,105,-1
 615 450 l 1,106,-1
 512 450 l 1,107,-1
 512 546 l 1,104,-1
717 546 m 1,108,-1
 820 546 l 1,109,-1
 820 450 l 1,110,-1
 717 450 l 1,111,-1
 717 546 l 1,108,-1
922 546 m 1,112,-1
 1025 546 l 1,113,-1
 1025 450 l 1,114,-1
 922 450 l 1,115,-1
 922 546 l 1,112,-1
1127 546 m 1,116,-1
 1230 546 l 1,117,-1
 1230 450 l 1,118,-1
 1127 450 l 1,119,-1
 1127 546 l 1,116,-1
0 351 m 1,120,-1
 102 351 l 1,121,-1
 102 255 l 1,122,-1
 0 255 l 1,123,-1
 0 351 l 1,120,-1
410 351 m 1,124,-1
 512 351 l 1,125,-1
 512 255 l 1,126,-1
 410 255 l 1,127,-1
 410 351 l 1,124,-1
615 351 m 1,128,-1
 717 351 l 1,129,-1
 717 255 l 1,130,-1
 615 255 l 1,131,-1
 615 351 l 1,128,-1
820 351 m 1,132,-1
 922 351 l 1,133,-1
 922 255 l 1,134,-1
 820 255 l 1,135,-1
 820 351 l 1,132,-1
1025 351 m 1,136,-1
 1127 351 l 1,137,-1
 1127 255 l 1,138,-1
 1025 255 l 1,139,-1
 1025 351 l 1,136,-1
205 351 m 1,140,-1
 307 351 l 1,141,-1
 307 255 l 1,142,-1
 205 255 l 1,143,-1
 205 351 l 1,140,-1
1127 159 m 1,144,-1
 1230 159 l 1,145,-1
 1230 62 l 1,146,-1
 1127 62 l 1,147,-1
 1127 159 l 1,144,-1
922 159 m 1,148,-1
 1025 159 l 1,149,-1
 1025 62 l 1,150,-1
 922 62 l 1,151,-1
 922 159 l 1,148,-1
717 159 m 1,152,-1
 820 159 l 1,153,-1
 820 62 l 1,154,-1
 717 62 l 1,155,-1
 717 159 l 1,152,-1
512 159 m 1,156,-1
 615 159 l 1,157,-1
 615 62 l 1,158,-1
 512 62 l 1,159,-1
 512 159 l 1,156,-1
307 159 m 1,160,-1
 410 159 l 1,161,-1
 410 62 l 1,162,-1
 307 62 l 1,163,-1
 307 159 l 1,160,-1
102 159 m 1,164,-1
 205 159 l 1,165,-1
 205 62 l 1,166,-1
 102 62 l 1,167,-1
 102 159 l 1,164,-1
0 -36 m 1,168,-1
 102 -36 l 1,169,-1
 102 -130 l 1,170,-1
 0 -130 l 1,171,-1
 0 -36 l 1,168,-1
205 -36 m 1,172,-1
 307 -36 l 1,173,-1
 307 -130 l 1,174,-1
 205 -130 l 1,175,-1
 205 -36 l 1,172,-1
410 -36 m 1,176,-1
 512 -36 l 1,177,-1
 512 -130 l 1,178,-1
 410 -130 l 1,179,-1
 410 -36 l 1,176,-1
615 -36 m 1,180,-1
 717 -36 l 1,181,-1
 717 -130 l 1,182,-1
 615 -130 l 1,183,-1
 615 -36 l 1,180,-1
820 -36 m 1,184,-1
 922 -36 l 1,185,-1
 922 -130 l 1,186,-1
 820 -130 l 1,187,-1
 820 -36 l 1,184,-1
1025 -36 m 1,188,-1
 1127 -36 l 1,189,-1
 1127 -130 l 1,190,-1
 1025 -130 l 1,191,-1
 1025 -36 l 1,188,-1
1127 -228 m 1,192,-1
 1230 -228 l 1,193,-1
 1230 -325 l 1,194,-1
 1127 -325 l 1,195,-1
 1127 -228 l 1,192,-1
922 -228 m 1,196,-1
 1025 -228 l 1,197,-1
 1025 -325 l 1,198,-1
 922 -325 l 1,199,-1
 922 -228 l 1,196,-1
717 -228 m 1,200,-1
 820 -228 l 1,201,-1
 820 -325 l 1,202,-1
 717 -325 l 1,203,-1
 717 -228 l 1,200,-1
512 -228 m 1,204,-1
 615 -228 l 1,205,-1
 615 -325 l 1,206,-1
 512 -325 l 1,207,-1
 512 -228 l 1,204,-1
307 -228 m 1,208,-1
 410 -228 l 1,209,-1
 410 -325 l 1,210,-1
 307 -325 l 1,211,-1
 307 -228 l 1,208,-1
102 -228 m 1,212,-1
 205 -228 l 1,213,-1
 205 -325 l 1,214,-1
 102 -325 l 1,215,-1
 102 -228 l 1,212,-1
0 -421 m 1,216,-1
 102 -421 l 1,217,-1
 102 -517 l 1,218,-1
 0 -517 l 1,219,-1
 0 -421 l 1,216,-1
205 -421 m 1,220,-1
 307 -421 l 1,221,-1
 307 -517 l 1,222,-1
 205 -517 l 1,223,-1
 205 -421 l 1,220,-1
410 -421 m 1,224,-1
 512 -421 l 1,225,-1
 512 -517 l 1,226,-1
 410 -517 l 1,227,-1
 410 -421 l 1,224,-1
615 -421 m 1,228,-1
 717 -421 l 1,229,-1
 717 -517 l 1,230,-1
 615 -517 l 1,231,-1
 615 -421 l 1,228,-1
820 -421 m 1,232,-1
 922 -421 l 1,233,-1
 922 -517 l 1,234,-1
 820 -517 l 1,235,-1
 820 -421 l 1,232,-1
1025 -421 m 1,236,-1
 1127 -421 l 1,237,-1
 1127 -517 l 1,238,-1
 1025 -517 l 1,239,-1
 1025 -421 l 1,236,-1
0 1512 m 1,240,-1
 102 1512 l 1,241,-1
 102 1414 l 1,242,-1
 0 1414 l 1,243,-1
 0 1512 l 1,240,-1
205 1512 m 1,244,-1
 307 1512 l 1,245,-1
 307 1414 l 1,246,-1
 205 1414 l 1,247,-1
 205 1512 l 1,244,-1
410 1512 m 1,248,-1
 512 1512 l 1,249,-1
 512 1414 l 1,250,-1
 410 1414 l 1,251,-1
 410 1512 l 1,248,-1
615 1512 m 1,252,-1
 717 1512 l 1,253,-1
 717 1414 l 1,254,-1
 615 1414 l 1,255,-1
 615 1512 l 1,252,-1
820 1512 m 1,256,-1
 922 1512 l 1,257,-1
 922 1414 l 1,258,-1
 820 1414 l 1,259,-1
 820 1512 l 1,256,-1
1025 1512 m 1,260,-1
 1127 1512 l 1,261,-1
 1127 1414 l 1,262,-1
 1025 1414 l 1,263,-1
 1025 1512 l 1,260,-1
102 1705 m 1,264,-1
 205 1705 l 1,265,-1
 205 1609 l 1,266,-1
 102 1609 l 1,267,-1
 102 1705 l 1,264,-1
307 1705 m 1,268,-1
 410 1705 l 1,269,-1
 410 1609 l 1,270,-1
 307 1609 l 1,271,-1
 307 1705 l 1,268,-1
512 1705 m 1,272,-1
 615 1705 l 1,273,-1
 615 1609 l 1,274,-1
 512 1609 l 1,275,-1
 512 1705 l 1,272,-1
717 1705 m 1,276,-1
 820 1705 l 1,277,-1
 820 1609 l 1,278,-1
 717 1609 l 1,279,-1
 717 1705 l 1,276,-1
922 1705 m 1,280,-1
 1025 1705 l 1,281,-1
 1025 1609 l 1,282,-1
 922 1609 l 1,283,-1
 922 1705 l 1,280,-1
1127 1705 m 1,284,-1
 1230 1705 l 1,285,-1
 1230 1609 l 1,286,-1
 1127 1609 l 1,287,-1
 1127 1705 l 1,284,-1
EndSplineSet
Validated: 1
EndChar

StartChar: dkshade
Encoding: 9619 9619 372
Width: 1229
GlyphClass: 2
Flags: W
LayerCount: 2
Fore
SplineSet
1230 -615 m 1,0,-1
 0 -615 l 1,1,-1
 0 -325 l 1,2,-1
 102 -325 l 1,3,-1
 102 -228 l 1,4,-1
 0 -228 l 1,5,-1
 0 62 l 1,6,-1
 102 62 l 1,7,-1
 102 159 l 1,8,-1
 0 159 l 1,9,-1
 0 450 l 1,10,-1
 102 450 l 1,11,-1
 102 546 l 1,12,-1
 0 546 l 1,13,-1
 0 835 l 1,14,-1
 102 835 l 1,15,-1
 102 933 l 1,16,-1
 0 933 l 1,17,-1
 0 1222 l 1,18,-1
 102 1222 l 1,19,-1
 102 1320 l 1,20,-1
 0 1320 l 1,21,-1
 0 1609 l 1,22,-1
 102 1609 l 1,23,-1
 102 1705 l 1,24,-1
 205 1705 l 1,25,-1
 205 1609 l 1,26,-1
 307 1609 l 1,27,-1
 307 1705 l 1,28,-1
 410 1705 l 1,29,-1
 410 1609 l 1,30,-1
 512 1609 l 1,31,-1
 512 1705 l 1,32,-1
 615 1705 l 1,33,-1
 615 1609 l 1,34,-1
 717 1609 l 1,35,-1
 717 1705 l 1,36,-1
 820 1705 l 1,37,-1
 820 1609 l 1,38,-1
 922 1609 l 1,39,-1
 922 1705 l 1,40,-1
 1025 1705 l 1,41,-1
 1025 1609 l 1,42,-1
 1127 1609 l 1,43,-1
 1127 1705 l 1,44,-1
 1230 1705 l 1,45,-1
 1230 1512 l 1,46,-1
 1127 1512 l 1,47,-1
 1127 1414 l 1,48,-1
 1230 1414 l 1,49,-1
 1230 1125 l 1,50,-1
 1127 1125 l 1,51,-1
 1127 1029 l 1,52,-1
 1230 1029 l 1,53,-1
 1230 738 l 1,54,-1
 1127 738 l 1,55,-1
 1127 642 l 1,56,-1
 1230 642 l 1,57,-1
 1230 351 l 1,58,-1
 1127 351 l 1,59,-1
 1127 255 l 1,60,-1
 1230 255 l 1,61,-1
 1230 -36 l 1,62,-1
 1127 -36 l 1,63,-1
 1127 -130 l 1,64,-1
 1230 -130 l 1,65,-1
 1230 -421 l 1,66,-1
 1127 -421 l 1,67,-1
 1127 -517 l 1,68,-1
 1230 -517 l 1,69,-1
 1230 -615 l 1,0,-1
102 1125 m 1,70,-1
 102 1029 l 1,71,-1
 205 1029 l 1,72,-1
 205 1125 l 1,73,-1
 102 1125 l 1,70,-1
307 1125 m 1,74,-1
 307 1029 l 1,75,-1
 410 1029 l 1,76,-1
 410 1125 l 1,77,-1
 307 1125 l 1,74,-1
512 1125 m 1,78,-1
 512 1029 l 1,79,-1
 615 1029 l 1,80,-1
 615 1125 l 1,81,-1
 512 1125 l 1,78,-1
717 1125 m 1,82,-1
 717 1029 l 1,83,-1
 820 1029 l 1,84,-1
 820 1125 l 1,85,-1
 717 1125 l 1,82,-1
922 933 m 1,86,-1
 820 933 l 1,87,-1
 820 835 l 1,88,-1
 922 835 l 1,89,-1
 922 933 l 1,86,-1
717 933 m 1,90,-1
 615 933 l 1,91,-1
 615 835 l 1,92,-1
 717 835 l 1,93,-1
 717 933 l 1,90,-1
512 933 m 1,94,-1
 410 933 l 1,95,-1
 410 835 l 1,96,-1
 512 835 l 1,97,-1
 512 933 l 1,94,-1
307 933 m 1,98,-1
 205 933 l 1,99,-1
 205 835 l 1,100,-1
 307 835 l 1,101,-1
 307 933 l 1,98,-1
102 738 m 1,102,-1
 102 642 l 1,103,-1
 205 642 l 1,104,-1
 205 738 l 1,105,-1
 102 738 l 1,102,-1
307 738 m 1,106,-1
 307 642 l 1,107,-1
 410 642 l 1,108,-1
 410 738 l 1,109,-1
 307 738 l 1,106,-1
512 738 m 1,110,-1
 512 642 l 1,111,-1
 615 642 l 1,112,-1
 615 738 l 1,113,-1
 512 738 l 1,110,-1
717 738 m 1,114,-1
 717 642 l 1,115,-1
 820 642 l 1,116,-1
 820 738 l 1,117,-1
 717 738 l 1,114,-1
307 546 m 1,118,-1
 205 546 l 1,119,-1
 205 450 l 1,120,-1
 307 450 l 1,121,-1
 307 546 l 1,118,-1
410 546 m 1,122,-1
 410 450 l 1,123,-1
 512 450 l 1,124,-1
 512 546 l 1,125,-1
 410 546 l 1,122,-1
615 546 m 1,126,-1
 615 450 l 1,127,-1
 717 450 l 1,128,-1
 717 546 l 1,129,-1
 615 546 l 1,126,-1
820 546 m 1,130,-1
 820 450 l 1,131,-1
 922 450 l 1,132,-1
 922 546 l 1,133,-1
 820 546 l 1,130,-1
102 351 m 1,134,-1
 102 255 l 1,135,-1
 205 255 l 1,136,-1
 205 351 l 1,137,-1
 102 351 l 1,134,-1
512 351 m 1,138,-1
 512 255 l 1,139,-1
 615 255 l 1,140,-1
 615 351 l 1,141,-1
 512 351 l 1,138,-1
410 255 m 1,142,-1
 410 351 l 1,143,-1
 307 351 l 1,144,-1
 307 255 l 1,145,-1
 410 255 l 1,142,-1
717 351 m 1,146,-1
 717 255 l 1,147,-1
 820 255 l 1,148,-1
 820 351 l 1,149,-1
 717 351 l 1,146,-1
922 62 m 1,150,-1
 922 159 l 1,151,-1
 820 159 l 1,152,-1
 820 62 l 1,153,-1
 922 62 l 1,150,-1
717 62 m 1,154,-1
 717 159 l 1,155,-1
 615 159 l 1,156,-1
 615 62 l 1,157,-1
 717 62 l 1,154,-1
512 62 m 1,158,-1
 512 159 l 1,159,-1
 410 159 l 1,160,-1
 410 62 l 1,161,-1
 512 62 l 1,158,-1
307 62 m 1,162,-1
 307 159 l 1,163,-1
 205 159 l 1,164,-1
 205 62 l 1,165,-1
 307 62 l 1,162,-1
102 -36 m 1,166,-1
 102 -130 l 1,167,-1
 205 -130 l 1,168,-1
 205 -36 l 1,169,-1
 102 -36 l 1,166,-1
307 -36 m 1,170,-1
 307 -130 l 1,171,-1
 410 -130 l 1,172,-1
 410 -36 l 1,173,-1
 307 -36 l 1,170,-1
512 -36 m 1,174,-1
 512 -130 l 1,175,-1
 615 -130 l 1,176,-1
 615 -36 l 1,177,-1
 512 -36 l 1,174,-1
717 -36 m 1,178,-1
 717 -130 l 1,179,-1
 820 -130 l 1,180,-1
 820 -36 l 1,181,-1
 717 -36 l 1,178,-1
922 -325 m 1,182,-1
 922 -228 l 1,183,-1
 820 -228 l 1,184,-1
 820 -325 l 1,185,-1
 922 -325 l 1,182,-1
717 -325 m 1,186,-1
 717 -228 l 1,187,-1
 615 -228 l 1,188,-1
 615 -325 l 1,189,-1
 717 -325 l 1,186,-1
512 -325 m 1,190,-1
 512 -228 l 1,191,-1
 410 -228 l 1,192,-1
 410 -325 l 1,193,-1
 512 -325 l 1,190,-1
307 -325 m 1,194,-1
 307 -228 l 1,195,-1
 205 -228 l 1,196,-1
 205 -325 l 1,197,-1
 307 -325 l 1,194,-1
102 -421 m 1,198,-1
 102 -517 l 1,199,-1
 205 -517 l 1,200,-1
 205 -421 l 1,201,-1
 102 -421 l 1,198,-1
307 -421 m 1,202,-1
 307 -517 l 1,203,-1
 410 -517 l 1,204,-1
 410 -421 l 1,205,-1
 307 -421 l 1,202,-1
512 -421 m 1,206,-1
 512 -517 l 1,207,-1
 615 -517 l 1,208,-1
 615 -421 l 1,209,-1
 512 -421 l 1,206,-1
717 -421 m 1,210,-1
 717 -517 l 1,211,-1
 820 -517 l 1,212,-1
 820 -421 l 1,213,-1
 717 -421 l 1,210,-1
922 1320 m 1,214,-1
 820 1320 l 1,215,-1
 820 1222 l 1,216,-1
 922 1222 l 1,217,-1
 922 1320 l 1,214,-1
717 1320 m 1,218,-1
 615 1320 l 1,219,-1
 615 1222 l 1,220,-1
 717 1222 l 1,221,-1
 717 1320 l 1,218,-1
512 1320 m 1,222,-1
 410 1320 l 1,223,-1
 410 1222 l 1,224,-1
 512 1222 l 1,225,-1
 512 1320 l 1,222,-1
307 1320 m 1,226,-1
 205 1320 l 1,227,-1
 205 1222 l 1,228,-1
 307 1222 l 1,229,-1
 307 1320 l 1,226,-1
820 1512 m 1,230,-1
 717 1512 l 1,231,-1
 717 1414 l 1,232,-1
 820 1414 l 1,233,-1
 820 1512 l 1,230,-1
615 1512 m 1,234,-1
 512 1512 l 1,235,-1
 512 1414 l 1,236,-1
 615 1414 l 1,237,-1
 615 1512 l 1,234,-1
410 1512 m 1,238,-1
 307 1512 l 1,239,-1
 307 1414 l 1,240,-1
 410 1414 l 1,241,-1
 410 1512 l 1,238,-1
205 1512 m 1,242,-1
 102 1512 l 1,243,-1
 102 1414 l 1,244,-1
 205 1414 l 1,245,-1
 205 1512 l 1,242,-1
922 1125 m 1,246,-1
 922 1029 l 1,247,-1
 1025 1029 l 1,248,-1
 1025 1125 l 1,249,-1
 922 1125 l 1,246,-1
1127 933 m 1,250,-1
 1025 933 l 1,251,-1
 1025 835 l 1,252,-1
 1127 835 l 1,253,-1
 1127 933 l 1,250,-1
922 738 m 1,254,-1
 922 642 l 1,255,-1
 1025 642 l 1,256,-1
 1025 738 l 1,257,-1
 922 738 l 1,254,-1
1025 546 m 1,258,-1
 1025 450 l 1,259,-1
 1127 450 l 1,260,-1
 1127 546 l 1,261,-1
 1025 546 l 1,258,-1
922 351 m 1,262,-1
 922 255 l 1,263,-1
 1025 255 l 1,264,-1
 1025 351 l 1,265,-1
 922 351 l 1,262,-1
1127 62 m 1,266,-1
 1127 159 l 1,267,-1
 1025 159 l 1,268,-1
 1025 62 l 1,269,-1
 1127 62 l 1,266,-1
922 -36 m 1,270,-1
 922 -130 l 1,271,-1
 1025 -130 l 1,272,-1
 1025 -36 l 1,273,-1
 922 -36 l 1,270,-1
1127 -325 m 1,274,-1
 1127 -228 l 1,275,-1
 1025 -228 l 1,276,-1
 1025 -325 l 1,277,-1
 1127 -325 l 1,274,-1
922 -421 m 1,278,-1
 922 -517 l 1,279,-1
 1025 -517 l 1,280,-1
 1025 -421 l 1,281,-1
 922 -421 l 1,278,-1
1127 1320 m 1,282,-1
 1025 1320 l 1,283,-1
 1025 1222 l 1,284,-1
 1127 1222 l 1,285,-1
 1127 1320 l 1,282,-1
1025 1512 m 1,286,-1
 922 1512 l 1,287,-1
 922 1414 l 1,288,-1
 1025 1414 l 1,289,-1
 1025 1512 l 1,286,-1
EndSplineSet
Validated: 1
EndChar

StartChar: filledbox
Encoding: 9632 9632 373
Width: 1229
GlyphClass: 2
Flags: W
LayerCount: 2
Fore
SplineSet
119 1108 m 1,0,-1
 1110 1108 l 1,1,-1
 1110 117 l 1,2,-1
 119 117 l 1,3,-1
 119 1108 l 1,0,-1
EndSplineSet
Validated: 1
EndChar

StartChar: filledrect
Encoding: 9644 9644 374
Width: 1229
GlyphClass: 2
Flags: W
LayerCount: 2
Fore
SplineSet
8 546 m 1,0,-1
 1221 546 l 1,1,-1
 1221 70 l 1,2,-1
 8 70 l 1,3,-1
 8 546 l 1,0,-1
EndSplineSet
Validated: 1
EndChar

StartChar: triagup
Encoding: 9650 9650 375
Width: 1229
GlyphClass: 2
Flags: W
LayerCount: 2
Fore
SplineSet
15 50 m 1,0,-1
 615 1198 l 1,1,-1
 1213 50 l 1,2,-1
 15 50 l 1,0,-1
EndSplineSet
Validated: 1
EndChar

StartChar: triagrt
Encoding: 9658 9658 376
Width: 1229
GlyphClass: 2
Flags: W
LayerCount: 2
Fore
SplineSet
52 1196 m 1,0,-1
 1227 586 l 1,1,-1
 52 -27 l 1,2,-1
 52 1196 l 1,0,-1
EndSplineSet
Validated: 1
EndChar

StartChar: triagdn
Encoding: 9660 9660 377
Width: 1229
GlyphClass: 2
Flags: W
LayerCount: 2
Fore
SplineSet
1213 1121 m 1,0,-1
 615 -27 l 1,1,-1
 15 1121 l 1,2,-1
 1213 1121 l 1,0,-1
EndSplineSet
Validated: 1
EndChar

StartChar: triaglf
Encoding: 9668 9668 378
Width: 1229
GlyphClass: 2
Flags: W
LayerCount: 2
Fore
SplineSet
1177 1196 m 1,0,-1
 1177 -27 l 1,1,-1
 2 586 l 1,2,-1
 1177 1196 l 1,0,-1
EndSplineSet
Validated: 1
EndChar

StartChar: circle
Encoding: 9675 9675 379
Width: 1229
GlyphClass: 2
Flags: W
LayerCount: 2
Fore
SplineSet
163 612 m 256,0,1
 163 734 163 734 223 839 c 128,-1,2
 283 944 283 944 387.5 1004.5 c 128,-1,3
 492 1065 492 1065 613 1065 c 0,4,5
 735 1065 735 1065 840 1004.5 c 128,-1,6
 945 944 945 944 1005.5 838.5 c 128,-1,7
 1066 733 1066 733 1066 612 c 256,8,9
 1066 491 1066 491 1005.5 386.5 c 128,-1,10
 945 282 945 282 840.5 222 c 128,-1,11
 736 162 736 162 613 162 c 0,12,13
 491 162 491 162 387 222 c 128,-1,14
 283 282 283 282 223 386 c 128,-1,15
 163 490 163 490 163 612 c 256,0,1
249 612 m 0,16,17
 249 514 249 514 298 429.5 c 128,-1,18
 347 345 347 345 430.5 296.5 c 128,-1,19
 514 248 514 248 613 248 c 0,20,21
 711 248 711 248 795.5 296 c 128,-1,22
 880 344 880 344 930 429 c 128,-1,23
 980 514 980 514 980 612 c 256,24,25
 980 710 980 710 931 795.5 c 128,-1,26
 882 881 882 881 796.5 930 c 128,-1,27
 711 979 711 979 613 979 c 0,28,29
 516 979 516 979 431.5 930 c 128,-1,30
 347 881 347 881 298 796.5 c 128,-1,31
 249 712 249 712 249 612 c 0,16,17
EndSplineSet
Validated: 1
EndChar

StartChar: invbullet
Encoding: 9688 9688 380
Width: 1229
GlyphClass: 2
Flags: W
LayerCount: 2
Fore
SplineSet
37 0 m 1,0,-1
 37 1155 l 1,1,-1
 1192 1155 l 1,2,-1
 1192 0 l 1,3,-1
 37 0 l 1,0,-1
172 577 m 256,4,5
 172 459 172 459 231 357 c 128,-1,6
 290 255 290 255 391.5 196 c 128,-1,7
 493 137 493 137 612 137 c 0,8,9
 730 137 730 137 832.5 196 c 128,-1,10
 935 255 935 255 994 357.5 c 128,-1,11
 1053 460 1053 460 1053 577 c 0,12,13
 1053 695 1053 695 994 797.5 c 128,-1,14
 935 900 935 900 833 959 c 128,-1,15
 731 1018 731 1018 612 1018 c 0,16,17
 494 1018 494 1018 391.5 958.5 c 128,-1,18
 289 899 289 899 230.5 797 c 128,-1,19
 172 695 172 695 172 577 c 256,4,5
EndSplineSet
Validated: 1
EndChar

StartChar: invcircle
Encoding: 9689 9689 381
Width: 1229
GlyphClass: 2
Flags: W
LayerCount: 2
Fore
SplineSet
37 0 m 1,0,-1
 37 1155 l 1,1,-1
 1192 1155 l 1,2,-1
 1192 0 l 1,3,-1
 37 0 l 1,0,-1
249 577 m 256,4,5
 249 674 249 674 298 759 c 128,-1,6
 347 844 347 844 432 893 c 128,-1,7
 517 942 517 942 614 942 c 256,8,9
 711 942 711 942 796 893 c 128,-1,10
 881 844 881 844 930 759 c 128,-1,11
 979 674 979 674 979 577 c 256,12,13
 979 480 979 480 930 395 c 128,-1,14
 881 310 881 310 796 261 c 128,-1,15
 711 212 711 212 614 212 c 256,16,17
 517 212 517 212 432 261 c 128,-1,18
 347 310 347 310 298 395 c 128,-1,19
 249 480 249 480 249 577 c 256,4,5
172 577 m 256,20,21
 172 459 172 459 231 357 c 128,-1,22
 290 255 290 255 391.5 196 c 128,-1,23
 493 137 493 137 612 137 c 0,24,25
 730 137 730 137 832.5 196 c 128,-1,26
 935 255 935 255 994 357.5 c 128,-1,27
 1053 460 1053 460 1053 577 c 0,28,29
 1053 695 1053 695 994 797.5 c 128,-1,30
 935 900 935 900 833 959 c 128,-1,31
 731 1018 731 1018 612 1018 c 0,32,33
 494 1018 494 1018 391.5 958.5 c 128,-1,34
 289 899 289 899 230.5 797 c 128,-1,35
 172 695 172 695 172 577 c 256,20,21
EndSplineSet
Validated: 1
EndChar

StartChar: smileface
Encoding: 9786 9786 382
Width: 1229
GlyphClass: 2
Flags: W
LayerCount: 2
Fore
SplineSet
27 589 m 256,0,1
 27 747 27 747 105.5 883 c 128,-1,2
 184 1019 184 1019 320 1097.5 c 128,-1,3
 456 1176 456 1176 614 1176 c 256,4,5
 772 1176 772 1176 907.5 1097.5 c 128,-1,6
 1043 1019 1043 1019 1122 883 c 128,-1,7
 1201 747 1201 747 1201 589 c 256,8,9
 1201 431 1201 431 1122.5 295 c 128,-1,10
 1044 159 1044 159 908 80.5 c 128,-1,11
 772 2 772 2 614 2 c 256,12,13
 456 2 456 2 320 80.5 c 128,-1,14
 184 159 184 159 105.5 295 c 128,-1,15
 27 431 27 431 27 589 c 256,0,1
90 589 m 0,16,17
 90 449 90 449 160 327.5 c 128,-1,18
 230 206 230 206 351.5 135.5 c 128,-1,19
 473 65 473 65 614 65 c 0,20,21
 754 65 754 65 875.5 135.5 c 128,-1,22
 997 206 997 206 1067 328 c 128,-1,23
 1137 450 1137 450 1137 589 c 0,24,25
 1137 729 1137 729 1067 850 c 128,-1,26
 997 971 997 971 876 1041.5 c 128,-1,27
 755 1112 755 1112 614 1112 c 0,28,29
 474 1112 474 1112 352.5 1042 c 128,-1,30
 231 972 231 972 160.5 850 c 128,-1,31
 90 728 90 728 90 589 c 0,16,17
326 741 m 256,32,33
 326 770 326 770 346.5 791 c 128,-1,34
 367 812 367 812 396 812 c 256,35,36
 425 812 425 812 446 791 c 128,-1,37
 467 770 467 770 467 741 c 256,38,39
 467 712 467 712 446 691.5 c 128,-1,40
 425 671 425 671 396 671 c 256,41,42
 367 671 367 671 346.5 691.5 c 128,-1,43
 326 712 326 712 326 741 c 256,32,33
761 741 m 256,44,45
 761 770 761 770 781.5 791 c 128,-1,46
 802 812 802 812 831 812 c 256,47,48
 860 812 860 812 881 791 c 128,-1,49
 902 770 902 770 902 741 c 256,50,51
 902 712 902 712 881 691.5 c 128,-1,52
 860 671 860 671 831 671 c 256,53,54
 802 671 802 671 781.5 691.5 c 128,-1,55
 761 712 761 712 761 741 c 256,44,45
353 442 m 1,56,57
 411 364 411 364 473.5 335 c 128,-1,58
 536 306 536 306 614 306 c 0,59,60
 694 306 694 306 756 335.5 c 128,-1,61
 818 365 818 365 875 442 c 1,62,-1
 933 393 l 1,63,64
 821 216 821 216 614 216 c 0,65,66
 543 216 543 216 485.5 236 c 128,-1,67
 428 256 428 256 384.5 290 c 128,-1,68
 341 324 341 324 295 393 c 1,69,-1
 353 442 l 1,56,57
EndSplineSet
Validated: 1
EndChar

StartChar: invsmileface
Encoding: 9787 9787 383
Width: 1229
GlyphClass: 2
Flags: W
LayerCount: 2
Fore
SplineSet
27 589 m 256,0,1
 27 747 27 747 105.5 883 c 128,-1,2
 184 1019 184 1019 320 1097.5 c 128,-1,3
 456 1176 456 1176 614 1176 c 256,4,5
 772 1176 772 1176 907.5 1097.5 c 128,-1,6
 1043 1019 1043 1019 1122 883 c 128,-1,7
 1201 747 1201 747 1201 589 c 256,8,9
 1201 431 1201 431 1122.5 295 c 128,-1,10
 1044 159 1044 159 908 80.5 c 128,-1,11
 772 2 772 2 614 2 c 256,12,13
 456 2 456 2 320 80.5 c 128,-1,14
 184 159 184 159 105.5 295 c 128,-1,15
 27 431 27 431 27 589 c 256,0,1
326 741 m 256,16,17
 326 712 326 712 346.5 691.5 c 128,-1,18
 367 671 367 671 396 671 c 256,19,20
 425 671 425 671 446 691.5 c 128,-1,21
 467 712 467 712 467 741 c 256,22,23
 467 770 467 770 446 791 c 128,-1,24
 425 812 425 812 396 812 c 256,25,26
 367 812 367 812 346.5 791 c 128,-1,27
 326 770 326 770 326 741 c 256,16,17
761 741 m 256,28,29
 761 712 761 712 781.5 691.5 c 128,-1,30
 802 671 802 671 831 671 c 256,31,32
 860 671 860 671 881 691.5 c 128,-1,33
 902 712 902 712 902 741 c 256,34,35
 902 770 902 770 881 791 c 128,-1,36
 860 812 860 812 831 812 c 256,37,38
 802 812 802 812 781.5 791 c 128,-1,39
 761 770 761 770 761 741 c 256,28,29
295 393 m 1,40,41
 340 325 340 325 383.5 291 c 128,-1,42
 427 257 427 257 484 236.5 c 128,-1,43
 541 216 541 216 614 216 c 0,44,45
 821 216 821 216 933 393 c 1,46,-1
 875 442 l 1,47,48
 817 364 817 364 754.5 335 c 128,-1,49
 692 306 692 306 614 306 c 0,50,51
 535 306 535 306 472.5 335.5 c 128,-1,52
 410 365 410 365 353 442 c 1,53,-1
 295 393 l 1,40,41
EndSplineSet
Validated: 1
EndChar

StartChar: sun
Encoding: 9788 9788 384
Width: 1229
GlyphClass: 2
Flags: W
LayerCount: 2
Fore
SplineSet
224 907 m 1,0,-1
 388 742 l 1,1,2
 475 811 475 811 578 821 c 1,3,-1
 578 1054 l 1,4,-1
 650 1054 l 1,5,-1
 650 821 l 1,6,7
 752 812 752 812 839 742 c 1,8,-1
 1004 907 l 1,9,-1
 1055 856 l 1,10,-1
 890 691 l 1,11,12
 960 604 960 604 969 502 c 1,13,-1
 1202 502 l 1,14,-1
 1202 430 l 1,15,-1
 969 430 l 1,16,17
 959 327 959 327 890 240 c 1,18,-1
 1055 76 l 1,19,-1
 1004 25 l 1,20,-1
 839 189 l 1,21,22
 752 119 752 119 650 110 c 1,23,-1
 650 -122 l 1,24,-1
 578 -122 l 1,25,-1
 578 110 l 1,26,27
 475 120 475 120 388 189 c 1,28,-1
 224 25 l 1,29,-1
 173 76 l 1,30,-1
 337 240 l 1,31,32
 268 327 268 327 258 430 c 1,33,-1
 26 430 l 1,34,-1
 26 502 l 1,35,-1
 258 502 l 1,36,37
 267 604 267 604 337 691 c 1,38,-1
 173 856 l 1,39,-1
 224 907 l 1,0,-1
329 466 m 256,40,41
 329 348 329 348 411.5 264.5 c 128,-1,42
 494 181 494 181 614 181 c 256,43,44
 734 181 734 181 816.5 264.5 c 128,-1,45
 899 348 899 348 899 466 c 256,46,47
 899 584 899 584 815.5 667.5 c 128,-1,48
 732 751 732 751 614 751 c 256,49,50
 496 751 496 751 412.5 667.5 c 128,-1,51
 329 584 329 584 329 466 c 256,40,41
EndSplineSet
Validated: 1
EndChar

StartChar: female
Encoding: 9792 9792 385
Width: 1229
GlyphClass: 2
Flags: W
LayerCount: 2
Fore
SplineSet
344 376 m 1,0,-1
 578 376 l 1,1,-1
 578 578 l 1,2,3
 464 592 464 592 390 677 c 128,-1,4
 316 762 316 762 316 874 c 0,5,6
 316 997 316 997 403.5 1084.5 c 128,-1,7
 491 1172 491 1172 614 1172 c 256,8,9
 737 1172 737 1172 824.5 1084.5 c 128,-1,10
 912 997 912 997 912 874 c 0,11,12
 912 763 912 763 838 678 c 128,-1,13
 764 593 764 593 650 578 c 1,14,-1
 650 376 l 1,15,-1
 884 376 l 1,16,-1
 884 304 l 1,17,-1
 650 304 l 1,18,-1
 650 70 l 1,19,-1
 578 70 l 1,20,-1
 578 304 l 1,21,-1
 344 304 l 1,22,-1
 344 376 l 1,0,-1
388 874 m 0,23,24
 388 780 388 780 454 714 c 128,-1,25
 520 648 520 648 614 648 c 0,26,27
 709 648 709 648 774.5 715 c 128,-1,28
 840 782 840 782 840 874 c 0,29,30
 840 967 840 967 774 1033.5 c 128,-1,31
 708 1100 708 1100 614 1100 c 0,32,33
 523 1100 523 1100 455.5 1035 c 128,-1,34
 388 970 388 970 388 874 c 0,23,24
EndSplineSet
Validated: 1
EndChar

StartChar: male
Encoding: 9794 9794 386
Width: 1229
GlyphClass: 2
Flags: W
LayerCount: 2
Fore
SplineSet
164 412 m 256,0,1
 164 535 164 535 251.5 622.5 c 128,-1,2
 339 710 339 710 462 710 c 0,3,4
 564 710 564 710 645 646 c 1,5,-1
 902 903 l 1,6,-1
 676 923 l 1,7,-1
 674 978 l 1,8,-1
 1005 978 l 1,9,-1
 1028 955 l 1,10,-1
 1028 624 l 1,11,-1
 973 626 l 1,12,-1
 953 852 l 1,13,-1
 696 595 l 1,14,15
 760 514 760 514 760 412 c 0,16,17
 760 289 760 289 672.5 201.5 c 128,-1,18
 585 114 585 114 462 114 c 256,19,20
 339 114 339 114 251.5 201.5 c 128,-1,21
 164 289 164 289 164 412 c 256,0,1
236 412 m 0,22,23
 236 318 236 318 302 252 c 128,-1,24
 368 186 368 186 462 186 c 0,25,26
 557 186 557 186 622.5 253 c 128,-1,27
 688 320 688 320 688 412 c 0,28,29
 688 505 688 505 622 571.5 c 128,-1,30
 556 638 556 638 462 638 c 0,31,32
 371 638 371 638 303.5 573 c 128,-1,33
 236 508 236 508 236 412 c 0,22,23
EndSplineSet
Validated: 1
EndChar

StartChar: spade
Encoding: 9824 9824 387
Width: 1229
GlyphClass: 2
Flags: W
LayerCount: 2
Fore
SplineSet
640 1195 m 1,0,1
 640 1109 640 1109 711 1002.5 c 128,-1,2
 782 896 782 896 891 810 c 0,3,4
 1021 708 1021 708 1073.5 632.5 c 128,-1,5
 1126 557 1126 557 1126 478 c 0,6,7
 1126 370 1126 370 1058 305 c 128,-1,8
 990 240 990 240 891 240 c 0,9,10
 831 240 831 240 765 268.5 c 128,-1,11
 699 297 699 297 662 340 c 1,12,13
 662 207 662 207 749.5 131.5 c 128,-1,14
 837 56 837 56 982 56 c 1,15,-1
 982 0 l 1,16,-1
 246 0 l 1,17,-1
 246 56 l 1,18,19
 391 56 391 56 478.5 131.5 c 128,-1,20
 566 207 566 207 566 340 c 1,21,22
 528 297 528 297 462 268.5 c 128,-1,23
 396 240 396 240 337 240 c 0,24,25
 237 240 237 240 169.5 305 c 128,-1,26
 102 370 102 370 102 478 c 0,27,28
 102 555 102 555 151.5 628 c 128,-1,29
 201 701 201 701 337 810 c 1,30,31
 446 895 446 895 517 1002.5 c 128,-1,32
 588 1110 588 1110 588 1195 c 1,33,-1
 640 1195 l 1,0,1
EndSplineSet
Validated: 1
EndChar

StartChar: club
Encoding: 9827 9827 388
Width: 1229
GlyphClass: 2
Flags: W
LayerCount: 2
Fore
SplineSet
614 1195 m 256,0,1
 699 1195 699 1195 761 1164.5 c 128,-1,2
 823 1134 823 1134 857 1079.5 c 128,-1,3
 891 1025 891 1025 891 961 c 0,4,5
 891 894 891 894 857.5 827.5 c 128,-1,6
 824 761 824 761 773 725 c 1,7,-1
 828 728 l 1,8,9
 963 728 963 728 1047 659.5 c 128,-1,10
 1131 591 1131 591 1131 478 c 0,11,12
 1131 370 1131 370 1063 305 c 128,-1,13
 995 240 995 240 896 240 c 0,14,15
 835 240 835 240 767 269.5 c 128,-1,16
 699 299 699 299 662 340 c 1,17,18
 662 207 662 207 749.5 131.5 c 128,-1,19
 837 56 837 56 982 56 c 1,20,-1
 982 0 l 1,21,-1
 246 0 l 1,22,-1
 246 56 l 1,23,24
 391 56 391 56 478.5 131.5 c 128,-1,25
 566 207 566 207 566 340 c 1,26,27
 530 299 530 299 462.5 269.5 c 128,-1,28
 395 240 395 240 332 240 c 0,29,30
 232 240 232 240 164.5 305 c 128,-1,31
 97 370 97 370 97 478 c 0,32,33
 97 592 97 592 181 660 c 128,-1,34
 265 728 265 728 400 728 c 1,35,-1
 455 725 l 1,36,37
 404 761 404 761 370.5 827.5 c 128,-1,38
 337 894 337 894 337 961 c 0,39,40
 337 1025 337 1025 371 1079.5 c 128,-1,41
 405 1134 405 1134 467 1164.5 c 128,-1,42
 529 1195 529 1195 614 1195 c 256,0,1
EndSplineSet
Validated: 1
EndChar

StartChar: heart
Encoding: 9829 9829 389
Width: 1229
GlyphClass: 2
Flags: W
LayerCount: 2
Fore
SplineSet
588 -1 m 1,0,1
 588 67 588 67 528.5 171.5 c 128,-1,2
 469 276 469 276 337 434 c 1,3,4
 102 719 102 719 102 880 c 0,5,6
 102 950 102 950 135.5 1007 c 128,-1,7
 169 1064 169 1064 226 1096 c 128,-1,8
 283 1128 283 1128 347 1128 c 0,9,10
 436 1128 436 1128 508.5 1062.5 c 128,-1,11
 581 997 581 997 611 898 c 1,12,-1
 617 898 l 1,13,14
 647 998 647 998 720 1063 c 128,-1,15
 793 1128 793 1128 881 1128 c 0,16,17
 945 1128 945 1128 1002 1096 c 128,-1,18
 1059 1064 1059 1064 1092.5 1006.5 c 128,-1,19
 1126 949 1126 949 1126 880 c 0,20,21
 1126 719 1126 719 891 434 c 1,22,23
 783 301 783 301 738.5 234 c 128,-1,24
 694 167 694 167 667 107.5 c 128,-1,25
 640 48 640 48 640 -1 c 1,26,-1
 588 -1 l 1,0,1
EndSplineSet
Validated: 1
EndChar

StartChar: diamond
Encoding: 9830 9830 390
Width: 1229
GlyphClass: 2
Flags: W
LayerCount: 2
Fore
SplineSet
132 597 m 1,0,-1
 132 600 l 1,1,2
 381 884 381 884 608 1198 c 1,3,-1
 620 1198 l 1,4,5
 847 884 847 884 1096 600 c 1,6,-1
 1096 597 l 1,7,8
 847 313 847 313 620 -1 c 1,9,-1
 608 -1 l 1,10,11
 381 313 381 313 132 597 c 1,0,-1
EndSplineSet
Validated: 1
EndChar

StartChar: musicalnote
Encoding: 9834 9834 391
Width: 1229
GlyphClass: 2
Flags: W
LayerCount: 2
Fore
SplineSet
788 272 m 5,0,1
 823 310 823 310 843.5 367.5 c 132,-1,2
 864 425 864 425 864 490 c 4,3,4
 864 594 864 594 809 676.5 c 132,-1,5
 754 759 754 759 664 789 c 5,6,-1
 664 191 l 6,7,8
 664 123 664 123 596 73.5 c 132,-1,9
 528 24 528 24 442 24 c 4,10,11
 373 24 373 24 327.5 58 c 132,-1,12
 282 92 282 92 282 148 c 4,13,14
 282 213 282 213 350.5 263 c 132,-1,15
 419 313 419 313 502 313 c 4,16,17
 560 313 560 313 602 290 c 5,18,-1
 602 1126 l 5,19,-1
 640 1126 l 5,20,21
 652 1010 652 1010 773 887 c 4,22,23
 860 798 860 798 898.5 715.5 c 132,-1,24
 937 633 937 633 937 531 c 4,25,26
 937 459 937 459 909.5 391 c 132,-1,27
 882 323 882 323 834 272 c 5,28,-1
 788 272 l 5,0,1
EndSplineSet
Validated: 1
EndChar

StartChar: uni266B
Encoding: 9835 9835 392
Width: 1229
GlyphClass: 2
Flags: W
HStem: -46 289<189.119 418.484> 44 289<779.119 1008.48>
VStem: 432 62<220 924> 1022 62<310 1005>
LayerCount: 2
Fore
SplineSet
862 44 m 4,0,1
 793 44 793 44 747.5 78 c 132,-1,2
 702 112 702 112 702 168 c 4,3,4
 702 233 702 233 770.5 283 c 132,-1,5
 839 333 839 333 922 333 c 4,6,7
 980 333 980 333 1022 310 c 5,8,-1
 1022 1005 l 5,9,-1
 494 924 l 5,10,-1
 494 121 l 6,11,12
 494 53 494 53 426 3.5 c 132,-1,13
 358 -46 358 -46 272 -46 c 4,14,15
 203 -46 203 -46 157.5 -12 c 132,-1,16
 112 22 112 22 112 78 c 4,17,18
 112 143 112 143 180.5 193 c 132,-1,19
 249 243 249 243 332 243 c 4,20,21
 390 243 390 243 432 220 c 5,22,-1
 432 1055 l 5,23,-1
 1084 1155 l 5,24,-1
 1084 211 l 6,25,26
 1084 143 1084 143 1016 93.5 c 132,-1,27
 948 44 948 44 862 44 c 4,0,1
EndSplineSet
Validated: 1
EndChar

StartChar: IJ
Encoding: 306 306 393
Width: 1229
GlyphClass: 2
Flags: W
LayerCount: 2
Fore
SplineSet
73 1349 m 1,0,-1
 357 1349 l 1,1,-1
 357 0 l 1,2,-1
 73 0 l 1,3,-1
 73 1349 l 1,0,-1
784 -20 m 0,4,5
 611 -20 611 -20 522.5 69 c 128,-1,6
 434 158 434 158 417 360 c 1,7,-1
 681 398 l 1,8,9
 692 296 692 296 715.5 253.5 c 128,-1,10
 739 211 739 211 791 211 c 0,11,12
 837 211 837 211 855 258 c 128,-1,13
 873 305 873 305 873 414 c 2,14,-1
 873 1118 l 1,15,-1
 619 1118 l 1,16,-1
 619 1349 l 1,17,-1
 1159 1349 l 1,18,-1
 1159 446 l 2,19,20
 1159 -20 1159 -20 784 -20 c 0,4,5
EndSplineSet
Validated: 1
EndChar

StartChar: ij
Encoding: 307 307 394
Width: 1229
GlyphClass: 2
Flags: W
LayerCount: 2
Fore
SplineSet
451 0 m 1,0,-1
 170 0 l 1,1,-1
 170 1082 l 1,2,-1
 451 1082 l 1,3,-1
 451 0 l 1,0,-1
170 1277 m 1,4,-1
 170 1484 l 1,5,-1
 451 1484 l 1,6,-1
 451 1277 l 1,7,-1
 170 1277 l 1,4,-1
1053 -13 m 2,8,9
 1053 -142 1053 -142 996.5 -234.5 c 128,-1,10
 940 -327 940 -327 835.5 -376 c 128,-1,11
 731 -425 731 -425 594 -425 c 0,12,13
 515 -425 515 -425 433 -412 c 128,-1,14
 351 -399 351 -399 306 -382 c 1,15,-1
 306 -172 l 1,16,17
 442 -206 442 -206 569 -206 c 0,18,19
 679 -206 679 -206 725 -152.5 c 128,-1,20
 771 -99 771 -99 771 10 c 2,21,-1
 771 1082 l 1,22,-1
 1053 1082 l 1,23,-1
 1053 -13 l 2,8,9
772 1277 m 1,24,-1
 772 1484 l 1,25,-1
 1053 1484 l 1,26,-1
 1053 1277 l 1,27,-1
 772 1277 l 1,24,-1
EndSplineSet
Validated: 1
EndChar

StartChar: napostrophe
Encoding: 329 329 395
Width: 1229
GlyphClass: 2
Flags: W
LayerCount: 2
Fore
SplineSet
905 0 m 1,0,-1
 905 619 l 2,1,2
 905 761 905 761 869 826.5 c 128,-1,3
 833 892 833 892 754 892 c 0,4,5
 664 892 664 892 604.5 802.5 c 128,-1,6
 545 713 545 713 545 580 c 2,7,-1
 545 0 l 1,8,-1
 264 0 l 1,9,-1
 264 840 l 2,10,11
 264 927 264 927 261.5 982.5 c 128,-1,12
 259 1038 259 1038 256 1082 c 1,13,-1
 524 1082 l 1,14,15
 527 1063 527 1063 532 980.5 c 128,-1,16
 537 898 537 898 537 867 c 1,17,-1
 541 867 l 1,18,19
 650 1103 650 1103 869 1103 c 0,20,21
 1024 1103 1024 1103 1104.5 997 c 128,-1,22
 1185 891 1185 891 1185 687 c 2,23,-1
 1185 0 l 1,24,-1
 905 0 l 1,0,-1
0 995 m 1,25,-1
 0 1028 l 1,26,-1
 89 1350 l 1,27,-1
 346 1350 l 1,28,-1
 346 1313 l 1,29,-1
 165 995 l 1,30,-1
 0 995 l 1,25,-1
EndSplineSet
Validated: 1
EndChar

StartChar: minute
Encoding: 8242 8242 396
Width: 1229
GlyphClass: 2
Flags: W
LayerCount: 2
Fore
SplineSet
714 844 m 1,0,-1
 515 844 l 1,1,-1
 478 1485 l 1,2,-1
 751 1485 l 1,3,-1
 714 844 l 1,0,-1
EndSplineSet
Validated: 1
EndChar

StartChar: second
Encoding: 8243 8243 397
Width: 1229
GlyphClass: 2
Flags: W
LayerCount: 2
Fore
SplineSet
942 844 m 1,0,-1
 743 844 l 1,1,-1
 706 1485 l 1,2,-1
 981 1485 l 1,3,-1
 942 844 l 1,0,-1
486 844 m 1,4,-1
 287 844 l 1,5,-1
 250 1485 l 1,6,-1
 523 1485 l 1,7,-1
 486 844 l 1,4,-1
EndSplineSet
Validated: 1
EndChar

StartChar: uni2105
Encoding: 8453 8453 398
Width: 1229
GlyphClass: 2
Flags: W
LayerCount: 2
Fore
SplineSet
1229 404 m 0,0,1
 1229 203 1229 203 1158 95.5 c 128,-1,2
 1087 -12 1087 -12 959 -12 c 256,3,4
 831 -12 831 -12 762.5 95.5 c 128,-1,5
 694 203 694 203 694 404 c 0,6,7
 694 615 694 615 760.5 720 c 128,-1,8
 827 825 827 825 963 825 c 0,9,10
 1229 825 1229 825 1229 404 c 0,0,1
1061 404 m 0,11,12
 1061 694 1061 694 963 694 c 0,13,14
 861 694 861 694 861 404 c 0,15,16
 861 264 861 264 887.5 191 c 128,-1,17
 914 118 914 118 961 118 c 256,18,19
 1008 118 1008 118 1034.5 193.5 c 128,-1,20
 1061 269 1061 269 1061 404 c 0,11,12
166 945 m 0,21,22
 166 802 166 802 194.5 729 c 128,-1,23
 223 656 223 656 272 656 c 0,24,25
 310 656 310 656 328 697.5 c 128,-1,26
 346 739 346 739 356 825 c 1,27,-1
 517 816 l 1,28,29
 503 685 503 685 438 603.5 c 128,-1,30
 373 522 373 522 276 522 c 0,31,32
 141 522 141 522 70.5 633.5 c 128,-1,33
 0 745 0 745 0 942 c 0,34,35
 0 1144 0 1144 70 1252 c 128,-1,36
 140 1360 140 1360 275 1360 c 0,37,38
 370 1360 370 1360 431 1287 c 128,-1,39
 492 1214 492 1214 512 1081 c 1,40,-1
 349 1070 l 1,41,42
 338 1150 338 1150 329 1176 c 128,-1,43
 320 1202 320 1202 306 1214.5 c 128,-1,44
 292 1227 292 1227 271 1227 c 0,45,46
 166 1227 166 1227 166 945 c 0,21,22
332 0 m 1,47,-1
 194 0 l 1,48,-1
 897 1349 l 1,49,-1
 1032 1349 l 1,50,-1
 332 0 l 1,47,-1
EndSplineSet
Validated: 1
EndChar

StartChar: uni2113
Encoding: 8467 8467 399
Width: 1229
GlyphClass: 2
Flags: W
LayerCount: 2
Fore
SplineSet
697 195 m 0,0,1
 777 195 777 195 819.5 248 c 128,-1,2
 862 301 862 301 885 408 c 1,3,-1
 1031 408 l 1,4,5
 947 -20 947 -20 616 -20 c 0,6,7
 447 -20 447 -20 367.5 63.5 c 128,-1,8
 288 147 288 147 288 310 c 2,9,-1
 288 476 l 1,10,-1
 156 428 l 1,11,-1
 156 623 l 1,12,-1
 288 671 l 1,13,-1
 288 1061 l 2,14,15
 288 1241 288 1241 393 1335 c 128,-1,16
 498 1429 498 1429 689 1429 c 0,17,18
 856 1429 856 1429 949.5 1351.5 c 128,-1,19
 1043 1274 1043 1274 1043 1132 c 0,20,21
 1043 940 1043 940 918.5 798 c 128,-1,22
 794 656 794 656 568 578 c 1,23,-1
 568 377 l 2,24,25
 568 195 568 195 697 195 c 0,0,1
804 1107 m 0,26,27
 804 1176 804 1176 777 1218 c 128,-1,28
 750 1260 750 1260 693 1260 c 0,29,30
 576 1260 576 1260 576 1112 c 2,31,-1
 576 776 l 1,32,33
 682 819 682 819 743 908.5 c 128,-1,34
 804 998 804 998 804 1107 c 0,26,27
EndSplineSet
Validated: 1
EndChar

StartChar: uni25A1
Encoding: 9633 9633 400
Width: 1229
GlyphClass: 2
Flags: W
LayerCount: 2
Fore
SplineSet
2 1225 m 1,0,-1
 1227 1225 l 1,1,-1
 1227 0 l 1,2,-1
 2 0 l 1,3,-1
 2 1225 l 1,0,-1
78 1149 m 1,4,-1
 78 76 l 1,5,-1
 1151 76 l 1,6,-1
 1151 1149 l 1,7,-1
 78 1149 l 1,4,-1
EndSplineSet
Validated: 1
EndChar

